<?xml version="1.0" encoding="UTF-8"?> <svg xmlns="http://www.w3.org/2000/svg" xmlns:xlink="http://www.w3.org/1999/xlink" version="1.1" id="Layer_1" x="0px" y="0px" viewBox="0 0 128 128" style="enable-background:new 0 0 128 128;" xml:space="preserve"> <style type="text/css"> .st0{fill:#FFFFFF;} .st1{fill-rule:evenodd;clip-rule:evenodd;fill:#1F5129;} .st2{fill-rule:evenodd;clip-rule:evenodd;fill:#101010;fill-opacity:0.2;} .st3{fill:#101010;fill-opacity:0.2;} </style> <path class="st0" d="M110,71v31c0,1.1-0.9,2-2,2H19c-1.1,0-2-0.9-2-2V84c0-1.1,0.9-2,2-2h14V58c0-1.1,0.9-2,2-2h44c1.1,0,2,0.9,2,2 v11h27C109.1,69,110,69.9,110,71z"></path> <path class="st1" d="M74,55c0-4.4,3.6-8,8-8s8,3.6,8,8s-3.6,8-8,8v5h26c1.7,0,3,1.3,3,3v31c0,1.7-1.3,3-3,3H19c-1.7,0-3-1.3-3-3V84 c0-1.7,1.3-3,3-3h13V58c0-1.7,1.3-3,3-3H74z M74.3,57H63v17c0,0.6-0.4,1-1,1H52c-0.6,0-1-0.4-1-1V57H35c-0.6,0-1,0.4-1,1v23h3 c1.7,0,3,1.3,3,3v19h40V62.7C77.2,62,75,59.8,74.3,57z M86.7,52.3c0.4,0.4,0.4,1,0,1.4l-5,5c-0.4,0.4-0.9,0.4-1.3,0.1l-2.5-2 c-0.4-0.3-0.5-1-0.2-1.4c0.3-0.4,1-0.5,1.4-0.2l1.8,1.4l4.4-4.4C85.7,51.9,86.3,51.9,86.7,52.3z M82,70v33h26c0.6,0,1-0.4,1-1V71 c0-0.6-0.4-1-1-1H97v15c0,0.6-0.4,1-1,1h-8c-0.6,0-1-0.4-1-1V70H82z M38,103V84c0-0.6-0.4-1-1-1h-6v7c0,0.6-0.4,1-1,1h-4 c-0.6,0-1-0.4-1-1v-7h-6c-0.6,0-1,0.4-1,1v18c0,0.6,0.4,1,1,1H38z"></path> <path class="st2" d="M76,24c0,6.6-7,20-12,20S52,30.6,52,24s5.4-12,12-12S76,17.4,76,24z M70,24c0,3.3-2.7,6-6,6c-3.3,0-6-2.7-6-6 s2.7-6,6-6C67.3,18,70,20.7,70,24z"></path> <path class="st3" d="M1,105c-0.6,0-1,0.4-1,1s0.4,1,1,1h126c0.6,0,1-0.4,1-1s-0.4-1-1-1H1z"></path> </svg> 