<?xml version="1.0" encoding="UTF-8"?> <svg xmlns="http://www.w3.org/2000/svg" xmlns:xlink="http://www.w3.org/1999/xlink" version="1.1" id="Layer_1" x="0px" y="0px" viewBox="0 0 128 128" style="enable-background:new 0 0 128 128;" xml:space="preserve"> <style type="text/css"> .st0{fill:none;stroke:#101010;stroke-width:2;stroke-linecap:round;stroke-opacity:0.2;} .st1{fill:#FFFFFF;} .st2{fill-rule:evenodd;clip-rule:evenodd;fill:#1F5129;} .st3{fill:#1F5129;} </style> <path class="st0" d="M1,106h126"></path> <path class="st1" d="M92,73h4c5.5,0,10,4.5,10,10v8c0,2.8-2.2,5-5,5h-3l-3,4H85l-3-4H44l-3,4H31l-3-4h-2c-2.8,0-5-2.2-5-5V50 c0-2.8,2.2-5,5-5h37c2.8,0,5,2.2,5,5v6h10.3c1.7,0,3.3,0.9,4.2,2.3L92,73z"></path> <path class="st2" d="M20,50c0-3.3,2.7-6,6-6h37c3.3,0,6,2.7,6,6v5h9.3c2,0,3.9,1,5,2.7L92.5,72H96c6.1,0,11,4.9,11,11v8 c0,3.3-2.7,6-6,6h-2.1c-0.5,4.5-4.3,8-8.9,8s-8.4-3.5-8.9-8H44.9c-0.5,4.5-4.3,8-8.9,8s-8.4-3.5-8.9-8H26c-3.3,0-6-2.7-6-6V66h2v6 h45V50c0-2.2-1.8-4-4-4H26c-2.2,0-4,1.8-4,4h6c0.6,0,1,0.4,1,1s-0.4,1-1,1H16c-0.6,0-1-0.4-1-1s0.4-1,1-1H20z M81.1,95 c0.5-4.5,4.3-8,8.9-8s8.4,3.5,8.9,8h2.1c2.2,0,4-1.8,4-4v-5h-2c-3.3,0-6-2.7-6-6v-1c0-0.6,0.4-1,1-1s1,0.4,1,1v1c0,2.2,1.8,4,4,4h2 v-1c0-5-4-9-9-9H69v21H81.1z M67,95H44.9c-0.5-4.5-4.3-8-8.9-8s-8.4,3.5-8.9,8H26c-2.2,0-4-1.8-4-4V74h45V95z M69,72h21.2l-8.5-13.2 c-0.7-1.1-2-1.8-3.4-1.8H69V72z M36,99c1.7,0,3-1.3,3-3s-1.3-3-3-3s-3,1.3-3,3S34.3,99,36,99z M93,96c0,1.7-1.3,3-3,3s-3-1.3-3-3 s1.3-3,3-3S93,94.3,93,96z"></path> <path class="st3" d="M20,56v-2h2v2h3c0.6,0,1,0.4,1,1s-0.4,1-1,1H9c-0.6,0-1-0.4-1-1s0.4-1,1-1H20z"></path> <path class="st3" d="M20,62v-2h2v2h8c0.6,0,1,0.4,1,1s-0.4,1-1,1H13c-0.6,0-1-0.4-1-1s0.4-1,1-1H20z"></path> </svg> 