<?xml version="1.0" encoding="UTF-8"?> <svg xmlns="http://www.w3.org/2000/svg" xmlns:xlink="http://www.w3.org/1999/xlink" width="40" zoomAndPan="magnify" viewBox="0 0 30 30.000001" height="40" preserveAspectRatio="xMidYMid meet" version="1.0"><defs><clipPath id="42f9e111b3"><path d="M 8 7.390625 L 10 7.390625 L 10 13 L 8 13 Z M 8 7.390625 " clip-rule="nonzero"></path></clipPath><clipPath id="162b32a505"><path d="M 7 7.390625 L 11 7.390625 L 11 10 L 7 10 Z M 7 7.390625 " clip-rule="nonzero"></path></clipPath><clipPath id="f8c3ccc19e"><path d="M 7 7.390625 L 11 7.390625 L 11 10 L 7 10 Z M 7 7.390625 " clip-rule="nonzero"></path></clipPath><clipPath id="4417433dbc"><path d="M 1.839844 7.390625 L 27.96875 7.390625 L 27.96875 21.910156 L 1.839844 21.910156 Z M 1.839844 7.390625 " clip-rule="nonzero"></path></clipPath></defs><path fill="#000000" d="M 7.289062 16.882812 C 7.289062 17.039062 7.234375 17.167969 7.128906 17.277344 C 7.023438 17.386719 6.894531 17.441406 6.746094 17.441406 C 6.59375 17.441406 6.464844 17.386719 6.359375 17.277344 C 6.253906 17.167969 6.199219 17.039062 6.199219 16.882812 C 6.199219 16.730469 6.253906 16.597656 6.359375 16.488281 C 6.464844 16.378906 6.59375 16.324219 6.746094 16.324219 C 6.894531 16.324219 7.023438 16.378906 7.128906 16.488281 C 7.234375 16.597656 7.289062 16.730469 7.289062 16.882812 Z M 7.289062 16.882812 " fill-opacity="1" fill-rule="nonzero"></path><g clip-path="url(#42f9e111b3)"><path fill="#000000" d="M 8.921875 12.976562 C 8.621094 12.976562 8.375 12.726562 8.375 12.417969 L 8.375 7.949219 C 8.375 7.640625 8.621094 7.390625 8.921875 7.390625 C 9.21875 7.390625 9.464844 7.640625 9.464844 7.949219 L 9.464844 12.417969 C 9.464844 12.726562 9.21875 12.976562 8.921875 12.976562 Z M 8.921875 12.976562 " fill-opacity="1" fill-rule="nonzero"></path></g><g clip-path="url(#162b32a505)"><path fill="#000000" d="M 9.464844 9.625 L 8.375 9.625 C 8.078125 9.625 7.832031 9.375 7.832031 9.066406 L 7.832031 7.949219 C 7.832031 7.640625 8.078125 7.390625 8.375 7.390625 L 9.464844 7.390625 C 9.765625 7.390625 10.007812 7.640625 10.007812 7.949219 L 10.007812 9.066406 C 10.007812 9.375 9.765625 9.625 9.464844 9.625 Z M 9.464844 9.625 " fill-opacity="1" fill-rule="nonzero"></path></g><path fill="#000000" d="M 11.09375 10.742188 C 10.796875 10.742188 10.550781 10.492188 10.550781 10.183594 C 10.550781 9.671875 10.128906 9.628906 10 9.625 L 7.832031 9.625 C 7.695312 9.640625 7.289062 9.722656 7.289062 10.183594 C 7.289062 10.492188 7.046875 10.742188 6.746094 10.742188 C 6.445312 10.742188 6.199219 10.492188 6.199219 10.183594 C 6.199219 9.03125 7.15625 8.550781 7.800781 8.511719 L 10.007812 8.507812 C 10.667969 8.519531 11.640625 8.972656 11.640625 10.183594 C 11.640625 10.492188 11.394531 10.742188 11.09375 10.742188 Z M 11.09375 10.742188 " fill-opacity="1" fill-rule="nonzero"></path><g clip-path="url(#f8c3ccc19e)"><path fill="#000000" d="M 10.007812 9.625 L 7.832031 9.625 C 7.53125 9.625 7.289062 9.375 7.289062 9.066406 L 7.289062 7.949219 C 7.289062 7.640625 7.53125 7.390625 7.832031 7.390625 L 10.007812 7.390625 C 10.308594 7.390625 10.550781 7.640625 10.550781 7.949219 L 10.550781 9.066406 C 10.550781 9.375 10.308594 9.625 10.007812 9.625 Z M 8.375 8.507812 L 9.464844 8.507812 Z M 8.375 8.507812 " fill-opacity="1" fill-rule="nonzero"></path></g><path fill="#000000" d="M 11.09375 19.675781 L 6.746094 19.675781 C 5.246094 19.675781 4.027344 18.421875 4.027344 16.882812 L 4.027344 12.417969 C 4.027344 11.929688 4.152344 11.457031 4.402344 11.019531 C 4.554688 10.753906 4.886719 10.660156 5.144531 10.816406 C 5.40625 10.972656 5.492188 11.3125 5.34375 11.582031 C 5.191406 11.847656 5.113281 12.128906 5.113281 12.417969 L 5.113281 16.882812 C 5.113281 17.808594 5.84375 18.558594 6.746094 18.558594 L 11.09375 18.558594 C 11.996094 18.558594 12.726562 17.808594 12.726562 16.882812 L 12.726562 12.417969 C 12.726562 12.128906 12.652344 11.847656 12.5 11.582031 C 12.347656 11.316406 12.4375 10.972656 12.695312 10.816406 C 12.953125 10.660156 13.289062 10.75 13.441406 11.019531 C 13.6875 11.457031 13.816406 11.929688 13.816406 12.417969 L 13.816406 16.882812 C 13.816406 18.421875 12.59375 19.675781 11.09375 19.675781 Z M 11.09375 19.675781 " fill-opacity="1" fill-rule="nonzero"></path><g clip-path="url(#4417433dbc)"><path fill="#000000" d="M 26.324219 21.910156 L 3.480469 21.910156 C 2.582031 21.910156 1.851562 21.15625 1.851562 20.234375 L 1.851562 9.066406 C 1.851562 8.144531 2.582031 7.390625 3.480469 7.390625 L 5.433594 7.390625 C 5.734375 7.390625 5.980469 7.640625 5.980469 7.949219 C 5.980469 8.257812 5.734375 8.507812 5.433594 8.507812 L 3.480469 8.507812 C 3.183594 8.507812 2.9375 8.761719 2.9375 9.066406 L 2.9375 20.234375 C 2.9375 20.539062 3.183594 20.792969 3.480469 20.792969 L 26.324219 20.792969 C 26.621094 20.792969 26.867188 20.539062 26.867188 20.234375 L 26.867188 9.066406 C 26.867188 8.761719 26.621094 8.507812 26.324219 8.507812 L 12.4375 8.507812 C 12.136719 8.507812 11.894531 8.257812 11.894531 7.949219 C 11.894531 7.640625 12.136719 7.390625 12.4375 7.390625 L 26.324219 7.390625 C 27.222656 7.390625 27.953125 8.144531 27.953125 9.066406 L 27.953125 20.234375 C 27.953125 21.15625 27.222656 21.910156 26.324219 21.910156 Z M 26.324219 21.910156 " fill-opacity="1" fill-rule="nonzero"></path></g><path fill="#000000" d="M 24.148438 11.859375 L 16.535156 11.859375 C 16.234375 11.859375 15.988281 11.609375 15.988281 11.300781 C 15.988281 10.992188 16.234375 10.742188 16.535156 10.742188 L 24.148438 10.742188 C 24.449219 10.742188 24.691406 10.992188 24.691406 11.300781 C 24.691406 11.609375 24.449219 11.859375 24.148438 11.859375 Z M 24.148438 11.859375 " fill-opacity="1" fill-rule="nonzero"></path><path fill="#000000" d="M 24.148438 14.09375 L 16.535156 14.09375 C 16.234375 14.09375 15.988281 13.839844 15.988281 13.535156 C 15.988281 13.226562 16.234375 12.976562 16.535156 12.976562 L 24.148438 12.976562 C 24.449219 12.976562 24.691406 13.226562 24.691406 13.535156 C 24.691406 13.839844 24.449219 14.09375 24.148438 14.09375 Z M 24.148438 14.09375 " fill-opacity="1" fill-rule="nonzero"></path><path fill="#000000" d="M 24.148438 16.324219 L 16.535156 16.324219 C 16.234375 16.324219 15.988281 16.074219 15.988281 15.765625 C 15.988281 15.457031 16.234375 15.207031 16.535156 15.207031 L 24.148438 15.207031 C 24.449219 15.207031 24.691406 15.457031 24.691406 15.765625 C 24.691406 16.074219 24.449219 16.324219 24.148438 16.324219 Z M 24.148438 16.324219 " fill-opacity="1" fill-rule="nonzero"></path><path fill="#000000" d="M 24.148438 18.558594 L 16.535156 18.558594 C 16.234375 18.558594 15.988281 18.308594 15.988281 18 C 15.988281 17.691406 16.234375 17.441406 16.535156 17.441406 L 24.148438 17.441406 C 24.449219 17.441406 24.691406 17.691406 24.691406 18 C 24.691406 18.308594 24.449219 18.558594 24.148438 18.558594 Z M 24.148438 18.558594 " fill-opacity="1" fill-rule="nonzero"></path></svg> 