<?xml version="1.0" encoding="UTF-8"?> <svg xmlns="http://www.w3.org/2000/svg" xmlns:xlink="http://www.w3.org/1999/xlink" width="40" zoomAndPan="magnify" viewBox="0 0 30 30.000001" height="40" preserveAspectRatio="xMidYMid meet" version="1.0"><defs><clipPath id="4148799b02"><path d="M 2.3125 1.171875 L 27 1.171875 L 27 28.027344 L 2.3125 28.027344 Z M 2.3125 1.171875 " clip-rule="nonzero"></path></clipPath></defs><path fill="#000000" d="M 19.816406 20.3125 L 20.667969 20.214844 L 20.765625 21.070312 L 19.914062 21.167969 Z M 19.816406 20.3125 " fill-opacity="1" fill-rule="nonzero"></path><path fill="#000000" d="M 20.195312 23.734375 L 21.046875 23.640625 L 21.140625 24.496094 L 20.289062 24.589844 Z M 20.195312 23.734375 " fill-opacity="1" fill-rule="nonzero"></path><path fill="#000000" d="M 20.003906 22.023438 L 20.855469 21.925781 L 20.953125 22.785156 L 20.101562 22.878906 Z M 20.003906 22.023438 " fill-opacity="1" fill-rule="nonzero"></path><path fill="#000000" d="M 14.449219 12.535156 L 14.902344 12.535156 L 14.902344 11.675781 L 14.449219 11.675781 C 14.214844 11.675781 14.023438 11.480469 14.023438 11.246094 L 14.023438 8.277344 L 13.167969 8.277344 L 13.167969 11.246094 C 13.167969 11.957031 13.742188 12.535156 14.449219 12.535156 Z M 14.449219 12.535156 " fill-opacity="1" fill-rule="nonzero"></path><g clip-path="url(#4148799b02)"><path fill="#000000" d="M 23.175781 2.527344 C 21.53125 1.9375 19.734375 2.175781 18.304688 3.125 L 18.304688 2.636719 C 18.304688 1.925781 17.726562 1.347656 17.019531 1.347656 C 15.101562 1.347656 13.402344 2.328125 12.402344 3.820312 C 11.902344 3 11.1875 2.328125 10.324219 1.894531 C 9.097656 1.277344 7.707031 1.175781 6.40625 1.613281 C 5.101562 2.046875 4.046875 2.96875 3.429688 4.207031 C 2.484375 6.113281 2.8125 8.449219 4.242188 10.019531 L 8.769531 14.980469 C 8.851562 15.070312 8.964844 15.117188 9.082031 15.117188 C 9.128906 15.117188 9.175781 15.109375 9.21875 15.09375 L 9.714844 14.929688 L 10.292969 16.082031 L 9.761719 16.347656 L 10.296875 17.699219 L 9.355469 17.699219 L 8.445312 25.957031 L 8.5 26.070312 C 9.101562 27.277344 10.3125 28.03125 11.65625 28.03125 L 19.816406 28.03125 C 21.160156 28.03125 22.367188 27.277344 22.96875 26.070312 L 23.027344 25.957031 L 22.113281 17.699219 L 19.601562 17.699219 L 20.832031 14.238281 C 23.203125 14.070312 25.722656 12.097656 26.554688 9.707031 C 27.566406 6.78125 26.054688 3.5625 23.175781 2.527344 Z M 17.019531 2.207031 C 17.257812 2.207031 17.449219 2.398438 17.449219 2.636719 L 17.449219 8.203125 C 17.449219 8.226562 17.449219 8.253906 17.449219 8.277344 L 17.449219 12.433594 C 17.449219 12.863281 17.210938 13.25 16.828125 13.441406 L 16.59375 13.558594 L 16.59375 17.699219 L 14.878906 17.699219 L 14.878906 13.394531 L 14.449219 13.394531 C 13.269531 13.394531 12.308594 12.429688 12.308594 11.246094 L 12.308594 6.941406 C 12.308594 4.332031 14.421875 2.207031 17.019531 2.207031 Z M 12.570312 14.933594 L 12.164062 14.109375 L 12.183594 14.101562 C 12.34375 14.046875 12.460938 13.902344 12.476562 13.734375 L 12.496094 13.523438 C 12.917969 13.890625 13.445312 14.144531 14.023438 14.226562 L 14.023438 17.699219 L 13.980469 17.699219 L 12.828125 14.804688 Z M 11.910156 4.722656 C 11.617188 5.402344 11.453125 6.152344 11.453125 6.941406 L 11.453125 11.246094 C 11.453125 11.699219 11.554688 12.128906 11.734375 12.515625 L 11.652344 13.371094 L 10.976562 13.601562 C 10.863281 10.386719 10.589844 7.957031 10.152344 6.394531 C 9.648438 4.582031 9.011719 3.203125 8.472656 2.234375 C 8.980469 2.289062 9.476562 2.429688 9.941406 2.664062 C 10.8125 3.101562 11.503906 3.832031 11.910156 4.722656 Z M 6.675781 2.429688 C 6.941406 2.339844 7.214844 2.277344 7.488281 2.242188 C 8.039062 3.160156 8.765625 4.609375 9.328125 6.625 C 9.707031 7.984375 9.960938 10.050781 10.085938 12.769531 C 9.117188 11.191406 7.914062 9.191406 7.125 7.609375 C 6.179688 5.707031 5.765625 4.082031 5.582031 2.980469 C 5.914062 2.746094 6.28125 2.5625 6.675781 2.429688 Z M 9.210938 14.191406 L 4.875 9.4375 C 3.679688 8.128906 3.40625 6.183594 4.199219 4.589844 C 4.371094 4.246094 4.585938 3.929688 4.835938 3.648438 C 5.066406 4.777344 5.507812 6.28125 6.359375 7.996094 C 7.296875 9.878906 8.800781 12.324219 9.828125 13.984375 Z M 10.535156 14.652344 L 11.34375 14.382812 L 11.804688 15.320312 L 11.058594 15.695312 Z M 10.847656 16.765625 L 12.375 15.996094 L 13.054688 17.699219 L 11.222656 17.699219 Z M 19.816406 27.167969 L 11.65625 27.167969 C 10.894531 27.167969 10.195312 26.847656 9.699219 26.308594 L 21.773438 26.308594 C 21.273438 26.847656 20.574219 27.167969 19.816406 27.167969 Z M 22.109375 25.445312 L 9.363281 25.445312 L 10.125 18.5625 L 21.347656 18.5625 Z M 25.746094 9.425781 C 24.988281 11.601562 22.648438 13.378906 20.523438 13.386719 L 20.222656 13.390625 L 18.691406 17.699219 L 17.449219 17.699219 L 17.449219 14.070312 C 17.984375 13.703125 18.304688 13.097656 18.304688 12.433594 L 18.304688 11.308594 C 18.648438 11.804688 19.089844 12.191406 19.636719 12.386719 C 19.90625 12.484375 20.199219 12.535156 20.511719 12.535156 C 22.273438 12.535156 24.300781 10.980469 24.9375 9.136719 C 25.640625 7.105469 24.59375 4.867188 22.601562 4.152344 C 22.191406 4.003906 21.761719 3.925781 21.332031 3.925781 C 20.128906 3.925781 19.015625 4.507812 18.304688 5.449219 L 18.304688 4.210938 C 19.574219 3.113281 21.308594 2.773438 22.886719 3.339844 C 25.324219 4.214844 26.605469 6.945312 25.746094 9.425781 Z M 18.535156 6.816406 C 18.953125 5.601562 20.078125 4.789062 21.332031 4.789062 C 21.664062 4.789062 21.996094 4.847656 22.3125 4.960938 C 23.863281 5.519531 24.679688 7.265625 24.128906 8.855469 C 23.617188 10.332031 21.894531 11.675781 20.511719 11.675781 C 20.300781 11.675781 20.101562 11.644531 19.925781 11.578125 C 18.496094 11.0625 17.957031 8.488281 18.535156 6.816406 Z M 18.535156 6.816406 " fill-opacity="1" fill-rule="nonzero"></path></g></svg> 