<?xml version="1.0" encoding="UTF-8"?> <svg xmlns="http://www.w3.org/2000/svg" xmlns:xlink="http://www.w3.org/1999/xlink" width="40" zoomAndPan="magnify" viewBox="0 0 30 30.000001" height="40" preserveAspectRatio="xMidYMid meet" version="1.0"><defs><clipPath id="0d0b9bc79f"><path d="M 7 1.550781 L 23 1.550781 L 23 13 L 7 13 Z M 7 1.550781 " clip-rule="nonzero"></path></clipPath><clipPath id="703d2fcbcc"><path d="M 5.175781 10 L 24.773438 10 L 24.773438 22 L 5.175781 22 Z M 5.175781 10 " clip-rule="nonzero"></path></clipPath><clipPath id="914c2ce906"><path d="M 8 23 L 22 23 L 22 27.679688 L 8 27.679688 Z M 8 23 " clip-rule="nonzero"></path></clipPath><clipPath id="b7f61035e4"><path d="M 5.175781 12 L 24.773438 12 L 24.773438 15 L 5.175781 15 Z M 5.175781 12 " clip-rule="nonzero"></path></clipPath></defs><g clip-path="url(#0d0b9bc79f)"><path fill="#000000" d="M 22.96875 12.15625 L 7 12.15625 L 7 3.242188 C 7 3.019531 7.042969 2.800781 7.128906 2.59375 C 7.214844 2.386719 7.335938 2.203125 7.496094 2.042969 C 7.652344 1.882812 7.832031 1.761719 8.039062 1.675781 C 8.246094 1.589844 8.460938 1.546875 8.683594 1.546875 L 21.289062 1.546875 C 21.511719 1.546875 21.726562 1.589844 21.929688 1.675781 C 22.136719 1.761719 22.320312 1.882812 22.476562 2.042969 C 22.632812 2.203125 22.757812 2.386719 22.839844 2.59375 C 22.925781 2.800781 22.96875 3.019531 22.96875 3.242188 Z M 8.5625 10.578125 L 21.410156 10.578125 L 21.410156 3.242188 C 21.410156 3.164062 21.367188 3.121094 21.289062 3.121094 L 8.683594 3.121094 C 8.601562 3.121094 8.5625 3.164062 8.5625 3.242188 Z M 8.5625 10.578125 " fill-opacity="1" fill-rule="nonzero"></path></g><g clip-path="url(#703d2fcbcc)"><path fill="#000000" d="M 14.984375 21.855469 C 14.347656 21.855469 13.722656 21.792969 13.097656 21.671875 C 12.476562 21.546875 11.875 21.359375 11.289062 21.113281 C 10.703125 20.871094 10.144531 20.570312 9.617188 20.214844 C 9.089844 19.859375 8.601562 19.453125 8.152344 19 C 7.703125 18.546875 7.304688 18.054688 6.953125 17.523438 C 6.597656 16.992188 6.300781 16.429688 6.058594 15.835938 C 5.816406 15.246094 5.632812 14.636719 5.507812 14.007812 C 5.382812 13.378906 5.320312 12.742188 5.320312 12.101562 C 5.320312 11.902344 5.359375 11.707031 5.4375 11.519531 C 5.511719 11.332031 5.621094 11.167969 5.765625 11.027344 C 5.90625 10.882812 6.066406 10.773438 6.253906 10.695312 C 6.4375 10.617188 6.628906 10.578125 6.832031 10.578125 L 23.128906 10.578125 C 23.328125 10.578125 23.523438 10.617188 23.707031 10.695312 C 23.890625 10.773438 24.054688 10.882812 24.195312 11.027344 C 24.335938 11.167969 24.445312 11.332031 24.523438 11.519531 C 24.601562 11.707031 24.640625 11.902344 24.640625 12.101562 C 24.640625 12.742188 24.578125 13.378906 24.453125 14.003906 C 24.328125 14.632812 24.144531 15.242188 23.902344 15.835938 C 23.660156 16.425781 23.363281 16.988281 23.007812 17.519531 C 22.65625 18.054688 22.257812 18.546875 21.808594 19 C 21.359375 19.449219 20.875 19.855469 20.347656 20.210938 C 19.820312 20.566406 19.261719 20.867188 18.675781 21.113281 C 18.09375 21.359375 17.488281 21.542969 16.867188 21.667969 C 16.246094 21.792969 15.617188 21.855469 14.984375 21.855469 Z M 6.882812 12.15625 C 6.890625 12.683594 6.953125 13.207031 7.066406 13.722656 C 7.179688 14.242188 7.339844 14.742188 7.546875 15.226562 C 7.753906 15.714844 8.007812 16.175781 8.304688 16.609375 C 8.601562 17.046875 8.9375 17.449219 9.3125 17.820312 C 9.6875 18.191406 10.09375 18.519531 10.53125 18.8125 C 10.96875 19.101562 11.433594 19.347656 11.917969 19.546875 C 12.402344 19.746094 12.902344 19.898438 13.417969 20 C 13.929688 20.101562 14.449219 20.152344 14.972656 20.152344 C 15.496094 20.152344 16.015625 20.101562 16.53125 20 C 17.046875 19.898438 17.546875 19.746094 18.03125 19.546875 C 18.515625 19.347656 18.976562 19.101562 19.414062 18.8125 C 19.855469 18.519531 20.261719 18.191406 20.636719 17.820312 C 21.007812 17.449219 21.34375 17.046875 21.640625 16.609375 C 21.941406 16.175781 22.191406 15.714844 22.402344 15.226562 C 22.609375 14.742188 22.769531 14.242188 22.882812 13.722656 C 22.992188 13.207031 23.054688 12.683594 23.066406 12.15625 Z M 6.882812 12.15625 " fill-opacity="1" fill-rule="nonzero"></path></g><path fill="#000000" d="M 18.738281 24.917969 L 11.410156 24.917969 L 11.410156 20.613281 C 11.410156 20.394531 11.488281 20.207031 11.640625 20.054688 C 11.792969 19.902344 11.976562 19.824219 12.191406 19.824219 C 12.40625 19.824219 12.589844 19.902344 12.742188 20.054688 C 12.894531 20.207031 12.96875 20.394531 12.972656 20.613281 L 12.972656 23.34375 L 17.175781 23.34375 L 17.175781 20.554688 C 17.175781 20.335938 17.253906 20.148438 17.40625 19.996094 C 17.558594 19.839844 17.742188 19.765625 17.957031 19.765625 C 18.171875 19.765625 18.355469 19.839844 18.507812 19.996094 C 18.660156 20.148438 18.738281 20.335938 18.738281 20.554688 Z M 18.738281 24.917969 " fill-opacity="1" fill-rule="nonzero"></path><g clip-path="url(#914c2ce906)"><path fill="#000000" d="M 21.566406 27.679688 L 8.757812 27.679688 L 8.757812 26.890625 C 8.757812 26.417969 8.847656 25.96875 9.023438 25.53125 C 9.203125 25.097656 9.457031 24.714844 9.785156 24.382812 C 10.113281 24.050781 10.496094 23.792969 10.925781 23.613281 C 11.355469 23.433594 11.804688 23.34375 12.269531 23.34375 L 18.054688 23.34375 C 18.519531 23.34375 18.96875 23.433594 19.398438 23.613281 C 19.828125 23.792969 20.207031 24.050781 20.535156 24.382812 C 20.867188 24.714844 21.121094 25.097656 21.296875 25.53125 C 21.476562 25.96875 21.566406 26.417969 21.566406 26.890625 Z M 10.480469 26.101562 L 19.84375 26.101562 C 19.691406 25.742188 19.449219 25.457031 19.125 25.242188 C 18.800781 25.027344 18.445312 24.917969 18.058594 24.917969 L 12.269531 24.917969 C 11.882812 24.917969 11.523438 25.027344 11.199219 25.242188 C 10.875 25.457031 10.636719 25.742188 10.480469 26.101562 Z M 10.480469 26.101562 " fill-opacity="1" fill-rule="nonzero"></path></g><path fill="#000000" d="M 22.1875 5.214844 L 7.78125 5.214844 C 7.566406 5.214844 7.382812 5.136719 7.230469 4.984375 C 7.078125 4.828125 7 4.644531 7 4.425781 C 7 4.207031 7.078125 4.023438 7.230469 3.867188 C 7.382812 3.714844 7.566406 3.636719 7.78125 3.636719 L 22.1875 3.636719 C 22.40625 3.636719 22.589844 3.714844 22.742188 3.867188 C 22.894531 4.023438 22.96875 4.207031 22.96875 4.425781 C 22.96875 4.644531 22.894531 4.828125 22.742188 4.984375 C 22.589844 5.136719 22.40625 5.214844 22.1875 5.214844 Z M 22.1875 5.214844 " fill-opacity="1" fill-rule="nonzero"></path><g clip-path="url(#b7f61035e4)"><path fill="#000000" d="M 23.703125 14.570312 L 6.269531 14.570312 C 6.054688 14.570312 5.867188 14.492188 5.714844 14.339844 C 5.5625 14.1875 5.488281 14 5.488281 13.78125 C 5.488281 13.566406 5.5625 13.378906 5.714844 13.226562 C 5.867188 13.070312 6.054688 12.992188 6.269531 12.992188 L 23.703125 12.992188 C 23.917969 12.992188 24.101562 13.070312 24.253906 13.226562 C 24.40625 13.378906 24.484375 13.566406 24.484375 13.78125 C 24.484375 14 24.40625 14.1875 24.253906 14.339844 C 24.101562 14.492188 23.917969 14.570312 23.703125 14.570312 Z M 23.703125 14.570312 " fill-opacity="1" fill-rule="nonzero"></path></g><path fill="#000000" d="M 17.957031 9.921875 C 17.671875 9.921875 17.398438 9.863281 17.136719 9.753906 C 16.875 9.644531 16.640625 9.488281 16.441406 9.285156 C 16.242188 9.082031 16.085938 8.847656 15.976562 8.582031 C 15.867188 8.316406 15.816406 8.042969 15.816406 7.753906 C 15.816406 7.46875 15.871094 7.191406 15.976562 6.925781 C 16.085938 6.660156 16.242188 6.429688 16.445312 6.226562 C 16.644531 6.023438 16.875 5.867188 17.140625 5.757812 C 17.402344 5.648438 17.675781 5.59375 17.960938 5.59375 C 18.242188 5.59375 18.515625 5.648438 18.777344 5.757812 C 19.042969 5.867188 19.273438 6.027344 19.472656 6.230469 C 19.671875 6.433594 19.828125 6.667969 19.9375 6.933594 C 20.042969 7.195312 20.097656 7.472656 20.097656 7.761719 C 20.097656 8.046875 20.042969 8.324219 19.933594 8.585938 C 19.824219 8.851562 19.671875 9.085938 19.46875 9.289062 C 19.269531 9.488281 19.039062 9.644531 18.773438 9.753906 C 18.511719 9.863281 18.238281 9.921875 17.957031 9.921875 Z M 17.957031 7.160156 C 17.796875 7.160156 17.660156 7.21875 17.546875 7.332031 C 17.433594 7.449219 17.375 7.585938 17.375 7.75 C 17.375 7.910156 17.433594 8.050781 17.546875 8.164062 C 17.660156 8.277344 17.796875 8.335938 17.957031 8.335938 C 18.117188 8.335938 18.253906 8.277344 18.367188 8.164062 C 18.480469 8.050781 18.539062 7.910156 18.539062 7.75 C 18.53125 7.589844 18.472656 7.457031 18.359375 7.347656 C 18.246094 7.238281 18.113281 7.183594 17.957031 7.183594 Z M 17.957031 7.160156 " fill-opacity="1" fill-rule="nonzero"></path></svg> 