<?xml version="1.0" encoding="UTF-8"?> <svg xmlns="http://www.w3.org/2000/svg" xmlns:xlink="http://www.w3.org/1999/xlink" width="40" zoomAndPan="magnify" viewBox="0 0 30 30.000001" height="40" preserveAspectRatio="xMidYMid meet" version="1.0"><defs><clipPath id="8dfd874e0a"><path d="M 5.304688 2.902344 L 24.902344 2.902344 L 24.902344 26.128906 L 5.304688 26.128906 Z M 5.304688 2.902344 " clip-rule="nonzero"></path></clipPath><clipPath id="fe8258c1a1"><path d="M 22 22 L 24.902344 22 L 24.902344 25 L 22 25 Z M 22 22 " clip-rule="nonzero"></path></clipPath><clipPath id="0b342dea20"><path d="M 22 19 L 24.902344 19 L 24.902344 22 L 22 22 Z M 22 19 " clip-rule="nonzero"></path></clipPath><clipPath id="da44460aea"><path d="M 16 2.902344 L 19 2.902344 L 19 4 L 16 4 Z M 16 2.902344 " clip-rule="nonzero"></path></clipPath></defs><path stroke-linecap="round" transform="matrix(0.816532, 0, 0, 0.800518, 1.630921, 1.707844)" fill="none" stroke-linejoin="round" d="M 15.626699 19.498068 L 16.87531 19.498068 C 17.08102 19.498068 17.258026 19.571263 17.406329 19.717652 C 17.554631 19.864042 17.626391 20.044589 17.626391 20.249534 L 17.626391 22.499053 C 17.626391 22.708878 17.554631 22.884545 17.406329 23.030935 C 17.258026 23.177324 17.08102 23.250519 16.87531 23.250519 L 15.626699 23.250519 C 15.416205 23.250519 15.239199 23.177324 15.095681 23.030935 C 14.947378 22.884545 14.875619 22.708878 14.875619 22.499053 L 14.875619 20.249534 C 14.875619 20.044589 14.947378 19.864042 15.095681 19.717652 C 15.239199 19.571263 15.416205 19.498068 15.626699 19.498068 Z M 15.626699 19.498068 " stroke="#000000" stroke-width="1" stroke-opacity="1" stroke-miterlimit="4"></path><path stroke-linecap="round" transform="matrix(0.816532, 0, 0, 0.800518, 1.630921, 1.707844)" fill="none" stroke-linejoin="round" d="M 16.999693 23.250519 L 16.999693 26.251504 L 15.502317 26.251504 L 15.502317 23.250519 " stroke="#000000" stroke-width="1" stroke-opacity="1" stroke-miterlimit="4"></path><path stroke-linecap="round" transform="matrix(0.816532, 0, 0, 0.800518, 1.630921, 1.707844)" fill="none" stroke-linejoin="round" d="M 16.12423 19.498068 L 16.12423 18.49774 L 13.627008 17.751153 " stroke="#000000" stroke-width="1" stroke-opacity="1" stroke-miterlimit="4"></path><path stroke-linecap="butt" transform="matrix(0.816532, 0, 0, 0.800518, 1.630921, 1.707844)" fill="none" stroke-linejoin="round" d="M 13.627008 23.001657 L 8.876545 23.001657 L 7.498767 4.498022 L 24.998459 4.498022 L 23.625465 23.001657 L 18.875002 23.001657 " stroke="#000000" stroke-width="1" stroke-opacity="1" stroke-miterlimit="4"></path><path stroke-linecap="butt" transform="matrix(0.816532, 0, 0, 0.800518, 1.630921, 1.707844)" fill="none" stroke-linejoin="round" d="M 22.974847 13.74984 C 22.132872 13.505857 21.386576 13.086207 20.731175 12.500649 C 20.731175 12.500649 19.324693 13.74984 18.492286 13.74984 C 17.655094 13.74984 16.248613 12.500649 16.248613 12.500649 C 16.248613 12.500649 14.842131 13.74984 14.009724 13.74984 C 13.172533 13.74984 11.766051 12.500649 11.766051 12.500649 C 11.115434 13.086207 10.369137 13.505857 9.527162 13.74984 " stroke="#000000" stroke-width="1" stroke-opacity="1" stroke-miterlimit="4"></path><g clip-path="url(#8dfd874e0a)"><path stroke-linecap="butt" transform="matrix(0.816532, 0, 0, 0.800518, 1.630921, 1.707844)" fill="none" stroke-linejoin="round" d="M 20.999076 1.999641 L 27.500465 1.999641 L 25.998304 27.998419 L 22.998767 29.999076 L 9.498458 29.999076 L 6.498921 27.998419 L 5.001545 1.999641 L 17.999539 1.999641 " stroke="#000000" stroke-width="1" stroke-opacity="1" stroke-miterlimit="4"></path></g><g clip-path="url(#fe8258c1a1)"><path stroke-linecap="round" transform="matrix(0.816532, 0, 0, 0.800518, 1.630921, 1.707844)" fill="none" stroke-linejoin="round" d="M 26.500619 26.500366 L 27.997996 26.500366 L 27.997996 27.998419 " stroke="#000000" stroke-width="1" stroke-opacity="1" stroke-miterlimit="4"></path></g><g clip-path="url(#0b342dea20)"><path stroke-linecap="round" transform="matrix(0.816532, 0, 0, 0.800518, 1.630921, 1.707844)" fill="none" stroke-linejoin="round" d="M 26.500619 24.49971 L 27.997996 24.49971 L 27.997996 23.001657 " stroke="#000000" stroke-width="1" stroke-opacity="1" stroke-miterlimit="4"></path></g><g clip-path="url(#da44460aea)"><path stroke-linecap="butt" transform="matrix(0.816532, 0, 0, 0.800518, 1.630921, 1.707844)" fill="none" stroke-linejoin="miter" d="M 18.999384 1.999641 L 19.99923 1.999641 " stroke="#000000" stroke-width="1" stroke-opacity="1" stroke-miterlimit="4"></path></g></svg> 