<?xml version="1.0" encoding="UTF-8"?> <svg xmlns="http://www.w3.org/2000/svg" xmlns:xlink="http://www.w3.org/1999/xlink" width="40" zoomAndPan="magnify" viewBox="0 0 30 30.000001" height="40" preserveAspectRatio="xMidYMid meet" version="1.0"><defs><clipPath id="e2cd29db7c"><path d="M 3.386719 1.109375 L 26.613281 1.109375 L 26.613281 27.964844 L 3.386719 27.964844 Z M 3.386719 1.109375 " clip-rule="nonzero"></path></clipPath></defs><g clip-path="url(#e2cd29db7c)"><path fill="#000000" d="M 25.71875 10.0625 L 23.976562 10.0625 L 23.976562 9.167969 C 23.976562 8.675781 23.574219 8.273438 23.085938 8.273438 C 22.59375 8.273438 22.191406 8.675781 22.191406 9.167969 L 22.191406 10.0625 L 20.359375 10.0625 L 20.359375 4.257812 C 20.359375 2.527344 18.957031 1.117188 17.222656 1.117188 C 15.492188 1.117188 14.089844 2.519531 14.089844 4.257812 L 14.089844 5.589844 C 14.089844 6.082031 14.492188 6.484375 14.980469 6.484375 C 15.472656 6.484375 15.875 6.082031 15.875 5.589844 L 15.875 4.257812 C 15.875 3.511719 16.484375 2.90625 17.222656 2.90625 C 17.964844 2.90625 18.574219 3.511719 18.574219 4.257812 L 18.574219 10.0625 L 4.28125 10.0625 C 3.789062 10.0625 3.386719 10.464844 3.386719 10.957031 L 3.386719 15.433594 C 3.386719 15.925781 3.789062 16.328125 4.28125 16.328125 L 7.03125 16.328125 C 7.46875 19.359375 10.070312 21.695312 13.214844 21.695312 L 14.105469 21.695312 L 14.105469 27.066406 C 14.105469 27.558594 14.507812 27.960938 15 27.960938 L 16.769531 27.960938 C 17.261719 27.960938 17.660156 27.558594 17.660156 27.066406 C 17.660156 26.574219 17.261719 26.171875 16.769531 26.171875 L 15.894531 26.171875 L 15.894531 21.695312 L 16.785156 21.695312 C 19.929688 21.695312 22.53125 19.359375 22.96875 16.328125 L 25.71875 16.328125 C 26.210938 16.328125 26.613281 15.925781 26.613281 15.433594 L 26.613281 10.957031 C 26.613281 10.464844 26.210938 10.0625 25.71875 10.0625 Z M 16.785156 19.90625 L 13.214844 19.90625 C 11.058594 19.90625 9.246094 18.367188 8.835938 16.328125 L 21.164062 16.328125 C 20.753906 18.367188 18.949219 19.90625 16.785156 19.90625 Z M 24.828125 14.539062 L 5.171875 14.539062 L 5.171875 11.851562 L 24.828125 11.851562 Z M 24.828125 14.539062 " fill-opacity="1" fill-rule="nonzero"></path></g></svg> 