<?xml version="1.0" encoding="UTF-8"?> <svg xmlns="http://www.w3.org/2000/svg" xmlns:xlink="http://www.w3.org/1999/xlink" id="Layer_5" data-name="Layer 5" viewBox="0 0 200 34"><defs><style>.cls-1,.cls-2{fill:#231f20;}.cls-2,.cls-4{fill-rule:evenodd;}.cls-3{fill:url(#linear-gradient);}.cls-4{fill:#173a1c;}.cls-5{fill:url(#linear-gradient-2);}.cls-6{fill:url(#linear-gradient-3);}</style><linearGradient id="linear-gradient" x1="25.97" y1="17.02" x2="61.49" y2="17.02" gradientUnits="userSpaceOnUse"><stop offset="0.55" stop-color="#1e5129"></stop><stop offset="0.68" stop-color="#487831"></stop><stop offset="0.82" stop-color="#6f9c38"></stop><stop offset="0.93" stop-color="#87b33c"></stop><stop offset="1" stop-color="#90bb3e"></stop></linearGradient><linearGradient id="linear-gradient-2" x1="25.97" y1="15.45" x2="40.22" y2="15.45" gradientUnits="userSpaceOnUse"><stop offset="0.16" stop-color="#448332"></stop><stop offset="0.34" stop-color="#488632"></stop><stop offset="0.51" stop-color="#538e34"></stop><stop offset="0.67" stop-color="#669c36"></stop><stop offset="0.83" stop-color="#81af39"></stop><stop offset="0.9" stop-color="#90ba3b"></stop></linearGradient><linearGradient id="linear-gradient-3" x1="25.97" y1="20.13" x2="61.49" y2="20.13" xlink:href="#linear-gradient"></linearGradient></defs><path class="cls-1" d="M65.62,13.12V14.7h-.28V11.4h.28v1.27l.95-1.27h.35l-1,1.34,1.27,2h-.34L65.74,13Z"></path><path class="cls-1" d="M67.26,14.74h-.42L65.74,13l-.09.1v1.61H65.3V11.37h.35v1.2l.9-1.2H67l-1,1.37Zm-.39-.07h.26l-1.25-1.93v0l1-1.28h-.26l-1,1.34V11.44h-.2v3.23h.2V13.11l.16-.2Z"></path><path class="cls-1" d="M68.94,12a.26.26,0,0,1,.07.16.24.24,0,0,1-.07.16.21.21,0,0,1-.16.07.24.24,0,0,1-.23-.23.21.21,0,0,1,.07-.16.24.24,0,0,1,.16-.07A.26.26,0,0,1,68.94,12Zm0,.63V14.7h-.27V12.64Z"></path><path class="cls-1" d="M69,14.74H68.6V12.61H69Zm-.28-.07h.21v-2h-.21Zm.11-2.23a.27.27,0,0,1-.27-.27.25.25,0,0,1,.08-.18.24.24,0,0,1,.19-.08A.22.22,0,0,1,69,12h0a.22.22,0,0,1,.08.18.24.24,0,0,1-.08.19A.25.25,0,0,1,68.78,12.44Zm0-.46a.18.18,0,0,0-.14.06.15.15,0,0,0,0,.13.17.17,0,0,0,0,.14.2.2,0,0,0,.27,0,.18.18,0,0,0,.06-.14.16.16,0,0,0-.06-.13h0A.16.16,0,0,0,68.78,12Z"></path><path class="cls-1" d="M71,14.29a.76.76,0,0,0,.53.18.82.82,0,0,0,.61-.25l.08-.09.29.1-.16.19A1.15,1.15,0,0,1,70.7,12.8a1.14,1.14,0,0,1,.81-.34,1.17,1.17,0,0,1,.72.25l.1.09.06.07-.17.17Zm1-1.4a.78.78,0,0,0-.48-.14.87.87,0,0,0-.86.86.73.73,0,0,0,.14.47Zm-.37-1.15.57.56h-.34L71.5,12l-.34.27h-.34l.55-.56Zm1.12-.36-.62.47h-.29l.41-.47Z"></path><path class="cls-1" d="M71.51,14.8a1.19,1.19,0,1,1,.74-2.12l.1.09.07.08,0,0L71,14.28a.77.77,0,0,0,.48.16.85.85,0,0,0,.59-.24l.08-.1v0l.35.13,0,0a1.26,1.26,0,0,1-.16.2A1.15,1.15,0,0,1,71.51,14.8Zm0-2.3a1.13,1.13,0,0,0-1.11,1.11,1.07,1.07,0,0,0,.33.79,1,1,0,0,0,.78.32,1.1,1.1,0,0,0,.79-.32l.13-.15-.21-.08-.07.08a.9.9,0,0,1-.64.26.82.82,0,0,1-.56-.2l0,0,1.42-1.42,0,0a.39.39,0,0,0-.1-.08A1.05,1.05,0,0,0,71.51,12.5Zm-.72,1.64,0,0A.92.92,0,0,1,70.88,13a.84.84,0,0,1,.63-.26.78.78,0,0,1,.5.14l0,0Zm.72-1.35a.8.8,0,0,0-.58.24.78.78,0,0,0-.24.58.77.77,0,0,0,.1.42l1.14-1.14A.77.77,0,0,0,71.51,12.79Zm.77-.45h-.45l-.33-.25-.33.26h-.44l.63-.64h.27l.15.15.44-.51h.62l-.71.54h-.31Zm-.42-.07h.24l-.5-.49h-.21l-.49.49h.25l.34-.28Zm0-.46h.2l.52-.4h-.37Z"></path><path class="cls-1" d="M74.37,13.14V14.7h-.28V12.64h.28v.06a.7.7,0,0,1,.52-.18.78.78,0,0,1,.6.24.77.77,0,0,1,.24.58V14.7h-.27V13.36a.54.54,0,0,0-.17-.4.54.54,0,0,0-.4-.16.53.53,0,0,0-.39.16A.51.51,0,0,0,74.37,13.14Z"></path><path class="cls-1" d="M75.77,14.74h-.35V13.36a.47.47,0,0,0-.16-.37.5.5,0,0,0-.37-.15.53.53,0,0,0-.37.15.51.51,0,0,0-.11.16v1.59h-.35V12.61h.35a.78.78,0,0,1,.48-.13.85.85,0,0,1,.63.24.89.89,0,0,1,.25.61Zm-.28-.07h.21V13.34a.86.86,0,0,0-.23-.56.78.78,0,0,0-.58-.22.7.7,0,0,0-.5.17l-.06.06v-.11h-.2v2h.2V13.13a.46.46,0,0,1,.13-.19.58.58,0,0,1,.42-.18.58.58,0,0,1,.43.18.57.57,0,0,1,.17.42Z"></path><path class="cls-1" d="M80.58,11.68v3H80.3v-3h-.81V11.4h1.9v.28Z"></path><path class="cls-1" d="M80.61,14.74h-.34v-3h-.82v-.35h2v.35h-.81Zm-.27-.07h.2v-3h.81v-.21H79.53v.21h.81Z"></path><path class="cls-1" d="M84.93,14.7h-.28v-.3a1.15,1.15,0,0,1-.84.36,1.16,1.16,0,0,1-1.15-1.15A1.09,1.09,0,0,1,83,12.8a1.11,1.11,0,0,1,.81-.34,1.15,1.15,0,0,1,.84.36v-.18h.28Zm-.28-.91v-.35a.89.89,0,0,0-.23-.44.87.87,0,0,0-1.22,0,.84.84,0,0,0-.25.61.86.86,0,0,0,1.47.61A.86.86,0,0,0,84.65,13.79ZM83.93,15a.21.21,0,0,1,.07.16.24.24,0,0,1-.23.23.21.21,0,0,1-.16-.07.22.22,0,0,1-.07-.16.26.26,0,0,1,.07-.16.25.25,0,0,1,.16-.06A.21.21,0,0,1,83.93,15Z"></path><path class="cls-1" d="M83.77,15.4a.25.25,0,0,1-.18-.08.22.22,0,0,1-.08-.19.22.22,0,0,1,.08-.18.25.25,0,0,1,.18-.08A.27.27,0,0,1,84,15h0a.25.25,0,0,1,.08.18.26.26,0,0,1-.08.19A.27.27,0,0,1,83.77,15.4Zm0-.46a.21.21,0,0,0-.19.19.18.18,0,0,0,.06.14.2.2,0,0,0,.27,0,.18.18,0,0,0,.06-.14.18.18,0,0,0-.06-.13h0A.18.18,0,0,0,83.77,14.94Zm0-.14a1.19,1.19,0,0,1,0-2.37,1.19,1.19,0,0,1,.81.31v-.13H85v2.13h-.34v-.26A1.2,1.2,0,0,1,83.81,14.8Zm0-2.3a1.11,1.11,0,0,0-1.11,1.11,1.1,1.1,0,0,0,.32.79,1.06,1.06,0,0,0,.79.32,1.16,1.16,0,0,0,.82-.34l.06-.06v.35h.2v-2h-.2v.23l-.06-.06A1.17,1.17,0,0,0,83.81,12.5Zm0,2a.89.89,0,0,1-.9-.9.88.88,0,0,1,.26-.63.86.86,0,0,1,.64-.26.84.84,0,0,1,.63.26.85.85,0,0,1,.25.45v.36h0a.91.91,0,0,1-.25.46A.88.88,0,0,1,83.81,14.51Zm0-1.72a.83.83,0,0,0-.59,1.41.83.83,0,0,0,1.17,0,.84.84,0,0,0,.23-.42v-.34a.84.84,0,0,0-.81-.65Z"></path><path class="cls-1" d="M87.49,12.46a1.11,1.11,0,0,1,.81.34,1.13,1.13,0,0,1,.34.81,1.11,1.11,0,0,1-.34.81,1.15,1.15,0,0,1-2-.81,1.09,1.09,0,0,1,.34-.81A1.11,1.11,0,0,1,87.49,12.46Zm-.61.54a.84.84,0,0,0-.25.61.86.86,0,1,0,1.72,0A.84.84,0,0,0,88.1,13a.87.87,0,0,0-1.22,0Z"></path><path class="cls-1" d="M87.49,14.8a1.18,1.18,0,0,1-1.18-1.19,1.13,1.13,0,0,1,.34-.83,1.18,1.18,0,0,1,1.68,0,1.2,1.2,0,0,1,0,1.67A1.15,1.15,0,0,1,87.49,14.8Zm0-2.3a1.11,1.11,0,0,0-1.11,1.11,1.1,1.1,0,0,0,.32.79,1.14,1.14,0,0,0,1.58,0,1.1,1.1,0,0,0,.32-.79,1.11,1.11,0,0,0-1.11-1.11Zm0,2a.89.89,0,0,1-.9-.9.88.88,0,0,1,.26-.63.86.86,0,0,1,.64-.26.82.82,0,0,1,.63.26.85.85,0,0,1,.27.63.87.87,0,0,1-.27.64A.86.86,0,0,1,87.49,14.51Zm0-1.72a.78.78,0,0,0-.58.24.81.81,0,0,0,0,1.17.82.82,0,0,0,1.16,0,.83.83,0,0,0,0-1.17A.78.78,0,0,0,87.49,12.79Z"></path><path class="cls-1" d="M93.35,11.68v3h-.27v-3h-.82V11.4h1.9v.28Z"></path><path class="cls-1" d="M93.39,14.74H93v-3h-.81v-.35h2v.35h-.81Zm-.28-.07h.2v-3h.82v-.21H92.3v.21h.81Z"></path><path class="cls-1" d="M96.51,12.46a1.14,1.14,0,0,1,.81.34,1.12,1.12,0,0,1,.33.81,1.15,1.15,0,1,1-2.29,0,1.12,1.12,0,0,1,.33-.81A1.15,1.15,0,0,1,96.51,12.46ZM95.9,13a.85.85,0,0,0-.26.61.83.83,0,0,0,.26.61.86.86,0,0,0,1.21,0,.83.83,0,0,0,.26-.61.85.85,0,0,0-.26-.61.86.86,0,0,0-1.21,0Zm.72-1.26.58.56h-.34L96.5,12l-.34.27h-.34l.55-.56Zm.22.09a.65.65,0,0,1,0-.13.78.78,0,0,1,.22-.26.5.5,0,0,0,.1-.13.19.19,0,0,0,0-.07s0,0,0-.05a.11.11,0,0,0-.07-.08l-.06,0h0a.14.14,0,0,0-.08.07.42.42,0,0,0,0,.13h-.23v-.06a.25.25,0,0,1,0-.14.35.35,0,0,1,.2-.18l.12,0a.29.29,0,0,1,.16,0,.32.32,0,0,1,.18.2.22.22,0,0,1,0,.11.4.4,0,0,1,0,.15.64.64,0,0,1-.19.22.52.52,0,0,0-.13.17.14.14,0,0,0,0,.06Z"></path><path class="cls-1" d="M96.51,14.8a1.2,1.2,0,1,1,.83-.35A1.15,1.15,0,0,1,96.51,14.8Zm0-2.3a1.07,1.07,0,0,0-.79.33,1.05,1.05,0,0,0-.33.78,1.11,1.11,0,0,0,1.12,1.11,1,1,0,0,0,.78-.32,1.07,1.07,0,0,0,.33-.79,1.13,1.13,0,0,0-1.11-1.11Zm0,2a.89.89,0,0,1-.9-.9.88.88,0,0,1,.26-.63.91.91,0,0,1,1.27,0,.88.88,0,0,1,.26.63.9.9,0,0,1-.26.64A.88.88,0,0,1,96.51,14.51Zm0-1.72a.83.83,0,0,0-.59,1.41.83.83,0,0,0,1.17,0,.83.83,0,0,0-.58-1.41Zm.78-.45h-.46l-.33-.25-.32.26h-.44l.62-.64h.28l.16.16v0a.88.88,0,0,1,0-.15.74.74,0,0,1,.23-.27.47.47,0,0,0,.09-.12.09.09,0,0,0,0,0,.06.06,0,0,0,0,0s0,0,0-.06h-.07a.1.1,0,0,0,0,.06s0,0,0,.11v0h-.29v-.1a.4.4,0,0,1,0-.15.38.38,0,0,1,.23-.2.37.37,0,0,1,.31,0,.36.36,0,0,1,.2.22.5.5,0,0,1,0,.12.29.29,0,0,1,0,.16.64.64,0,0,1-.2.24.48.48,0,0,0-.12.16l0,0v0h-.3Zm-.42-.07h.24l-.5-.49h-.22l-.48.49h.24L96.5,12Zm0-.47H97s0,0,0,0a.62.62,0,0,1,.14-.19.6.6,0,0,0,.18-.21.28.28,0,0,0,0-.13.36.36,0,0,0,0-.1.31.31,0,0,0-.16-.18A.33.33,0,0,0,97,11a.31.31,0,0,0-.18.16.27.27,0,0,0,0,.12v0h.15a.23.23,0,0,1,0-.11.13.13,0,0,1,.1-.09.13.13,0,0,1,.12,0,.14.14,0,0,1,.09.11.13.13,0,0,1,0,.06.11.11,0,0,1,0,.08.33.33,0,0,1-.1.14.64.64,0,0,0-.21.26A.2.2,0,0,0,96.88,11.8Z"></path><path class="cls-1" d="M103.06,13.48h-1l-.45,1.22h-.29l1.26-3.46,1.26,3.46h-.29Zm-.4-2.78.57.57h-.34l-.36-.28-.33.28h-.34l.55-.57Zm.3,2.5L102.54,12l-.42,1.16Zm.78-2.87-.61.47h-.29l.41-.47Z"></path><path class="cls-1" d="M103.85,14.74h-.37L103,13.51h-1l-.45,1.23h-.37l0-.05,1.29-3.56Zm-.32-.07h.22l-1.21-3.33-1.21,3.33h.22l.44-1.23h1.1ZM103,13.24h-.94l.47-1.3Zm-.84-.08h.74l-.37-1Zm1.15-1.86h-.45l-.34-.26-.32.26h-.44l.62-.63h.28l.13.12.43-.49h.62l-.71.54h-.29Zm-.42-.07h.24l-.5-.49h-.21l-.49.49h.25l.34-.28Zm0-.46h.2l.52-.4h-.38Z"></path><path class="cls-1" d="M105.13,12.64h.28v0a.51.51,0,0,1,.35-.09.64.64,0,0,1,.45.18l0,0,0,0a.61.61,0,0,1,.45-.18.6.6,0,0,1,.44.18.63.63,0,0,1,.19.43V14.7h-.28V13.09a.28.28,0,0,0-.1-.18.34.34,0,0,0-.5,0,.31.31,0,0,0-.11.26V14.7h-.27V13.09h0a.24.24,0,0,0-.1-.18.34.34,0,0,0-.5,0,.3.3,0,0,0-.1.21V14.7h-.28Z"></path><path class="cls-1" d="M107.41,14.74h-.34V13.09a.32.32,0,0,0-.1-.16.29.29,0,0,0-.22-.09.32.32,0,0,0-.23.09.34.34,0,0,0-.09.24v1.57h-.35V13.09a.38.38,0,0,0-.09-.16.33.33,0,0,0-.23-.09.29.29,0,0,0-.22.09.32.32,0,0,0-.1.2v1.61h-.35V12.61h.29a.56.56,0,0,1,.38-.11.68.68,0,0,1,.47.19l0,0,0,0a.66.66,0,0,1,.94,0,.62.62,0,0,1,.19.45Zm-.27-.07h.2V13.14a.54.54,0,0,0-.17-.4.58.58,0,0,0-.42-.18.54.54,0,0,0-.42.18l-.08.07-.07-.07a.56.56,0,0,0-.42-.18.51.51,0,0,0-.32.08v0h-.27v2h.2V13.12a.39.39,0,0,1,.12-.24.33.33,0,0,1,.27-.11.37.37,0,0,1,.28.11.33.33,0,0,1,.1.18h0v1.61h.2v-1.5a.38.38,0,0,1,.12-.29.37.37,0,0,1,.28-.11.35.35,0,0,1,.27.11.33.33,0,0,1,.12.21Z"></path><path class="cls-1" d="M111.43,11.4l1,2.66,1-2.66h.3l-1.26,3.47-1.26-3.47Z"></path><path class="cls-1" d="M112.4,15l-1.31-3.6h.36l1,2.59.94-2.59h.37l0,.05Zm-1.21-3.53,1.21,3.32,1.21-3.32h-.22l-1,2.73-1-2.73Z"></path><path class="cls-1" d="M115.16,12a.21.21,0,0,1,.07.16.23.23,0,0,1-.46,0,.21.21,0,0,1,.07-.16.22.22,0,0,1,.32,0Zm0,.63V14.7h-.28V12.64Z"></path><path class="cls-1" d="M115.17,14.74h-.34V12.61h.34Zm-.27-.07h.2v-2h-.2Zm.1-2.23a.29.29,0,0,1-.19-.08.26.26,0,0,1-.07-.19.24.24,0,0,1,.07-.18.25.25,0,0,1,.19-.08.24.24,0,0,1,.19.08h0a.25.25,0,0,1,.08.18.27.27,0,0,1-.27.27Zm0-.46a.21.21,0,0,0-.19.19.18.18,0,0,0,.06.14.2.2,0,0,0,.27,0,.22.22,0,0,0,0-.14.19.19,0,0,0,0-.13h0A.2.2,0,0,0,115,12Z"></path><path class="cls-1" d="M117.2,14.29a.8.8,0,0,0,.54.18.84.84,0,0,0,.61-.25l.08-.09.28.1-.16.19a1.1,1.1,0,0,1-.81.34,1.16,1.16,0,0,1-1.15-1.15,1.09,1.09,0,0,1,.34-.81,1.13,1.13,0,0,1,1.52-.09l.1.09a.43.43,0,0,0,.07.07l-.17.17Zm1-1.4a.77.77,0,0,0-.47-.14.86.86,0,0,0-.61.25.82.82,0,0,0-.25.61.73.73,0,0,0,.13.47Zm-.37-1.15.57.56h-.34l-.35-.27-.34.27H117l.55-.56Zm.1,3.23a.26.26,0,0,1,.07.16.22.22,0,0,1-.07.16.21.21,0,0,1-.16.07.24.24,0,0,1-.23-.23.22.22,0,0,1,.23-.22A.25.25,0,0,1,117.94,15Z"></path><path class="cls-1" d="M117.78,15.4a.27.27,0,0,1-.19-.08.26.26,0,0,1-.08-.19.25.25,0,0,1,.08-.18.27.27,0,0,1,.19-.08A.25.25,0,0,1,118,15h0a.22.22,0,0,1,.08.18.22.22,0,0,1-.08.19A.25.25,0,0,1,117.78,15.4Zm0-.46a.18.18,0,0,0-.14.06.18.18,0,0,0-.06.13.18.18,0,0,0,.06.14.2.2,0,0,0,.27,0,.18.18,0,0,0,.06-.14.18.18,0,0,0-.06-.13h0A.18.18,0,0,0,117.78,14.94Zm0-.14a1.19,1.19,0,0,1,0-2.37,1.13,1.13,0,0,1,.73.25l.11.09.06.08,0,0-1.42,1.41a.78.78,0,0,0,.49.16.84.84,0,0,0,.58-.24l.08-.1,0,0,.35.13,0,0-.16.2A1.18,1.18,0,0,1,117.74,14.8Zm0-2.3a1.07,1.07,0,0,0-.79.33,1.05,1.05,0,0,0-.33.78,1.12,1.12,0,0,0,1.9.79l.13-.15-.21-.08-.07.08a.88.88,0,0,1-.63.26.8.8,0,0,1-.56-.2l0,0,1.42-1.42,0,0-.09-.08A1.07,1.07,0,0,0,117.74,12.5ZM117,14.14l0,0a.9.9,0,0,1,.76-1.39.77.77,0,0,1,.49.14l0,0Zm.73-1.35a.81.81,0,0,0-.59.24.78.78,0,0,0-.24.58A.77.77,0,0,0,117,14l1.13-1.14A.76.76,0,0,0,117.74,12.79Zm.76-.45h-.45l-.33-.25-.32.26H117l.62-.64h.29Zm-.41-.07h.24l-.5-.49h-.22l-.48.49h.24l.35-.28Z"></path><path class="cls-1" d="M120.39,12.64v-.83h.28v.83h.4v.28h-.4V14.7h-.28V12.92H120v-.28Z"></path><path class="cls-1" d="M120.7,14.74h-.34V13H120v-.34h.4v-.84h.34v.84h.41V13h-.41Zm-.27-.07h.2V12.88h.4v-.2h-.4v-.84h-.2v.84H120v.2h.4Z"></path><path class="cls-2" d="M64.28,19.79a2.28,2.28,0,0,1-.88,1.81,3.22,3.22,0,0,1-2.13.75,2.72,2.72,0,0,1-1-.18,3.29,3.29,0,0,0,1.77-.66,1.85,1.85,0,0,0,.7-1.46,1.55,1.55,0,0,0-.53-1.25,2.18,2.18,0,0,0-1.46-.45,4.7,4.7,0,0,0-.95.11V24.8a2.67,2.67,0,0,0,.15,1,1.39,1.39,0,0,0,.57.59h-2.7a1.08,1.08,0,0,0,.56-.77,6.25,6.25,0,0,0,0-1V19.15a6.25,6.25,0,0,0,0-1,1.06,1.06,0,0,0-.56-.76h1.31l.51,0H61.1a4.25,4.25,0,0,1,1.8.34,2.59,2.59,0,0,1,1,.87,2.07,2.07,0,0,1,.37,1.19m9.91,6.62H71.6a1.08,1.08,0,0,0,.55-.77,5,5,0,0,0,.06-1V22.07H67.28v2.59a4.89,4.89,0,0,0,.06,1,1.08,1.08,0,0,0,.56.77H65.3a1.08,1.08,0,0,0,.56-.77,6.25,6.25,0,0,0,0-1V19.15a6.25,6.25,0,0,0,0-1,1.06,1.06,0,0,0-.56-.76h2.6a1.06,1.06,0,0,0-.56.76,4.89,4.89,0,0,0-.06,1V21h4.93V19.15a5,5,0,0,0-.06-1,1.07,1.07,0,0,0-.55-.76h2.59a1.07,1.07,0,0,0-.55.76,5.31,5.31,0,0,0,0,1v5.51a5.31,5.31,0,0,0,0,1,1.08,1.08,0,0,0,.55.77m10.59,0H82c.33-.2.49-.38.49-.54a3.38,3.38,0,0,0-.23-.77L81.4,23H77.94l-.77,2.09a2,2,0,0,0-.16.7c0,.23.16.44.49.61H75a2.51,2.51,0,0,0,.69-.62,8.5,8.5,0,0,0,.58-1.22l2.41-6a1.87,1.87,0,0,0,.15-.62.59.59,0,0,0-.41-.53h2.18l2.87,7.16a6.11,6.11,0,0,0,.6,1.19,2.39,2.39,0,0,0,.72.65m-3.73-4.28-1.38-3.57-1.4,3.57ZM94.5,17.41a1.59,1.59,0,0,0-.59.6,2.69,2.69,0,0,0-.14,1v7.84a4.16,4.16,0,0,1-1.88-1.44L87.1,19.34V24.8a2.58,2.58,0,0,0,.15,1,1.5,1.5,0,0,0,.56.6H85.38a1.48,1.48,0,0,0,.58-.6,2.51,2.51,0,0,0,.15-1V19A2.52,2.52,0,0,0,86,18a1.46,1.46,0,0,0-.57-.6h2a4.41,4.41,0,0,0,.33.5l5.06,6.45V19a2.76,2.76,0,0,0-.14-1,1.63,1.63,0,0,0-.58-.6Zm13.45,9h-2.59a1.08,1.08,0,0,0,.55-.77,5,5,0,0,0,.06-1V22.07H101v2.59a4.89,4.89,0,0,0,.06,1,1.05,1.05,0,0,0,.56.77h-2.6a1.08,1.08,0,0,0,.56-.77,6.25,6.25,0,0,0,0-1V19.15a6.25,6.25,0,0,0,0-1,1.06,1.06,0,0,0-.56-.76h2.6a1,1,0,0,0-.56.76,4.89,4.89,0,0,0-.06,1V21H106V19.15a5,5,0,0,0-.06-1,1.07,1.07,0,0,0-.55-.76H108a1.08,1.08,0,0,0-.56.76,6.44,6.44,0,0,0,0,1v5.51a6.44,6.44,0,0,0,0,1,1.1,1.1,0,0,0,.56.77m11.24-4.56a4.5,4.5,0,0,1-1.47,3.4,5.07,5.07,0,0,1-3.59,1.38,5,5,0,0,1-3.53-1.36A4.37,4.37,0,0,1,109.15,22a4.47,4.47,0,0,1,1.48-3.41,5.24,5.24,0,0,1,3.68-1.37,4.8,4.8,0,0,1,3.49,1.35,4.47,4.47,0,0,1,1,1.51,4.89,4.89,0,0,1,.37,1.82m-1.56.21a4.11,4.11,0,0,0-.93-2.71,3.19,3.19,0,0,0-2.58-1.2,3.29,3.29,0,0,0-2.47,1,3.54,3.54,0,0,0-1,2.57,4.19,4.19,0,0,0,1.1,2.9,3.07,3.07,0,0,0,2.4,1,3.31,3.31,0,0,0,2.49-1,3.59,3.59,0,0,0,.95-2.59m8.07-5.38L122,15.56l.76-1Zm3.93,9.73H126.8c.33-.2.49-.38.49-.54a3.38,3.38,0,0,0-.23-.77L126.25,23h-3.46L122,25.1a2.15,2.15,0,0,0-.15.7c0,.23.16.44.49.61h-2.51a2.51,2.51,0,0,0,.69-.62,9.77,9.77,0,0,0,.58-1.22l2.41-6a1.87,1.87,0,0,0,.15-.62.59.59,0,0,0-.41-.53h2.18l2.87,7.16a6.11,6.11,0,0,0,.6,1.19,2.39,2.39,0,0,0,.72.65m-3.73-4.28-1.39-3.57-1.4,3.57Zm13.45-4.72a1.52,1.52,0,0,0-.59.6,2.69,2.69,0,0,0-.14,1v7.84a4.16,4.16,0,0,1-1.88-1.44L132,19.34V24.8a2.82,2.82,0,0,0,.14,1,1.46,1.46,0,0,0,.57.6h-2.43a1.48,1.48,0,0,0,.58-.6,2.55,2.55,0,0,0,.14-1V19a2.56,2.56,0,0,0-.14-1,1.46,1.46,0,0,0-.57-.6h2a4.41,4.41,0,0,0,.33.5l5.06,6.45V19a2.52,2.52,0,0,0-.15-1,1.52,1.52,0,0,0-.57-.6Zm9.89,8.82a3.34,3.34,0,0,0-.48.08,14.64,14.64,0,0,1-2.8.32,6.33,6.33,0,0,1-3.62-1,4.23,4.23,0,0,1-2-3.7,4.41,4.41,0,0,1,2.11-3.82,6.25,6.25,0,0,1,3.55-1,10.8,10.8,0,0,1,2.16.24V19a3.48,3.48,0,0,0-2.43-.81,3.85,3.85,0,0,0-2.75,1,3.42,3.42,0,0,0-1.08,2.6,3.65,3.65,0,0,0,1.17,2.74,3.87,3.87,0,0,0,2.8,1.12,5.41,5.41,0,0,0,1.88-.26V23.57a5.24,5.24,0,0,0-.05-1,1.07,1.07,0,0,0-.55-.77h2.06a3,3,0,0,0-.08.81v2.9a2.44,2.44,0,0,0,.08.7m13.65,0a3.34,3.34,0,0,0-.48.08,14.56,14.56,0,0,1-2.8.32,6.35,6.35,0,0,1-3.62-1,4.22,4.22,0,0,1-2-3.7,4.4,4.4,0,0,1,2.1-3.82,6.28,6.28,0,0,1,3.55-1,10.8,10.8,0,0,1,2.16.24V19a3.47,3.47,0,0,0-2.42-.81,3.89,3.89,0,0,0-2.76,1,3.42,3.42,0,0,0-1.08,2.6,3.65,3.65,0,0,0,1.17,2.74,3.88,3.88,0,0,0,2.81,1.12,5.45,5.45,0,0,0,1.88-.26V23.57a6.34,6.34,0,0,0-.05-1,1.1,1.1,0,0,0-.56-.77h2.06a3.14,3.14,0,0,0-.07.81v2.9a2.5,2.5,0,0,0,.07.7m4.16.18h-2.59a1.1,1.1,0,0,0,.56-.77,6.25,6.25,0,0,0,0-1V19.15a6.25,6.25,0,0,0,0-1,1.09,1.09,0,0,0-.56-.76h2.59a1,1,0,0,0-.55.76,4.89,4.89,0,0,0-.06,1v5.51a4.89,4.89,0,0,0,.06,1,1.07,1.07,0,0,0,.55.77m10.58,0H174.8c.33-.2.49-.38.49-.54a3.38,3.38,0,0,0-.23-.77L174.25,23h-3.46L170,25.1a2.21,2.21,0,0,0-.16.7c0,.23.17.44.5.61h-2.51a2.32,2.32,0,0,0,.68-.62,8.25,8.25,0,0,0,.59-1.22l2.41-6a1.87,1.87,0,0,0,.15-.62.6.6,0,0,0-.41-.53h2.18l2.87,7.16a6.11,6.11,0,0,0,.6,1.19,2.39,2.39,0,0,0,.72.65m-3.73-4.28-1.39-3.57-1.4,3.57Z"></path><path class="cls-3" d="M46.51,7.58v7.89H43.9V6.17L40.7,4.45V29.58l3.2-1.72V18.91h2.61v7.55L50,24.61v-11l3.47,1.86h7.76ZM26.28,12H31V24.61l3.44,1.85V18.91h5.81V4.45ZM37,15.47H34.41V11.75L37,10.35Z"></path><path class="cls-4" d="M55.85,21.84,40.46,30.12l-6.05-3.25L31,25v1.74l9.49,5.11L56,23.5V21.76ZM40.47,2.14l-18.1,9.74h3.29l.14-.07,14.67-7.9L61.66,15.33l.28.14h3.29Z"></path><path class="cls-5" d="M26.28,12H31V24.61l3.44,1.85V18.91h5.81V4.45ZM37,15.47H34.41V11.75L37,10.35Z"></path><polygon class="cls-6" points="56 17.07 52.56 18.91 52.56 23.2 56 21.35 56 17.07"></polygon></svg> 