<?xml version="1.0" encoding="UTF-8"?> <svg xmlns="http://www.w3.org/2000/svg" xmlns:xlink="http://www.w3.org/1999/xlink" width="40" zoomAndPan="magnify" viewBox="0 0 30 30.000001" height="40" preserveAspectRatio="xMidYMid meet" version="1.0"><defs><clipPath id="b4b275b083"><path d="M 2.289062 2.007812 L 27.570312 2.007812 L 27.570312 26.6875 L 2.289062 26.6875 Z M 2.289062 2.007812 " clip-rule="nonzero"></path></clipPath></defs><g clip-path="url(#b4b275b083)"><path fill="#000000" d="M 23.734375 24.394531 C 23.726562 24.441406 23.683594 24.476562 23.632812 24.476562 L 6.300781 24.476562 C 6.253906 24.476562 6.210938 24.441406 6.203125 24.394531 L 5.113281 18.9375 C 5.105469 18.90625 5.113281 18.875 5.132812 18.851562 C 5.152344 18.832031 5.179688 18.816406 5.210938 18.816406 L 24.726562 18.816406 C 24.757812 18.816406 24.785156 18.832031 24.804688 18.851562 C 24.824219 18.875 24.832031 18.90625 24.824219 18.9375 Z M 4.699219 16.585938 C 4.644531 16.585938 4.597656 16.539062 4.597656 16.484375 L 4.597656 5.515625 C 4.597656 4.8125 5.3125 4.238281 6.1875 4.238281 C 6.835938 4.238281 7.390625 4.550781 7.636719 4.996094 C 7.664062 5.046875 7.648438 5.105469 7.601562 5.132812 C 6.757812 5.617188 6.1875 6.523438 6.1875 7.558594 L 6.1875 8.445312 C 6.1875 8.503906 6.234375 8.546875 6.289062 8.546875 L 11.753906 8.546875 C 11.808594 8.546875 11.855469 8.503906 11.855469 8.445312 L 11.855469 7.558594 C 11.855469 6.359375 11.09375 5.339844 10.027344 4.9375 C 9.992188 4.925781 9.96875 4.898438 9.960938 4.863281 C 9.625 3.242188 8.066406 2.007812 6.1875 2.007812 C 4.070312 2.007812 2.347656 3.582031 2.347656 5.515625 C 2.347656 19.8125 1.753906 13.636719 4.351562 26.625 C 4.363281 26.671875 4.402344 26.707031 4.453125 26.707031 L 25.484375 26.707031 C 25.53125 26.707031 25.574219 26.671875 25.582031 26.625 L 27.566406 16.707031 C 27.570312 16.675781 27.5625 16.648438 27.542969 16.625 C 27.523438 16.601562 27.496094 16.585938 27.464844 16.585938 L 4.699219 16.585938 " fill-opacity="1" fill-rule="nonzero"></path></g></svg> 