<?xml version="1.0" encoding="UTF-8"?> <svg xmlns="http://www.w3.org/2000/svg" xmlns:xlink="http://www.w3.org/1999/xlink" width="40" zoomAndPan="magnify" viewBox="0 0 30 30.000001" height="40" preserveAspectRatio="xMidYMid meet" version="1.0"><defs><clipPath id="cf249300ed"><path d="M 1.679688 1.195312 L 28.535156 1.195312 L 28.535156 28.050781 L 1.679688 28.050781 Z M 1.679688 1.195312 " clip-rule="nonzero"></path></clipPath><clipPath id="225f9505b5"><path d="M 1.878906 1.394531 L 28.007812 1.394531 L 28.007812 27.523438 L 1.878906 27.523438 Z M 1.878906 1.394531 " clip-rule="nonzero"></path></clipPath></defs><g clip-path="url(#cf249300ed)"><path fill="#000000" d="M 27.949219 28.050781 L 2.265625 28.050781 C 1.941406 28.050781 1.679688 27.789062 1.679688 27.46875 L 1.679688 1.78125 C 1.679688 1.457031 1.941406 1.195312 2.265625 1.195312 L 27.949219 1.195312 C 28.273438 1.195312 28.535156 1.457031 28.535156 1.78125 L 28.535156 27.46875 C 28.535156 27.789062 28.273438 28.050781 27.949219 28.050781 Z M 2.847656 26.882812 L 27.367188 26.882812 L 27.367188 2.363281 L 2.847656 2.363281 Z M 2.847656 26.882812 " fill-opacity="1" fill-rule="nonzero"></path></g><path fill="#000000" d="M 9.851562 14.039062 C 7.277344 14.039062 5.183594 11.945312 5.183594 9.371094 C 5.183594 6.792969 7.277344 4.699219 9.851562 4.699219 C 12.429688 4.699219 14.523438 6.792969 14.523438 9.371094 C 14.523438 11.945312 12.429688 14.039062 9.851562 14.039062 Z M 9.851562 5.867188 C 7.921875 5.867188 6.351562 7.4375 6.351562 9.371094 C 6.351562 11.300781 7.921875 12.871094 9.851562 12.871094 C 11.785156 12.871094 13.355469 11.300781 13.355469 9.371094 C 13.355469 7.4375 11.785156 5.867188 9.851562 5.867188 Z M 9.851562 5.867188 " fill-opacity="1" fill-rule="nonzero"></path><path fill="#000000" d="M 21.53125 12.871094 C 19.597656 12.871094 18.027344 11.300781 18.027344 9.371094 C 18.027344 7.4375 19.597656 5.867188 21.53125 5.867188 C 23.460938 5.867188 25.03125 7.4375 25.03125 9.371094 C 25.03125 11.300781 23.460938 12.871094 21.53125 12.871094 Z M 21.53125 7.035156 C 20.242188 7.035156 19.195312 8.082031 19.195312 9.371094 C 19.195312 10.65625 20.242188 11.703125 21.53125 11.703125 C 22.816406 11.703125 23.863281 10.65625 23.863281 9.371094 C 23.863281 8.082031 22.816406 7.035156 21.53125 7.035156 Z M 21.53125 7.035156 " fill-opacity="1" fill-rule="nonzero"></path><path fill="#000000" d="M 9.851562 24.546875 C 7.921875 24.546875 6.351562 22.976562 6.351562 21.046875 C 6.351562 19.113281 7.921875 17.542969 9.851562 17.542969 C 11.785156 17.542969 13.355469 19.113281 13.355469 21.046875 C 13.355469 22.976562 11.785156 24.546875 9.851562 24.546875 Z M 9.851562 18.710938 C 8.566406 18.710938 7.519531 19.757812 7.519531 21.046875 C 7.519531 22.332031 8.566406 23.378906 9.851562 23.378906 C 11.140625 23.378906 12.1875 22.332031 12.1875 21.046875 C 12.1875 19.757812 11.140625 18.710938 9.851562 18.710938 Z M 9.851562 18.710938 " fill-opacity="1" fill-rule="nonzero"></path><path fill="#000000" d="M 21.53125 23.378906 C 20.242188 23.378906 19.195312 22.332031 19.195312 21.046875 C 19.195312 19.757812 20.242188 18.710938 21.53125 18.710938 C 22.816406 18.710938 23.863281 19.757812 23.863281 21.046875 C 23.863281 22.332031 22.816406 23.378906 21.53125 23.378906 Z M 21.53125 19.878906 C 20.886719 19.878906 20.363281 20.402344 20.363281 21.046875 C 20.363281 21.691406 20.886719 22.214844 21.53125 22.214844 C 22.171875 22.214844 22.695312 21.691406 22.695312 21.046875 C 22.695312 20.402344 22.171875 19.878906 21.53125 19.878906 Z M 21.53125 19.878906 " fill-opacity="1" fill-rule="nonzero"></path><g clip-path="url(#225f9505b5)"><path fill="#000000" d="M 27.441406 27.523438 L 2.449219 27.523438 C 2.132812 27.523438 1.878906 27.269531 1.878906 26.957031 L 1.878906 1.964844 C 1.878906 1.648438 2.132812 1.394531 2.449219 1.394531 L 27.441406 1.394531 C 27.753906 1.394531 28.007812 1.648438 28.007812 1.964844 L 28.007812 26.957031 C 28.007812 27.269531 27.753906 27.523438 27.441406 27.523438 Z M 3.015625 26.390625 L 26.871094 26.390625 L 26.871094 2.53125 L 3.015625 2.53125 Z M 3.015625 26.390625 " fill-opacity="1" fill-rule="nonzero"></path></g><path fill="#000000" d="M 9.832031 13.890625 C 7.324219 13.890625 5.289062 11.855469 5.289062 9.347656 C 5.289062 6.84375 7.324219 4.804688 9.832031 4.804688 C 12.339844 4.804688 14.375 6.84375 14.375 9.347656 C 14.375 11.855469 12.339844 13.890625 9.832031 13.890625 Z M 9.832031 5.941406 C 7.953125 5.941406 6.425781 7.46875 6.425781 9.347656 C 6.425781 11.226562 7.953125 12.757812 9.832031 12.757812 C 11.710938 12.757812 13.238281 11.226562 13.238281 9.347656 C 13.238281 7.46875 11.710938 5.941406 9.832031 5.941406 Z M 9.832031 5.941406 " fill-opacity="1" fill-rule="nonzero"></path><path fill="#000000" d="M 21.191406 12.757812 C 19.3125 12.757812 17.785156 11.226562 17.785156 9.347656 C 17.785156 7.46875 19.3125 5.941406 21.191406 5.941406 C 23.070312 5.941406 24.601562 7.46875 24.601562 9.347656 C 24.601562 11.226562 23.070312 12.757812 21.191406 12.757812 Z M 21.191406 7.074219 C 19.9375 7.074219 18.921875 8.09375 18.921875 9.347656 C 18.921875 10.601562 19.9375 11.621094 21.191406 11.621094 C 22.445312 11.621094 23.464844 10.601562 23.464844 9.347656 C 23.464844 8.09375 22.445312 7.074219 21.191406 7.074219 Z M 21.191406 7.074219 " fill-opacity="1" fill-rule="nonzero"></path><path fill="#000000" d="M 9.832031 24.117188 C 7.953125 24.117188 6.425781 22.585938 6.425781 20.707031 C 6.425781 18.828125 7.953125 17.300781 9.832031 17.300781 C 11.710938 17.300781 13.238281 18.828125 13.238281 20.707031 C 13.238281 22.585938 11.710938 24.117188 9.832031 24.117188 Z M 9.832031 18.4375 C 8.578125 18.4375 7.558594 19.457031 7.558594 20.707031 C 7.558594 21.960938 8.578125 22.980469 9.832031 22.980469 C 11.085938 22.980469 12.105469 21.960938 12.105469 20.707031 C 12.105469 19.457031 11.085938 18.4375 9.832031 18.4375 Z M 9.832031 18.4375 " fill-opacity="1" fill-rule="nonzero"></path><path fill="#000000" d="M 21.191406 22.980469 C 19.9375 22.980469 18.921875 21.960938 18.921875 20.707031 C 18.921875 19.457031 19.9375 18.4375 21.191406 18.4375 C 22.445312 18.4375 23.464844 19.457031 23.464844 20.707031 C 23.464844 21.960938 22.445312 22.980469 21.191406 22.980469 Z M 21.191406 19.574219 C 20.566406 19.574219 20.054688 20.082031 20.054688 20.707031 C 20.054688 21.335938 20.566406 21.84375 21.191406 21.84375 C 21.820312 21.84375 22.328125 21.335938 22.328125 20.707031 C 22.328125 20.082031 21.820312 19.574219 21.191406 19.574219 Z M 21.191406 19.574219 " fill-opacity="1" fill-rule="nonzero"></path></svg> 