<?xml version="1.0" encoding="UTF-8"?> <svg xmlns="http://www.w3.org/2000/svg" xmlns:xlink="http://www.w3.org/1999/xlink" width="40" zoomAndPan="magnify" viewBox="0 0 30 30.000001" height="40" preserveAspectRatio="xMidYMid meet" version="1.0"><defs><clipPath id="8dd42c645e"><path d="M 2.734375 2.25 L 16 2.25 L 16 26.925781 L 2.734375 26.925781 Z M 2.734375 2.25 " clip-rule="nonzero"></path></clipPath><clipPath id="a7342ae327"><path d="M 18 2.25 L 27.410156 2.25 L 27.410156 12 L 18 12 Z M 18 2.25 " clip-rule="nonzero"></path></clipPath></defs><g clip-path="url(#8dd42c645e)"><path fill="#000000" d="M 12.757812 26.925781 L 5.046875 26.925781 C 4.742188 26.925781 4.445312 26.867188 4.160156 26.75 C 3.878906 26.632812 3.628906 26.464844 3.410156 26.25 C 3.195312 26.03125 3.027344 25.78125 2.910156 25.5 C 2.792969 25.214844 2.734375 24.921875 2.734375 24.613281 L 2.734375 4.5625 C 2.734375 4.257812 2.792969 3.960938 2.910156 3.679688 C 3.027344 3.394531 3.195312 3.144531 3.410156 2.925781 C 3.628906 2.710938 3.878906 2.542969 4.160156 2.425781 C 4.445312 2.308594 4.742188 2.25 5.046875 2.25 L 12.757812 2.25 C 13.066406 2.25 13.359375 2.308594 13.644531 2.425781 C 13.929688 2.542969 14.179688 2.710938 14.394531 2.925781 C 14.613281 3.144531 14.777344 3.394531 14.894531 3.679688 C 15.015625 3.960938 15.074219 4.257812 15.074219 4.5625 L 15.074219 13.816406 C 15.074219 14.03125 14.996094 14.210938 14.847656 14.363281 C 14.695312 14.511719 14.515625 14.589844 14.300781 14.589844 C 14.089844 14.589844 13.90625 14.511719 13.757812 14.363281 C 13.605469 14.210938 13.53125 14.03125 13.53125 13.816406 L 13.53125 4.5625 C 13.53125 4.351562 13.453125 4.167969 13.304688 4.019531 C 13.152344 3.867188 12.972656 3.792969 12.757812 3.792969 L 5.046875 3.792969 C 4.835938 3.792969 4.652344 3.867188 4.503906 4.019531 C 4.351562 4.167969 4.277344 4.351562 4.277344 4.5625 L 4.277344 24.613281 C 4.277344 24.828125 4.351562 25.007812 4.503906 25.160156 C 4.652344 25.308594 4.835938 25.386719 5.046875 25.386719 L 12.757812 25.386719 C 12.972656 25.386719 13.152344 25.308594 13.304688 25.160156 C 13.453125 25.007812 13.53125 24.828125 13.53125 24.613281 L 13.53125 16.902344 C 13.53125 16.6875 13.605469 16.507812 13.757812 16.355469 C 13.90625 16.207031 14.089844 16.132812 14.300781 16.132812 C 14.515625 16.132812 14.695312 16.207031 14.847656 16.355469 C 14.996094 16.507812 15.074219 16.6875 15.074219 16.902344 L 15.074219 24.613281 C 15.074219 24.921875 15.015625 25.214844 14.894531 25.5 C 14.777344 25.78125 14.613281 26.03125 14.394531 26.25 C 14.179688 26.464844 13.929688 26.632812 13.644531 26.75 C 13.359375 26.867188 13.066406 26.925781 12.757812 26.925781 Z M 12.757812 26.925781 " fill-opacity="1" fill-rule="nonzero"></path></g><path fill="#000000" d="M 22.011719 17.671875 L 9.675781 17.671875 C 9.367188 17.671875 9.074219 17.613281 8.789062 17.496094 C 8.503906 17.378906 8.253906 17.210938 8.039062 16.996094 C 7.820312 16.777344 7.65625 16.527344 7.535156 16.246094 C 7.417969 15.960938 7.359375 15.667969 7.359375 15.359375 C 7.359375 15.054688 7.417969 14.757812 7.535156 14.472656 C 7.65625 14.191406 7.820312 13.941406 8.039062 13.722656 C 8.253906 13.507812 8.503906 13.339844 8.789062 13.222656 C 9.074219 13.105469 9.367188 13.046875 9.675781 13.046875 L 22.011719 13.046875 C 22.320312 13.046875 22.613281 13.105469 22.898438 13.222656 C 23.183594 13.339844 23.433594 13.507812 23.648438 13.722656 C 23.867188 13.941406 24.03125 14.191406 24.152344 14.472656 C 24.269531 14.757812 24.328125 15.054688 24.328125 15.359375 C 24.328125 15.667969 24.269531 15.960938 24.152344 16.246094 C 24.03125 16.527344 23.867188 16.777344 23.648438 16.996094 C 23.433594 17.210938 23.183594 17.378906 22.898438 17.496094 C 22.613281 17.613281 22.320312 17.671875 22.011719 17.671875 Z M 9.675781 14.589844 C 9.460938 14.589844 9.28125 14.664062 9.128906 14.816406 C 8.976562 14.964844 8.902344 15.148438 8.902344 15.359375 C 8.902344 15.574219 8.976562 15.753906 9.128906 15.90625 C 9.28125 16.054688 9.460938 16.132812 9.675781 16.132812 L 22.011719 16.132812 C 22.226562 16.132812 22.40625 16.054688 22.558594 15.90625 C 22.707031 15.753906 22.785156 15.574219 22.785156 15.359375 C 22.785156 15.148438 22.707031 14.964844 22.558594 14.816406 C 22.40625 14.664062 22.226562 14.589844 22.011719 14.589844 Z M 9.675781 14.589844 " fill-opacity="1" fill-rule="nonzero"></path><path fill="#000000" d="M 8.902344 23.84375 C 8.597656 23.84375 8.300781 23.785156 8.019531 23.667969 C 7.734375 23.550781 7.484375 23.382812 7.265625 23.164062 C 7.050781 22.949219 6.882812 22.699219 6.765625 22.414062 C 6.648438 22.132812 6.589844 21.835938 6.589844 21.527344 C 6.589844 21.222656 6.648438 20.925781 6.765625 20.644531 C 6.882812 20.359375 7.050781 20.109375 7.265625 19.894531 C 7.484375 19.675781 7.734375 19.507812 8.019531 19.390625 C 8.300781 19.273438 8.597656 19.214844 8.902344 19.214844 C 9.210938 19.214844 9.503906 19.273438 9.789062 19.390625 C 10.070312 19.507812 10.320312 19.675781 10.539062 19.894531 C 10.757812 20.109375 10.921875 20.359375 11.039062 20.644531 C 11.15625 20.925781 11.214844 21.222656 11.214844 21.527344 C 11.214844 21.835938 11.15625 22.132812 11.039062 22.414062 C 10.921875 22.699219 10.757812 22.949219 10.539062 23.164062 C 10.320312 23.382812 10.070312 23.550781 9.789062 23.667969 C 9.503906 23.785156 9.210938 23.84375 8.902344 23.84375 Z M 8.902344 20.757812 C 8.691406 20.757812 8.507812 20.832031 8.359375 20.984375 C 8.207031 21.132812 8.132812 21.316406 8.132812 21.527344 C 8.132812 21.742188 8.207031 21.925781 8.359375 22.074219 C 8.507812 22.226562 8.691406 22.300781 8.902344 22.300781 C 9.117188 22.300781 9.296875 22.226562 9.449219 22.074219 C 9.597656 21.925781 9.675781 21.742188 9.675781 21.527344 C 9.675781 21.316406 9.597656 21.132812 9.449219 20.984375 C 9.296875 20.832031 9.117188 20.757812 8.902344 20.757812 Z M 8.902344 20.757812 " fill-opacity="1" fill-rule="nonzero"></path><g clip-path="url(#a7342ae327)"><path fill="#000000" d="M 26.640625 11.503906 C 26.425781 11.503906 26.246094 11.429688 26.09375 11.277344 C 25.945312 11.128906 25.867188 10.945312 25.867188 10.734375 C 25.867188 10.277344 25.824219 9.824219 25.734375 9.378906 C 25.648438 8.933594 25.515625 8.496094 25.339844 8.078125 C 25.167969 7.65625 24.953125 7.253906 24.699219 6.875 C 24.445312 6.496094 24.160156 6.148438 23.835938 5.824219 C 23.515625 5.503906 23.164062 5.214844 22.785156 4.960938 C 22.40625 4.707031 22.003906 4.496094 21.585938 4.320312 C 21.164062 4.144531 20.730469 4.015625 20.28125 3.925781 C 19.835938 3.835938 19.382812 3.792969 18.929688 3.792969 C 18.714844 3.792969 18.535156 3.71875 18.382812 3.566406 C 18.234375 3.414062 18.15625 3.234375 18.15625 3.019531 C 18.15625 2.808594 18.234375 2.625 18.382812 2.476562 C 18.535156 2.324219 18.714844 2.25 18.929688 2.25 C 19.484375 2.25 20.035156 2.304688 20.582031 2.414062 C 21.128906 2.523438 21.660156 2.683594 22.171875 2.898438 C 22.6875 3.113281 23.175781 3.375 23.640625 3.683594 C 24.101562 3.992188 24.53125 4.34375 24.921875 4.738281 C 25.316406 5.132812 25.667969 5.558594 25.976562 6.023438 C 26.289062 6.484375 26.550781 6.972656 26.761719 7.488281 C 26.976562 8.003906 27.136719 8.53125 27.246094 9.078125 C 27.355469 9.625 27.410156 10.175781 27.410156 10.734375 C 27.410156 10.945312 27.335938 11.128906 27.183594 11.277344 C 27.035156 11.429688 26.851562 11.503906 26.640625 11.503906 Z M 26.640625 11.503906 " fill-opacity="1" fill-rule="nonzero"></path></g><path fill="#000000" d="M 23.554688 11.503906 C 23.34375 11.503906 23.160156 11.429688 23.011719 11.277344 C 22.859375 11.128906 22.785156 10.945312 22.785156 10.734375 C 22.785156 10.480469 22.757812 10.230469 22.710938 9.980469 C 22.660156 9.730469 22.585938 9.492188 22.492188 9.257812 C 22.394531 9.023438 22.273438 8.800781 22.132812 8.589844 C 21.992188 8.378906 21.832031 8.183594 21.65625 8.007812 C 21.476562 7.828125 21.28125 7.667969 21.070312 7.527344 C 20.859375 7.386719 20.636719 7.265625 20.402344 7.171875 C 20.171875 7.074219 19.929688 7 19.679688 6.949219 C 19.433594 6.902344 19.179688 6.878906 18.929688 6.878906 C 18.714844 6.878906 18.535156 6.800781 18.382812 6.652344 C 18.234375 6.5 18.15625 6.320312 18.15625 6.105469 C 18.15625 5.894531 18.234375 5.710938 18.382812 5.5625 C 18.535156 5.410156 18.714844 5.335938 18.929688 5.335938 C 19.28125 5.335938 19.632812 5.371094 19.980469 5.4375 C 20.328125 5.507812 20.667969 5.609375 20.996094 5.746094 C 21.320312 5.882812 21.632812 6.046875 21.925781 6.246094 C 22.222656 6.441406 22.496094 6.664062 22.746094 6.914062 C 22.996094 7.167969 23.21875 7.4375 23.417969 7.734375 C 23.613281 8.027344 23.78125 8.339844 23.914062 8.667969 C 24.050781 8.996094 24.152344 9.332031 24.222656 9.679688 C 24.292969 10.027344 24.328125 10.378906 24.328125 10.734375 C 24.328125 10.945312 24.25 11.128906 24.101562 11.277344 C 23.949219 11.429688 23.769531 11.503906 23.554688 11.503906 Z M 23.554688 11.503906 " fill-opacity="1" fill-rule="nonzero"></path><path fill="#000000" d="M 20.472656 11.503906 C 20.257812 11.503906 20.074219 11.429688 19.925781 11.277344 C 19.773438 11.128906 19.699219 10.945312 19.699219 10.734375 C 19.699219 10.519531 19.625 10.339844 19.472656 10.1875 C 19.324219 10.035156 19.140625 9.960938 18.929688 9.960938 C 18.714844 9.960938 18.535156 9.886719 18.382812 9.734375 C 18.234375 9.585938 18.15625 9.402344 18.15625 9.191406 C 18.15625 8.976562 18.234375 8.796875 18.382812 8.644531 C 18.535156 8.496094 18.714844 8.417969 18.929688 8.417969 C 19.234375 8.417969 19.53125 8.476562 19.8125 8.59375 C 20.097656 8.710938 20.347656 8.878906 20.5625 9.097656 C 20.78125 9.3125 20.949219 9.5625 21.066406 9.847656 C 21.183594 10.132812 21.242188 10.425781 21.242188 10.734375 C 21.242188 10.945312 21.167969 11.128906 21.015625 11.277344 C 20.867188 11.429688 20.683594 11.503906 20.472656 11.503906 Z M 20.472656 11.503906 " fill-opacity="1" fill-rule="nonzero"></path></svg> 