<?xml version="1.0" encoding="UTF-8"?> <svg xmlns="http://www.w3.org/2000/svg" xmlns:xlink="http://www.w3.org/1999/xlink" width="40" zoomAndPan="magnify" viewBox="0 0 30 30.000001" height="40" preserveAspectRatio="xMidYMid meet" version="1.0"><defs><clipPath id="a48b7ab145"><path d="M 2.152344 1.667969 L 27.554688 1.667969 L 27.554688 27.074219 L 2.152344 27.074219 Z M 2.152344 1.667969 " clip-rule="nonzero"></path></clipPath></defs><g clip-path="url(#a48b7ab145)"><path fill="#231f20" d="M 25.140625 25.863281 L 4.574219 25.863281 C 3.90625 25.863281 3.363281 25.324219 3.363281 24.65625 L 3.363281 7.113281 L 10.835938 7.113281 C 11.117188 8.492188 12.339844 9.535156 13.796875 9.535156 L 16.21875 9.535156 C 17.679688 9.535156 18.898438 8.492188 19.179688 7.113281 L 26.347656 7.113281 L 26.347656 24.65625 C 26.347656 25.324219 25.804688 25.863281 25.140625 25.863281 Z M 17.929688 7.113281 C 17.679688 7.820312 17.007812 8.324219 16.21875 8.324219 L 13.796875 8.324219 C 13.007812 8.324219 12.335938 7.820312 12.085938 7.113281 Z M 4.574219 2.882812 L 25.140625 2.882812 C 25.804688 2.882812 26.347656 3.421875 26.347656 4.089844 L 26.347656 5.90625 L 3.363281 5.90625 L 3.363281 4.089844 C 3.363281 3.421875 3.90625 2.882812 4.574219 2.882812 Z M 25.140625 1.671875 L 4.574219 1.671875 C 3.242188 1.671875 2.15625 2.757812 2.15625 4.089844 L 2.15625 24.65625 C 2.15625 25.988281 3.242188 27.074219 4.574219 27.074219 L 25.140625 27.074219 C 26.472656 27.074219 27.558594 25.988281 27.558594 24.65625 L 27.558594 4.089844 C 27.558594 2.757812 26.472656 1.671875 25.140625 1.671875 " fill-opacity="1" fill-rule="nonzero"></path></g><path fill="#231f20" d="M 6.390625 4.996094 C 6.722656 4.996094 6.992188 4.726562 6.992188 4.394531 C 6.992188 4.058594 6.722656 3.789062 6.390625 3.789062 C 6.054688 3.789062 5.785156 4.058594 5.785156 4.394531 C 5.785156 4.726562 6.054688 4.996094 6.390625 4.996094 " fill-opacity="1" fill-rule="nonzero"></path><path fill="#231f20" d="M 8.203125 4.996094 C 8.539062 4.996094 8.808594 4.726562 8.808594 4.394531 C 8.808594 4.058594 8.539062 3.789062 8.203125 3.789062 C 7.871094 3.789062 7.597656 4.058594 7.597656 4.394531 C 7.597656 4.726562 7.871094 4.996094 8.203125 4.996094 " fill-opacity="1" fill-rule="nonzero"></path><path fill="#231f20" d="M 14.855469 18.003906 C 14.855469 20.003906 13.230469 21.632812 11.226562 21.632812 C 9.226562 21.632812 7.597656 20.003906 7.597656 18.003906 C 7.597656 16 9.226562 14.371094 11.226562 14.371094 C 11.726562 14.371094 12.203125 14.472656 12.636719 14.65625 C 12.757812 14.347656 12.933594 13.992188 13.171875 13.574219 C 12.578125 13.308594 11.917969 13.164062 11.226562 13.164062 C 8.558594 13.164062 6.390625 15.335938 6.390625 18.003906 C 6.390625 20.671875 8.558594 22.839844 11.226562 22.839844 C 13.894531 22.839844 16.066406 20.671875 16.066406 18.003906 C 16.066406 17.894531 16.0625 17.789062 16.054688 17.683594 C 15.703125 17.886719 15.292969 18 14.855469 18 C 14.855469 18 14.855469 18 14.855469 18.003906 " fill-opacity="1" fill-rule="nonzero"></path><path fill="#231f20" d="M 12.4375 18.003906 C 12.4375 18.667969 11.894531 19.210938 11.226562 19.210938 C 10.5625 19.210938 10.019531 18.667969 10.019531 18.003906 C 10.019531 17.335938 10.5625 16.792969 11.226562 16.792969 C 11.894531 16.792969 12.4375 17.335938 12.4375 18.003906 Z M 8.808594 18.003906 C 8.808594 19.335938 9.894531 20.421875 11.226562 20.421875 C 12.5625 20.421875 13.648438 19.335938 13.648438 18.003906 C 13.648438 17.886719 13.636719 17.773438 13.621094 17.660156 C 13.007812 17.292969 12.566406 16.660156 12.460938 15.921875 C 12.101562 15.707031 11.679688 15.582031 11.226562 15.582031 C 9.894531 15.582031 8.808594 16.667969 8.808594 18.003906 " fill-opacity="1" fill-rule="nonzero"></path><path fill="#231f20" d="M 20.796875 17.894531 C 20.609375 18.3125 20.183594 18.605469 19.695312 18.605469 C 19.027344 18.605469 18.484375 18.0625 18.484375 17.398438 L 18.484375 14.371094 L 19.410156 14.371094 C 19.527344 14.117188 19.671875 13.835938 19.859375 13.515625 C 19.929688 13.390625 20.003906 13.273438 20.070312 13.164062 L 17.882812 13.164062 C 17.546875 13.164062 17.277344 13.433594 17.277344 13.769531 L 17.277344 17.398438 C 17.277344 18.523438 18.046875 19.46875 19.089844 19.738281 L 19.089844 21.632812 L 17.882812 21.632812 C 17.546875 21.632812 17.277344 21.902344 17.277344 22.234375 C 17.277344 22.570312 17.546875 22.839844 17.882812 22.839844 L 21.511719 22.839844 C 21.84375 22.839844 22.113281 22.570312 22.113281 22.234375 C 22.113281 21.902344 21.84375 21.632812 21.511719 21.632812 L 20.300781 21.632812 L 20.300781 19.738281 C 21.167969 19.515625 21.851562 18.816406 22.050781 17.9375 C 21.878906 17.980469 21.695312 18 21.511719 18 C 21.261719 18 21.023438 17.964844 20.796875 17.894531 " fill-opacity="1" fill-rule="nonzero"></path><path fill="#231f20" d="M 14.855469 14.285156 C 15.207031 14.871094 15.457031 15.398438 15.460938 15.582031 C 15.460938 15.917969 15.191406 16.1875 14.855469 16.1875 C 14.523438 16.1875 14.25 15.917969 14.25 15.582031 C 14.257812 15.398438 14.507812 14.871094 14.855469 14.285156 Z M 13.042969 15.582031 C 13.042969 16.582031 13.855469 17.398438 14.855469 17.398438 C 15.855469 17.398438 16.671875 16.582031 16.671875 15.582031 C 16.671875 14.808594 15.75 13.394531 15.355469 12.820312 C 15.242188 12.65625 15.054688 12.558594 14.855469 12.558594 C 14.660156 12.558594 14.472656 12.65625 14.359375 12.820312 C 13.964844 13.394531 13.042969 14.808594 13.042969 15.582031 " fill-opacity="1" fill-rule="nonzero"></path><path fill="#231f20" d="M 21.511719 16.1875 C 21.175781 16.1875 20.90625 15.917969 20.90625 15.582031 C 20.910156 15.398438 21.160156 14.871094 21.511719 14.285156 C 21.859375 14.871094 22.109375 15.398438 22.113281 15.582031 C 22.113281 15.917969 21.84375 16.1875 21.511719 16.1875 Z M 21.511719 12.558594 C 21.3125 12.558594 21.125 12.65625 21.011719 12.820312 C 20.617188 13.394531 19.695312 14.808594 19.695312 15.582031 C 19.695312 16.582031 20.507812 17.398438 21.511719 17.398438 C 22.511719 17.398438 23.324219 16.582031 23.324219 15.582031 C 23.324219 14.808594 22.402344 13.394531 22.007812 12.820312 C 21.894531 12.65625 21.707031 12.558594 21.511719 12.558594 " fill-opacity="1" fill-rule="nonzero"></path><path fill="#231f20" d="M 5.933594 23.445312 L 5.933594 11.953125 L 23.777344 11.953125 L 23.777344 23.445312 Z M 24.382812 10.746094 L 5.332031 10.746094 C 4.996094 10.746094 4.726562 11.015625 4.726562 11.347656 L 4.726562 24.050781 C 4.726562 24.382812 4.996094 24.65625 5.332031 24.65625 L 24.382812 24.65625 C 24.71875 24.65625 24.988281 24.382812 24.988281 24.050781 L 24.988281 11.347656 C 24.988281 11.015625 24.71875 10.746094 24.382812 10.746094 " fill-opacity="1" fill-rule="nonzero"></path></svg> 