<?xml version="1.0" encoding="UTF-8"?> <svg xmlns="http://www.w3.org/2000/svg" xmlns:xlink="http://www.w3.org/1999/xlink" width="40" zoomAndPan="magnify" viewBox="0 0 30 30.000001" height="40" preserveAspectRatio="xMidYMid meet" version="1.0"><defs><clipPath id="910d6a33f4"><path d="M 10 1.742188 L 20 1.742188 L 20 9 L 10 9 Z M 10 1.742188 " clip-rule="nonzero"></path></clipPath><clipPath id="d25374853b"><path d="M 2.226562 26 L 27.628906 26 L 27.628906 27.144531 L 2.226562 27.144531 Z M 2.226562 26 " clip-rule="nonzero"></path></clipPath><clipPath id="69797162c3"><path d="M 5 25 L 25 25 L 25 27.144531 L 5 27.144531 Z M 5 25 " clip-rule="nonzero"></path></clipPath></defs><path fill="#000000" d="M 26.4375 15.238281 L 3.417969 15.238281 C 3.308594 15.238281 3.214844 15.199219 3.136719 15.121094 C 3.058594 15.042969 3.019531 14.949219 3.019531 14.839844 L 3.019531 11.664062 C 3.019531 11.554688 3.058594 11.460938 3.136719 11.382812 C 3.214844 11.308594 3.308594 11.269531 3.417969 11.269531 L 26.4375 11.269531 C 26.546875 11.269531 26.640625 11.308594 26.71875 11.382812 C 26.796875 11.460938 26.835938 11.554688 26.835938 11.664062 L 26.835938 14.839844 C 26.835938 14.949219 26.796875 15.042969 26.71875 15.121094 C 26.640625 15.199219 26.546875 15.238281 26.4375 15.238281 Z M 3.8125 14.445312 L 26.042969 14.445312 L 26.042969 12.0625 L 3.8125 12.0625 Z M 3.8125 14.445312 " fill-opacity="1" fill-rule="nonzero"></path><path fill="#000000" d="M 10.957031 14.046875 L 6.988281 14.046875 C 6.878906 14.046875 6.785156 14.007812 6.707031 13.929688 C 6.628906 13.851562 6.59375 13.757812 6.59375 13.648438 L 6.59375 12.855469 C 6.59375 12.746094 6.628906 12.652344 6.707031 12.574219 C 6.785156 12.496094 6.878906 12.457031 6.988281 12.457031 L 10.957031 12.457031 C 11.066406 12.457031 11.160156 12.496094 11.238281 12.574219 C 11.316406 12.652344 11.355469 12.746094 11.355469 12.855469 L 11.355469 13.648438 C 11.355469 13.757812 11.316406 13.851562 11.238281 13.929688 C 11.160156 14.007812 11.066406 14.046875 10.957031 14.046875 Z M 7.386719 13.253906 Z M 7.386719 13.253906 " fill-opacity="1" fill-rule="nonzero"></path><path fill="#000000" d="M 25.644531 12.0625 C 25.5625 12.0625 25.488281 12.039062 25.417969 11.992188 L 20.359375 8.488281 L 9.496094 8.488281 L 4.4375 11.992188 C 4.347656 12.058594 4.246094 12.082031 4.136719 12.0625 C 4.027344 12.042969 3.941406 11.988281 3.875 11.894531 C 3.8125 11.804688 3.792969 11.703125 3.8125 11.59375 C 3.835938 11.484375 3.890625 11.398438 3.984375 11.339844 L 9.144531 7.765625 C 9.210938 7.71875 9.289062 7.695312 9.371094 7.695312 L 20.484375 7.695312 C 20.566406 7.695312 20.640625 7.71875 20.710938 7.765625 L 25.871094 11.339844 C 26.03125 11.449219 26.082031 11.597656 26.023438 11.785156 C 25.964844 11.96875 25.839844 12.0625 25.644531 12.0625 Z M 25.644531 12.0625 " fill-opacity="1" fill-rule="nonzero"></path><g clip-path="url(#910d6a33f4)"><path fill="#000000" d="M 18.898438 8.488281 C 18.785156 8.488281 18.695312 8.449219 18.617188 8.375 C 18.539062 8.296875 18.5 8.203125 18.5 8.09375 L 18.5 2.535156 L 11.355469 2.535156 L 11.355469 8.09375 C 11.355469 8.203125 11.316406 8.296875 11.238281 8.375 C 11.160156 8.449219 11.066406 8.488281 10.957031 8.488281 C 10.847656 8.488281 10.753906 8.449219 10.675781 8.375 C 10.601562 8.296875 10.5625 8.203125 10.5625 8.09375 L 10.5625 2.140625 C 10.5625 2.027344 10.601562 1.9375 10.675781 1.859375 C 10.753906 1.78125 10.847656 1.742188 10.957031 1.742188 L 18.898438 1.742188 C 19.007812 1.742188 19.101562 1.78125 19.175781 1.859375 C 19.253906 1.9375 19.292969 2.027344 19.292969 2.140625 L 19.292969 8.09375 C 19.292969 8.203125 19.253906 8.296875 19.175781 8.375 C 19.101562 8.449219 19.007812 8.488281 18.898438 8.488281 Z M 18.898438 8.488281 " fill-opacity="1" fill-rule="nonzero"></path></g><path fill="#000000" d="M 8.578125 12.0625 C 8.507812 12.0625 8.441406 12.042969 8.378906 12.007812 C 8.320312 11.972656 8.269531 11.925781 8.234375 11.867188 C 8.199219 11.804688 8.179688 11.738281 8.179688 11.667969 C 8.179688 11.597656 8.195312 11.535156 8.230469 11.472656 L 10.214844 7.898438 C 10.269531 7.804688 10.347656 7.742188 10.453125 7.710938 C 10.558594 7.679688 10.660156 7.691406 10.753906 7.746094 C 10.851562 7.800781 10.914062 7.878906 10.941406 7.984375 C 10.972656 8.089844 10.960938 8.191406 10.910156 8.285156 L 8.925781 11.859375 C 8.847656 11.996094 8.734375 12.0625 8.578125 12.0625 Z M 8.578125 12.0625 " fill-opacity="1" fill-rule="nonzero"></path><path fill="#000000" d="M 21.277344 12.0625 C 21.121094 12.0625 21.007812 11.996094 20.929688 11.859375 L 18.945312 8.285156 C 18.894531 8.191406 18.882812 8.089844 18.910156 7.984375 C 18.941406 7.878906 19.003906 7.800781 19.101562 7.746094 C 19.195312 7.691406 19.296875 7.679688 19.402344 7.710938 C 19.507812 7.742188 19.585938 7.804688 19.640625 7.898438 L 21.625 11.472656 C 21.660156 11.535156 21.675781 11.597656 21.675781 11.667969 C 21.675781 11.738281 21.65625 11.804688 21.621094 11.867188 C 21.585938 11.925781 21.535156 11.972656 21.476562 12.007812 C 21.414062 12.042969 21.347656 12.0625 21.277344 12.0625 Z M 21.277344 12.0625 " fill-opacity="1" fill-rule="nonzero"></path><path fill="#000000" d="M 18.5 13.648438 L 18.101562 13.648438 C 17.992188 13.648438 17.898438 13.609375 17.820312 13.535156 C 17.746094 13.457031 17.707031 13.363281 17.707031 13.253906 C 17.707031 13.144531 17.746094 13.050781 17.820312 12.972656 C 17.898438 12.894531 17.992188 12.855469 18.101562 12.855469 L 18.5 12.855469 C 18.609375 12.855469 18.703125 12.894531 18.78125 12.972656 C 18.859375 13.050781 18.898438 13.144531 18.898438 13.253906 C 18.898438 13.363281 18.859375 13.457031 18.78125 13.535156 C 18.703125 13.609375 18.609375 13.648438 18.5 13.648438 Z M 18.5 13.648438 " fill-opacity="1" fill-rule="nonzero"></path><path fill="#000000" d="M 20.085938 13.648438 L 19.691406 13.648438 C 19.582031 13.648438 19.488281 13.609375 19.410156 13.535156 C 19.332031 13.457031 19.292969 13.363281 19.292969 13.253906 C 19.292969 13.144531 19.332031 13.050781 19.410156 12.972656 C 19.488281 12.894531 19.582031 12.855469 19.691406 12.855469 L 20.085938 12.855469 C 20.195312 12.855469 20.289062 12.894531 20.367188 12.972656 C 20.445312 13.050781 20.484375 13.144531 20.484375 13.253906 C 20.484375 13.363281 20.445312 13.457031 20.367188 13.535156 C 20.289062 13.609375 20.195312 13.648438 20.085938 13.648438 Z M 20.085938 13.648438 " fill-opacity="1" fill-rule="nonzero"></path><path fill="#000000" d="M 22.070312 13.648438 L 21.675781 13.648438 C 21.566406 13.648438 21.472656 13.609375 21.394531 13.535156 C 21.316406 13.457031 21.277344 13.363281 21.277344 13.253906 C 21.277344 13.144531 21.316406 13.050781 21.394531 12.972656 C 21.472656 12.894531 21.566406 12.855469 21.675781 12.855469 L 22.070312 12.855469 C 22.183594 12.855469 22.273438 12.894531 22.351562 12.972656 C 22.429688 13.050781 22.46875 13.144531 22.46875 13.253906 C 22.46875 13.363281 22.429688 13.457031 22.351562 13.535156 C 22.273438 13.609375 22.183594 13.648438 22.070312 13.648438 Z M 22.070312 13.648438 " fill-opacity="1" fill-rule="nonzero"></path><g clip-path="url(#d25374853b)"><path fill="#000000" d="M 27.230469 27.144531 L 2.621094 27.144531 C 2.511719 27.144531 2.417969 27.105469 2.34375 27.027344 C 2.265625 26.953125 2.226562 26.859375 2.226562 26.75 C 2.226562 26.636719 2.265625 26.546875 2.34375 26.46875 C 2.417969 26.390625 2.511719 26.351562 2.621094 26.351562 L 27.230469 26.351562 C 27.339844 26.351562 27.433594 26.390625 27.511719 26.46875 C 27.589844 26.546875 27.628906 26.636719 27.628906 26.75 C 27.628906 26.859375 27.589844 26.953125 27.511719 27.027344 C 27.433594 27.105469 27.339844 27.144531 27.230469 27.144531 Z M 27.230469 27.144531 " fill-opacity="1" fill-rule="nonzero"></path></g><g clip-path="url(#69797162c3)"><path fill="#000000" d="M 24.058594 27.144531 C 23.945312 27.144531 23.855469 27.105469 23.777344 27.027344 C 23.699219 26.953125 23.660156 26.859375 23.660156 26.75 L 23.660156 25.953125 L 6.195312 25.953125 L 6.195312 26.75 C 6.195312 26.859375 6.15625 26.953125 6.078125 27.027344 C 6 27.105469 5.90625 27.144531 5.796875 27.144531 C 5.6875 27.144531 5.59375 27.105469 5.515625 27.027344 C 5.441406 26.953125 5.402344 26.859375 5.402344 26.75 L 5.402344 25.558594 C 5.402344 25.449219 5.441406 25.355469 5.515625 25.277344 C 5.59375 25.199219 5.6875 25.160156 5.796875 25.160156 L 24.058594 25.160156 C 24.167969 25.160156 24.261719 25.199219 24.335938 25.277344 C 24.414062 25.355469 24.453125 25.449219 24.453125 25.558594 L 24.453125 26.75 C 24.453125 26.859375 24.414062 26.953125 24.335938 27.027344 C 24.261719 27.105469 24.167969 27.144531 24.058594 27.144531 Z M 24.058594 27.144531 " fill-opacity="1" fill-rule="nonzero"></path></g><path fill="#000000" d="M 17.308594 25.953125 L 12.546875 25.953125 C 12.386719 25.953125 12.234375 25.925781 12.089844 25.863281 C 11.945312 25.804688 11.816406 25.71875 11.703125 25.605469 C 11.59375 25.492188 11.507812 25.363281 11.445312 25.21875 C 11.386719 25.074219 11.355469 24.921875 11.355469 24.761719 L 11.355469 22.382812 C 11.136719 22.382812 10.949219 22.304688 10.792969 22.148438 C 10.640625 21.996094 10.5625 21.808594 10.5625 21.589844 C 10.5625 21.367188 10.640625 21.183594 10.792969 21.027344 C 10.949219 20.871094 11.136719 20.792969 11.355469 20.792969 L 18.5 20.792969 C 18.71875 20.792969 18.90625 20.871094 19.0625 21.027344 C 19.214844 21.183594 19.292969 21.367188 19.292969 21.589844 C 19.292969 21.808594 19.214844 21.996094 19.0625 22.148438 C 18.90625 22.304688 18.71875 22.382812 18.5 22.382812 L 18.5 24.761719 C 18.5 24.921875 18.46875 25.074219 18.410156 25.21875 C 18.347656 25.363281 18.261719 25.492188 18.152344 25.605469 C 18.039062 25.71875 17.910156 25.804688 17.765625 25.863281 C 17.617188 25.925781 17.46875 25.953125 17.308594 25.953125 Z M 11.355469 21.589844 C 11.574219 21.589844 11.761719 21.664062 11.917969 21.820312 C 12.070312 21.976562 12.148438 22.164062 12.148438 22.382812 L 12.148438 24.761719 C 12.148438 24.875 12.1875 24.964844 12.265625 25.042969 C 12.34375 25.121094 12.4375 25.160156 12.546875 25.160156 L 17.308594 25.160156 C 17.417969 25.160156 17.511719 25.121094 17.589844 25.042969 C 17.667969 24.964844 17.707031 24.875 17.707031 24.761719 L 17.707031 22.382812 C 17.707031 22.164062 17.785156 21.976562 17.9375 21.820312 C 18.09375 21.664062 18.28125 21.589844 18.5 21.589844 Z M 11.355469 21.589844 " fill-opacity="1" fill-rule="nonzero"></path><path fill="#000000" d="M 14.53125 19.207031 C 14.421875 19.207031 14.328125 19.167969 14.25 19.089844 C 14.171875 19.011719 14.132812 18.917969 14.132812 18.808594 C 14.132812 18.367188 14.519531 18.175781 14.75 18.054688 L 14.832031 18.015625 L 14.75 17.972656 C 14.519531 17.855469 14.132812 17.664062 14.132812 17.222656 C 14.132812 16.777344 14.519531 16.585938 14.75 16.46875 C 14.8125 16.441406 14.875 16.40625 14.933594 16.371094 C 14.945312 16.269531 14.996094 16.183594 15.078125 16.121094 C 15.15625 16.054688 15.25 16.027344 15.351562 16.035156 C 15.457031 16.042969 15.542969 16.082031 15.613281 16.160156 C 15.683594 16.234375 15.722656 16.324219 15.722656 16.429688 C 15.722656 16.871094 15.335938 17.0625 15.105469 17.179688 L 15.023438 17.21875 C 15.050781 17.234375 15.082031 17.25 15.105469 17.261719 C 15.335938 17.378906 15.722656 17.570312 15.722656 18.015625 C 15.722656 18.460938 15.335938 18.652344 15.105469 18.769531 C 15.042969 18.796875 14.980469 18.832031 14.921875 18.867188 C 14.910156 18.964844 14.863281 19.046875 14.789062 19.109375 C 14.714844 19.175781 14.628906 19.207031 14.53125 19.207031 Z M 14.53125 19.207031 " fill-opacity="1" fill-rule="nonzero"></path><path fill="#000000" d="M 17.308594 20 C 17.199219 20 17.105469 19.960938 17.027344 19.882812 C 16.949219 19.808594 16.910156 19.714844 16.910156 19.605469 C 16.910156 19.160156 17.296875 18.96875 17.527344 18.847656 L 17.613281 18.808594 L 17.527344 18.769531 C 17.296875 18.652344 16.910156 18.457031 16.910156 18.015625 C 16.910156 17.574219 17.296875 17.378906 17.527344 17.265625 C 17.589844 17.234375 17.652344 17.203125 17.710938 17.164062 C 17.726562 17.0625 17.773438 16.980469 17.855469 16.914062 C 17.9375 16.847656 18.027344 16.820312 18.132812 16.828125 C 18.234375 16.835938 18.320312 16.875 18.394531 16.953125 C 18.464844 17.027344 18.5 17.117188 18.5 17.222656 C 18.5 17.664062 18.113281 17.855469 17.882812 17.972656 L 17.800781 18.011719 C 17.828125 18.027344 17.859375 18.042969 17.882812 18.054688 C 18.113281 18.175781 18.5 18.367188 18.5 18.808594 C 18.5 19.253906 18.113281 19.445312 17.882812 19.5625 C 17.820312 19.589844 17.761719 19.625 17.703125 19.660156 C 17.6875 19.757812 17.644531 19.839844 17.566406 19.902344 C 17.492188 19.96875 17.40625 20 17.308594 20 Z M 17.308594 20 " fill-opacity="1" fill-rule="nonzero"></path><path fill="#000000" d="M 11.753906 20 C 11.640625 20 11.550781 19.960938 11.472656 19.882812 C 11.394531 19.808594 11.355469 19.714844 11.355469 19.605469 C 11.355469 19.160156 11.742188 18.96875 11.972656 18.847656 L 12.054688 18.808594 L 11.972656 18.769531 C 11.742188 18.652344 11.355469 18.457031 11.355469 18.015625 C 11.355469 17.574219 11.742188 17.378906 11.972656 17.265625 C 12.035156 17.234375 12.09375 17.203125 12.152344 17.164062 C 12.167969 17.0625 12.21875 16.980469 12.296875 16.914062 C 12.378906 16.847656 12.472656 16.820312 12.574219 16.828125 C 12.679688 16.835938 12.765625 16.875 12.835938 16.953125 C 12.90625 17.027344 12.941406 17.117188 12.941406 17.222656 C 12.941406 17.664062 12.554688 17.855469 12.328125 17.972656 L 12.246094 18.011719 C 12.273438 18.027344 12.300781 18.042969 12.328125 18.054688 C 12.558594 18.175781 12.941406 18.367188 12.941406 18.808594 C 12.941406 19.253906 12.558594 19.445312 12.328125 19.5625 C 12.265625 19.589844 12.203125 19.625 12.144531 19.660156 C 12.128906 19.757812 12.085938 19.839844 12.011719 19.902344 C 11.9375 19.96875 11.851562 20 11.753906 20 Z M 11.753906 20 " fill-opacity="1" fill-rule="nonzero"></path></svg> 