<?xml version="1.0" encoding="UTF-8"?> <svg xmlns="http://www.w3.org/2000/svg" xmlns:xlink="http://www.w3.org/1999/xlink" width="40" zoomAndPan="magnify" viewBox="0 0 30 30.000001" height="40" preserveAspectRatio="xMidYMid meet" version="1.0"><defs><clipPath id="cda5a9ac73"><path d="M 5.355469 7 L 12 7 L 12 17 L 5.355469 17 Z M 5.355469 7 " clip-rule="nonzero"></path></clipPath><clipPath id="7e8cb2ac4c"><path d="M 5.355469 1.882812 L 24.949219 1.882812 L 24.949219 27.289062 L 5.355469 27.289062 Z M 5.355469 1.882812 " clip-rule="nonzero"></path></clipPath><clipPath id="c10fbd9e00"><path d="M 5.355469 1.882812 L 12 1.882812 L 12 9 L 5.355469 9 Z M 5.355469 1.882812 " clip-rule="nonzero"></path></clipPath><clipPath id="536a603a34"><path d="M 5.355469 1.882812 L 24.949219 1.882812 L 24.949219 27 L 5.355469 27 Z M 5.355469 1.882812 " clip-rule="nonzero"></path></clipPath><clipPath id="af283fd75f"><path d="M 5.355469 14 L 11 14 L 11 27.289062 L 5.355469 27.289062 Z M 5.355469 14 " clip-rule="nonzero"></path></clipPath></defs><g clip-path="url(#cda5a9ac73)"><path stroke-linecap="butt" transform="matrix(1.509217, 0, 0, 1.494307, 5.719745, 1.884405)" fill="none" stroke-linejoin="miter" d="M 0.498876 4.001102 L 3.501261 4.001102 L 3.501261 8.999237 L 0.498876 8.999237 Z M 0.498876 4.001102 " stroke="#000000" stroke-width="1" stroke-opacity="1" stroke-miterlimit="10"></path></g><g clip-path="url(#7e8cb2ac4c)"><path stroke-linecap="butt" transform="matrix(1.509217, 0, 0, 1.494307, 5.719745, 1.884405)" fill="none" stroke-linejoin="miter" d="M 12.001118 7.498751 L 12.001118 10.999013 L 9.500856 10.999013 L 9.500856 8.000655 L 3.501261 8.000655 L 3.501261 4.999683 L 9.500856 4.999683 C 9.832153 4.999683 10.15051 5.062421 10.455925 5.190511 C 10.763928 5.315988 11.033108 5.498974 11.26864 5.731628 C 11.501583 5.966895 11.682762 6.236146 11.809587 6.541995 C 11.936412 6.850457 12.001118 7.169376 12.001118 7.498751 Z M 12.001118 7.498751 " stroke="#000000" stroke-width="1" stroke-opacity="1" stroke-miterlimit="10"></path></g><g clip-path="url(#c10fbd9e00)"><path stroke-linecap="butt" transform="matrix(1.509217, 0, 0, 1.494307, 5.719745, 1.884405)" fill="none" stroke-linejoin="miter" d="M 0.498876 0.500839 L 3.501261 0.500839 L 3.501261 4.001102 L 0.498876 4.001102 Z M 0.498876 0.500839 " stroke="#000000" stroke-width="1" stroke-opacity="1" stroke-miterlimit="10"></path></g><g clip-path="url(#536a603a34)"><path stroke-linecap="butt" transform="matrix(1.509217, 0, 0, 1.494307, 5.719745, 1.884405)" fill="none" stroke-linejoin="miter" d="M 3.501261 0.500839 L 10.248864 0.500839 C 10.349806 0.500839 10.445572 0.519137 10.536161 0.558349 C 10.629338 0.594946 10.709575 0.649842 10.779458 0.720422 C 10.851929 0.791003 10.903694 0.872039 10.942518 0.963532 C 10.981342 1.055025 10.99946 1.151747 10.99946 1.251082 C 10.99946 1.350417 10.981342 1.444524 10.942518 1.536017 C 10.903694 1.630125 10.851929 1.711161 10.779458 1.779128 C 10.709575 1.849708 10.629338 1.904604 10.536161 1.943815 C 10.445572 1.980412 10.349806 1.998711 10.248864 1.998711 L 3.501261 1.998711 Z M 3.501261 0.500839 " stroke="#000000" stroke-width="1" stroke-opacity="1" stroke-miterlimit="10"></path></g><g clip-path="url(#af283fd75f)"><path stroke-linecap="butt" transform="matrix(1.509217, 0, 0, 1.494307, 5.719745, 1.884405)" fill="none" stroke-linejoin="miter" d="M 0.498876 8.999237 L 2.499603 8.999237 L 2.499603 16.499053 L 0.498876 16.499053 Z M 0.498876 8.999237 " stroke="#000000" stroke-width="1" stroke-opacity="1" stroke-miterlimit="10"></path></g></svg> 