<?xml version="1.0" encoding="UTF-8"?> <svg xmlns="http://www.w3.org/2000/svg" xmlns:xlink="http://www.w3.org/1999/xlink" width="40" zoomAndPan="magnify" viewBox="0 0 30 30.000001" height="40" preserveAspectRatio="xMidYMid meet" version="1.0"><defs><clipPath id="22677c20b7"><path d="M 2.234375 4.527344 L 27.636719 4.527344 L 27.636719 24.847656 L 2.234375 24.847656 Z M 2.234375 4.527344 " clip-rule="nonzero"></path></clipPath></defs><g clip-path="url(#22677c20b7)"><path fill="#000000" d="M 24.871094 4.527344 L 5 4.527344 C 4.632812 4.527344 4.28125 4.597656 3.941406 4.742188 C 3.605469 4.886719 3.308594 5.089844 3.046875 5.355469 C 2.789062 5.621094 2.589844 5.925781 2.449219 6.269531 C 2.308594 6.617188 2.238281 6.976562 2.238281 7.347656 L 2.238281 20.332031 C 2.238281 20.707031 2.308594 21.066406 2.449219 21.414062 C 2.589844 21.757812 2.789062 22.0625 3.046875 22.328125 C 3.308594 22.59375 3.605469 22.796875 3.941406 22.941406 C 4.28125 23.082031 4.632812 23.15625 5 23.15625 L 5 23.71875 C 5 23.871094 5.027344 24.015625 5.082031 24.152344 C 5.140625 24.289062 5.21875 24.414062 5.324219 24.519531 C 5.425781 24.625 5.546875 24.707031 5.679688 24.761719 C 5.816406 24.820312 5.957031 24.847656 6.101562 24.847656 L 7.757812 24.847656 C 7.90625 24.847656 8.046875 24.820312 8.183594 24.761719 C 8.316406 24.707031 8.4375 24.625 8.539062 24.519531 C 8.644531 24.414062 8.722656 24.289062 8.78125 24.152344 C 8.835938 24.015625 8.863281 23.871094 8.863281 23.71875 L 8.863281 23.15625 L 21.007812 23.15625 L 21.007812 23.71875 C 21.007812 23.871094 21.035156 24.015625 21.09375 24.152344 C 21.148438 24.289062 21.226562 24.414062 21.332031 24.519531 C 21.433594 24.625 21.554688 24.707031 21.691406 24.761719 C 21.824219 24.820312 21.964844 24.847656 22.113281 24.847656 L 23.769531 24.847656 C 23.914062 24.847656 24.054688 24.820312 24.191406 24.761719 C 24.328125 24.707031 24.445312 24.625 24.550781 24.519531 C 24.652344 24.414062 24.734375 24.289062 24.789062 24.152344 C 24.84375 24.015625 24.871094 23.871094 24.871094 23.71875 L 24.871094 23.15625 C 25.238281 23.15625 25.589844 23.082031 25.929688 22.941406 C 26.265625 22.796875 26.566406 22.59375 26.824219 22.328125 C 27.082031 22.0625 27.28125 21.757812 27.421875 21.414062 C 27.5625 21.066406 27.632812 20.707031 27.632812 20.332031 L 27.632812 7.347656 C 27.632812 6.976562 27.5625 6.617188 27.421875 6.269531 C 27.28125 5.925781 27.082031 5.621094 26.824219 5.355469 C 26.566406 5.089844 26.265625 4.886719 25.929688 4.742188 C 25.589844 4.597656 25.238281 4.527344 24.871094 4.527344 Z M 7.757812 23.71875 L 6.101562 23.71875 L 6.101562 23.15625 L 7.757812 23.15625 Z M 23.769531 23.71875 L 22.113281 23.71875 L 22.113281 23.15625 L 23.769531 23.15625 Z M 26.527344 20.332031 C 26.527344 20.558594 26.488281 20.773438 26.402344 20.980469 C 26.320312 21.1875 26.199219 21.371094 26.042969 21.53125 C 25.886719 21.691406 25.710938 21.8125 25.507812 21.898438 C 25.304688 21.984375 25.09375 22.027344 24.871094 22.027344 L 5 22.027344 C 4.78125 22.027344 4.566406 21.984375 4.367188 21.898438 C 4.164062 21.8125 3.984375 21.691406 3.828125 21.53125 C 3.671875 21.371094 3.554688 21.1875 3.46875 20.980469 C 3.386719 20.773438 3.34375 20.558594 3.34375 20.332031 L 3.34375 7.347656 C 3.34375 7.125 3.386719 6.910156 3.46875 6.703125 C 3.554688 6.492188 3.671875 6.3125 3.828125 6.152344 C 3.984375 5.992188 4.164062 5.871094 4.367188 5.785156 C 4.566406 5.699219 4.78125 5.65625 5 5.65625 L 24.871094 5.65625 C 25.09375 5.65625 25.304688 5.699219 25.507812 5.785156 C 25.710938 5.871094 25.886719 5.992188 26.042969 6.152344 C 26.199219 6.3125 26.320312 6.492188 26.402344 6.703125 C 26.488281 6.910156 26.527344 7.125 26.527344 7.347656 Z M 26.527344 20.332031 " fill-opacity="1" fill-rule="nonzero"></path></g><path fill="#000000" d="M 18.800781 6.785156 L 6.101562 6.785156 C 5.882812 6.785156 5.671875 6.828125 5.46875 6.914062 C 5.265625 7 5.085938 7.121094 4.933594 7.28125 C 4.777344 7.441406 4.65625 7.621094 4.574219 7.832031 C 4.488281 8.039062 4.445312 8.253906 4.445312 8.476562 L 4.445312 19.203125 C 4.445312 19.429688 4.488281 19.644531 4.574219 19.851562 C 4.65625 20.058594 4.777344 20.242188 4.933594 20.402344 C 5.085938 20.5625 5.265625 20.683594 5.46875 20.769531 C 5.671875 20.855469 5.882812 20.898438 6.101562 20.898438 L 18.800781 20.898438 C 19.019531 20.898438 19.230469 20.855469 19.433594 20.769531 C 19.636719 20.683594 19.816406 20.5625 19.972656 20.402344 C 20.125 20.242188 20.246094 20.058594 20.332031 19.851562 C 20.414062 19.644531 20.457031 19.429688 20.457031 19.203125 L 20.457031 8.476562 C 20.457031 8.253906 20.414062 8.039062 20.332031 7.832031 C 20.246094 7.621094 20.125 7.441406 19.972656 7.28125 C 19.816406 7.121094 19.636719 7 19.433594 6.914062 C 19.230469 6.828125 19.019531 6.785156 18.800781 6.785156 Z M 19.351562 19.203125 C 19.351562 19.359375 19.296875 19.492188 19.191406 19.601562 C 19.082031 19.714844 18.953125 19.769531 18.800781 19.769531 L 6.101562 19.769531 C 5.949219 19.769531 5.820312 19.714844 5.710938 19.601562 C 5.605469 19.492188 5.550781 19.359375 5.550781 19.203125 L 5.550781 8.476562 C 5.550781 8.324219 5.605469 8.191406 5.710938 8.078125 C 5.820312 7.96875 5.949219 7.914062 6.101562 7.914062 L 18.800781 7.914062 C 18.953125 7.914062 19.082031 7.96875 19.191406 8.078125 C 19.296875 8.191406 19.351562 8.324219 19.351562 8.476562 Z M 19.351562 19.203125 " fill-opacity="1" fill-rule="nonzero"></path><path fill="#000000" d="M 10.910156 11.464844 C 10.800781 11.359375 10.671875 11.308594 10.519531 11.308594 C 10.371094 11.308594 10.242188 11.363281 10.136719 11.472656 C 10.03125 11.582031 9.976562 11.714844 9.972656 11.867188 C 9.972656 12.023438 10.023438 12.152344 10.128906 12.265625 L 13.441406 15.652344 C 13.550781 15.757812 13.679688 15.8125 13.828125 15.808594 C 13.980469 15.808594 14.109375 15.753906 14.214844 15.644531 C 14.320312 15.535156 14.375 15.40625 14.378906 15.25 C 14.378906 15.097656 14.328125 14.964844 14.222656 14.855469 Z M 10.910156 11.464844 " fill-opacity="1" fill-rule="nonzero"></path><path fill="#000000" d="M 14.773438 12.03125 C 14.664062 11.925781 14.535156 11.871094 14.386719 11.871094 C 14.234375 11.875 14.105469 11.929688 14 12.039062 C 13.894531 12.148438 13.839844 12.277344 13.839844 12.433594 C 13.835938 12.585938 13.890625 12.71875 13.992188 12.828125 L 15.648438 14.523438 C 15.757812 14.628906 15.886719 14.683594 16.039062 14.679688 C 16.1875 14.679688 16.316406 14.625 16.421875 14.515625 C 16.53125 14.40625 16.582031 14.277344 16.585938 14.121094 C 16.585938 13.96875 16.535156 13.835938 16.429688 13.722656 Z M 14.773438 12.03125 " fill-opacity="1" fill-rule="nonzero"></path><path fill="#000000" d="M 9.253906 13.160156 C 9.144531 13.054688 9.015625 13 8.867188 13 C 8.714844 13.003906 8.585938 13.058594 8.480469 13.167969 C 8.375 13.277344 8.320312 13.40625 8.316406 13.5625 C 8.316406 13.714844 8.367188 13.847656 8.472656 13.957031 L 9.578125 15.085938 C 9.683594 15.195312 9.816406 15.246094 9.964844 15.246094 C 10.117188 15.246094 10.246094 15.1875 10.351562 15.082031 C 10.457031 14.972656 10.511719 14.839844 10.511719 14.6875 C 10.515625 14.53125 10.460938 14.398438 10.359375 14.289062 Z M 9.253906 13.160156 " fill-opacity="1" fill-rule="nonzero"></path><path fill="#000000" d="M 24.320312 6.785156 L 22.664062 6.785156 C 22.519531 6.785156 22.378906 6.8125 22.242188 6.871094 C 22.105469 6.929688 21.988281 7.011719 21.882812 7.117188 C 21.78125 7.222656 21.699219 7.34375 21.644531 7.480469 C 21.589844 7.621094 21.558594 7.765625 21.558594 7.914062 L 21.558594 9.042969 C 21.558594 9.191406 21.589844 9.335938 21.644531 9.476562 C 21.699219 9.613281 21.78125 9.734375 21.882812 9.839844 C 21.988281 9.945312 22.105469 10.027344 22.242188 10.085938 C 22.378906 10.144531 22.519531 10.171875 22.664062 10.171875 L 24.320312 10.171875 C 24.46875 10.171875 24.609375 10.144531 24.742188 10.085938 C 24.878906 10.027344 24.996094 9.945312 25.101562 9.839844 C 25.203125 9.734375 25.285156 9.613281 25.339844 9.476562 C 25.398438 9.335938 25.425781 9.191406 25.425781 9.042969 L 25.425781 7.914062 C 25.425781 7.765625 25.398438 7.621094 25.339844 7.480469 C 25.285156 7.34375 25.203125 7.222656 25.101562 7.117188 C 24.996094 7.011719 24.878906 6.929688 24.742188 6.871094 C 24.609375 6.8125 24.46875 6.785156 24.320312 6.785156 Z M 24.320312 9.042969 L 22.664062 9.042969 L 22.664062 7.914062 L 24.320312 7.914062 Z M 24.320312 9.042969 " fill-opacity="1" fill-rule="nonzero"></path><path fill="#000000" d="M 23.492188 16.945312 C 23.234375 16.945312 22.988281 16.996094 22.753906 17.097656 C 22.515625 17.195312 22.308594 17.339844 22.125 17.523438 C 21.945312 17.710938 21.804688 17.925781 21.707031 18.164062 C 21.609375 18.40625 21.558594 18.660156 21.558594 18.921875 C 21.558594 19.183594 21.609375 19.4375 21.707031 19.679688 C 21.804688 19.921875 21.945312 20.132812 22.125 20.320312 C 22.308594 20.503906 22.515625 20.648438 22.753906 20.746094 C 22.988281 20.847656 23.234375 20.898438 23.492188 20.898438 C 23.75 20.898438 23.996094 20.847656 24.230469 20.746094 C 24.46875 20.648438 24.675781 20.503906 24.859375 20.320312 C 25.039062 20.132812 25.179688 19.921875 25.277344 19.679688 C 25.375 19.4375 25.425781 19.183594 25.425781 18.921875 C 25.425781 18.660156 25.375 18.40625 25.277344 18.164062 C 25.179688 17.925781 25.039062 17.710938 24.859375 17.523438 C 24.675781 17.339844 24.46875 17.195312 24.230469 17.097656 C 23.996094 16.996094 23.75 16.945312 23.492188 16.945312 Z M 23.492188 19.769531 C 23.265625 19.769531 23.070312 19.6875 22.90625 19.519531 C 22.746094 19.355469 22.664062 19.15625 22.664062 18.921875 C 22.664062 18.6875 22.746094 18.488281 22.90625 18.324219 C 23.070312 18.15625 23.265625 18.074219 23.492188 18.074219 C 23.722656 18.074219 23.917969 18.15625 24.078125 18.324219 C 24.238281 18.488281 24.320312 18.6875 24.320312 18.921875 C 24.320312 19.15625 24.238281 19.355469 24.078125 19.519531 C 23.917969 19.6875 23.722656 19.769531 23.492188 19.769531 Z M 23.492188 19.769531 " fill-opacity="1" fill-rule="nonzero"></path><path fill="#000000" d="M 23.214844 11.300781 C 23.214844 11.457031 23.164062 11.589844 23.054688 11.699219 C 22.945312 11.808594 22.816406 11.867188 22.664062 11.867188 C 22.511719 11.867188 22.382812 11.808594 22.273438 11.699219 C 22.167969 11.589844 22.113281 11.457031 22.113281 11.300781 C 22.113281 11.144531 22.167969 11.011719 22.273438 10.902344 C 22.382812 10.792969 22.511719 10.738281 22.664062 10.738281 C 22.816406 10.738281 22.945312 10.792969 23.054688 10.902344 C 23.164062 11.011719 23.214844 11.144531 23.214844 11.300781 Z M 23.214844 11.300781 " fill-opacity="1" fill-rule="nonzero"></path><path fill="#000000" d="M 24.871094 11.300781 C 24.871094 11.457031 24.820312 11.589844 24.710938 11.699219 C 24.601562 11.808594 24.472656 11.867188 24.320312 11.867188 C 24.167969 11.867188 24.039062 11.808594 23.929688 11.699219 C 23.824219 11.589844 23.769531 11.457031 23.769531 11.300781 C 23.769531 11.144531 23.824219 11.011719 23.929688 10.902344 C 24.039062 10.792969 24.167969 10.738281 24.320312 10.738281 C 24.472656 10.738281 24.601562 10.792969 24.710938 10.902344 C 24.820312 11.011719 24.871094 11.144531 24.871094 11.300781 Z M 24.871094 11.300781 " fill-opacity="1" fill-rule="nonzero"></path><path fill="#000000" d="M 23.214844 12.996094 C 23.214844 13.152344 23.164062 13.285156 23.054688 13.394531 C 22.945312 13.503906 22.816406 13.558594 22.664062 13.558594 C 22.511719 13.558594 22.382812 13.503906 22.273438 13.394531 C 22.167969 13.285156 22.113281 13.152344 22.113281 12.996094 C 22.113281 12.839844 22.167969 12.707031 22.273438 12.59375 C 22.382812 12.484375 22.511719 12.429688 22.664062 12.429688 C 22.816406 12.429688 22.945312 12.484375 23.054688 12.59375 C 23.164062 12.707031 23.214844 12.839844 23.214844 12.996094 Z M 23.214844 12.996094 " fill-opacity="1" fill-rule="nonzero"></path><path fill="#000000" d="M 24.871094 12.996094 C 24.871094 13.152344 24.820312 13.285156 24.710938 13.394531 C 24.601562 13.503906 24.472656 13.558594 24.320312 13.558594 C 24.167969 13.558594 24.039062 13.503906 23.929688 13.394531 C 23.824219 13.285156 23.769531 13.152344 23.769531 12.996094 C 23.769531 12.839844 23.824219 12.707031 23.929688 12.59375 C 24.039062 12.484375 24.167969 12.429688 24.320312 12.429688 C 24.472656 12.429688 24.601562 12.484375 24.710938 12.59375 C 24.820312 12.707031 24.871094 12.839844 24.871094 12.996094 Z M 24.871094 12.996094 " fill-opacity="1" fill-rule="nonzero"></path><path fill="#000000" d="M 23.214844 14.6875 C 23.214844 14.84375 23.164062 14.976562 23.054688 15.085938 C 22.945312 15.199219 22.816406 15.253906 22.664062 15.253906 C 22.511719 15.253906 22.382812 15.199219 22.273438 15.085938 C 22.167969 14.976562 22.113281 14.84375 22.113281 14.6875 C 22.113281 14.53125 22.167969 14.398438 22.273438 14.289062 C 22.382812 14.179688 22.511719 14.125 22.664062 14.125 C 22.816406 14.125 22.945312 14.179688 23.054688 14.289062 C 23.164062 14.398438 23.214844 14.53125 23.214844 14.6875 Z M 23.214844 14.6875 " fill-opacity="1" fill-rule="nonzero"></path><path fill="#000000" d="M 24.871094 14.6875 C 24.871094 14.84375 24.820312 14.976562 24.710938 15.085938 C 24.601562 15.199219 24.472656 15.253906 24.320312 15.253906 C 24.167969 15.253906 24.039062 15.199219 23.929688 15.085938 C 23.824219 14.976562 23.769531 14.84375 23.769531 14.6875 C 23.769531 14.53125 23.824219 14.398438 23.929688 14.289062 C 24.039062 14.179688 24.167969 14.125 24.320312 14.125 C 24.472656 14.125 24.601562 14.179688 24.710938 14.289062 C 24.820312 14.398438 24.871094 14.53125 24.871094 14.6875 Z M 24.871094 14.6875 " fill-opacity="1" fill-rule="nonzero"></path></svg> 