<?xml version="1.0" encoding="UTF-8"?> <svg xmlns="http://www.w3.org/2000/svg" xmlns:xlink="http://www.w3.org/1999/xlink" width="40" zoomAndPan="magnify" viewBox="0 0 30 30.000001" height="40" preserveAspectRatio="xMidYMid meet" version="1.0"><defs><clipPath id="690f8d08af"><path d="M 3.386719 2.242188 L 26.613281 2.242188 L 26.613281 26.921875 L 3.386719 26.921875 Z M 3.386719 2.242188 " clip-rule="nonzero"></path></clipPath></defs><path fill="#231f20" d="M 24.183594 17.964844 C 24.359375 17.964844 24.503906 18.105469 24.503906 18.285156 L 24.503906 19.636719 C 24.503906 19.8125 24.359375 19.957031 24.183594 19.957031 C 24.007812 19.957031 23.863281 19.8125 23.863281 19.636719 L 23.863281 18.285156 C 23.863281 18.105469 24.007812 17.964844 24.183594 17.964844 " fill-opacity="1" fill-rule="nonzero"></path><path fill="#231f20" d="M 21.878906 17.964844 C 22.054688 17.964844 22.199219 18.105469 22.199219 18.285156 L 22.199219 19.636719 C 22.199219 19.8125 22.054688 19.957031 21.878906 19.957031 C 21.703125 19.957031 21.5625 19.8125 21.5625 19.636719 L 21.5625 18.285156 C 21.5625 18.105469 21.703125 17.964844 21.878906 17.964844 " fill-opacity="1" fill-rule="nonzero"></path><path fill="#231f20" d="M 19.574219 17.964844 C 19.75 17.964844 19.894531 18.105469 19.894531 18.285156 L 19.894531 19.636719 C 19.894531 19.8125 19.75 19.957031 19.574219 19.957031 C 19.398438 19.957031 19.257812 19.8125 19.257812 19.636719 L 19.257812 18.285156 C 19.257812 18.105469 19.398438 17.964844 19.574219 17.964844 " fill-opacity="1" fill-rule="nonzero"></path><path fill="#231f20" d="M 17.269531 17.964844 C 17.445312 17.964844 17.589844 18.105469 17.589844 18.285156 L 17.589844 19.636719 C 17.589844 19.8125 17.445312 19.957031 17.269531 19.957031 C 17.09375 19.957031 16.953125 19.8125 16.953125 19.636719 L 16.953125 18.285156 C 16.953125 18.105469 17.09375 17.964844 17.269531 17.964844 " fill-opacity="1" fill-rule="nonzero"></path><path fill="#231f20" d="M 14.96875 17.964844 C 15.144531 17.964844 15.285156 18.105469 15.285156 18.285156 L 15.285156 19.636719 C 15.285156 19.8125 15.144531 19.957031 14.96875 19.957031 C 14.789062 19.957031 14.648438 19.8125 14.648438 19.636719 L 14.648438 18.285156 C 14.648438 18.105469 14.789062 17.964844 14.96875 17.964844 " fill-opacity="1" fill-rule="nonzero"></path><path fill="#231f20" d="M 12.367188 17.964844 C 12.542969 17.964844 12.683594 18.105469 12.683594 18.285156 L 12.683594 19.636719 C 12.683594 19.8125 12.542969 19.957031 12.367188 19.957031 C 12.1875 19.957031 12.046875 19.8125 12.046875 19.636719 L 12.046875 18.285156 C 12.046875 18.105469 12.1875 17.964844 12.367188 17.964844 " fill-opacity="1" fill-rule="nonzero"></path><g clip-path="url(#690f8d08af)"><path fill="#231f20" d="M 4.980469 24.496094 C 4.980469 24.9375 5.339844 25.300781 5.777344 25.300781 C 6.21875 25.300781 6.574219 24.9375 6.574219 24.496094 L 6.574219 9.210938 C 6.574219 7.148438 8.246094 5.46875 10.300781 5.46875 L 13.691406 5.46875 C 15.582031 5.46875 17.140625 6.890625 17.378906 8.726562 L 18.984375 8.726562 C 18.738281 6.003906 16.460938 3.863281 13.691406 3.863281 L 10.300781 3.863281 C 7.367188 3.863281 4.980469 6.261719 4.980469 9.210938 Z M 24.085938 15.960938 L 20.699219 11.765625 L 15.847656 11.765625 L 12.460938 15.960938 Z M 17.007812 10.328125 L 16.367188 11.125 L 20.183594 11.125 L 19.539062 10.328125 Z M 10.300781 2.261719 L 13.691406 2.261719 C 17.464844 2.261719 20.542969 5.320312 20.601562 9.101562 L 26.378906 16.257812 C 26.574219 16.496094 26.613281 16.828125 26.480469 17.105469 C 26.347656 17.386719 26.070312 17.5625 25.761719 17.5625 L 10.789062 17.5625 C 10.480469 17.5625 10.199219 17.386719 10.066406 17.105469 C 9.933594 16.828125 9.972656 16.496094 10.167969 16.257812 L 15.824219 9.253906 C 15.820312 9.242188 15.820312 9.226562 15.820312 9.210938 C 15.820312 8.03125 14.863281 7.070312 13.691406 7.070312 L 10.300781 7.070312 C 9.125 7.070312 8.171875 8.03125 8.171875 9.210938 L 8.171875 24.496094 C 8.171875 25.824219 7.097656 26.902344 5.777344 26.902344 C 4.457031 26.902344 3.386719 25.824219 3.386719 24.496094 L 3.386719 9.210938 C 3.386719 5.378906 6.488281 2.261719 10.300781 2.261719 " fill-opacity="1" fill-rule="nonzero"></path></g><path fill="#231f20" d="M 20.589844 12.652344 C 20.726562 12.542969 20.925781 12.5625 21.039062 12.699219 L 22.96875 15.09375 C 23.082031 15.230469 23.058594 15.433594 22.921875 15.542969 C 22.863281 15.59375 22.792969 15.617188 22.722656 15.617188 C 22.628906 15.617188 22.539062 15.574219 22.476562 15.496094 L 20.542969 13.105469 C 20.433594 12.96875 20.453125 12.765625 20.589844 12.652344 " fill-opacity="1" fill-rule="nonzero"></path></svg> 