<?xml version="1.0" encoding="UTF-8"?> <svg xmlns="http://www.w3.org/2000/svg" xmlns:xlink="http://www.w3.org/1999/xlink" width="40" zoomAndPan="magnify" viewBox="0 0 30 30.000001" height="40" preserveAspectRatio="xMidYMid meet" version="1.0"><defs><clipPath id="277e2848e6"><path d="M 2.046875 3.8125 L 28.175781 3.8125 L 28.175781 23 L 2.046875 23 Z M 2.046875 3.8125 " clip-rule="nonzero"></path></clipPath><clipPath id="393bb521fc"><path d="M 3 21 L 7 21 L 7 24.863281 L 3 24.863281 Z M 3 21 " clip-rule="nonzero"></path></clipPath><clipPath id="66aa7d3b7d"><path d="M 23 21 L 28 21 L 28 24.863281 L 23 24.863281 Z M 23 21 " clip-rule="nonzero"></path></clipPath><clipPath id="a0024f7f9b"><path d="M 17 3.8125 L 20 3.8125 L 20 23 L 17 23 Z M 17 3.8125 " clip-rule="nonzero"></path></clipPath></defs><g clip-path="url(#277e2848e6)"><path fill="#000000" d="M 27.039062 22.644531 L 3.183594 22.644531 C 3.03125 22.644531 2.886719 22.617188 2.75 22.5625 C 2.609375 22.503906 2.488281 22.425781 2.378906 22.320312 C 2.273438 22.21875 2.191406 22.097656 2.132812 21.960938 C 2.078125 21.828125 2.046875 21.683594 2.046875 21.539062 L 2.046875 4.921875 C 2.046875 4.777344 2.078125 4.636719 2.132812 4.5 C 2.191406 4.363281 2.273438 4.242188 2.378906 4.140625 C 2.488281 4.035156 2.609375 3.957031 2.75 3.898438 C 2.886719 3.84375 3.03125 3.816406 3.183594 3.816406 L 27.039062 3.816406 C 27.191406 3.816406 27.335938 3.84375 27.476562 3.898438 C 27.613281 3.957031 27.738281 4.035156 27.84375 4.140625 C 27.949219 4.242188 28.03125 4.363281 28.089844 4.5 C 28.148438 4.636719 28.175781 4.777344 28.175781 4.921875 L 28.175781 21.539062 C 28.175781 21.683594 28.148438 21.828125 28.089844 21.960938 C 28.03125 22.097656 27.949219 22.21875 27.84375 22.320312 C 27.738281 22.425781 27.613281 22.503906 27.476562 22.5625 C 27.335938 22.617188 27.191406 22.644531 27.039062 22.644531 Z M 3.183594 4.921875 L 3.183594 21.539062 L 27.042969 21.539062 L 27.039062 4.921875 Z M 3.183594 4.921875 " fill-opacity="1" fill-rule="nonzero"></path></g><g clip-path="url(#393bb521fc)"><path fill="#000000" d="M 5.457031 24.863281 L 4.320312 24.863281 C 4.167969 24.859375 4.023438 24.832031 3.886719 24.777344 C 3.746094 24.71875 3.625 24.640625 3.515625 24.535156 C 3.410156 24.433594 3.328125 24.3125 3.269531 24.175781 C 3.210938 24.042969 3.183594 23.902344 3.183594 23.753906 L 3.183594 22.09375 C 3.183594 21.9375 3.238281 21.808594 3.351562 21.699219 C 3.460938 21.59375 3.59375 21.539062 3.75 21.539062 L 6.023438 21.539062 C 6.179688 21.539062 6.316406 21.59375 6.425781 21.699219 C 6.535156 21.808594 6.59375 21.9375 6.59375 22.09375 L 6.59375 23.753906 C 6.589844 23.902344 6.5625 24.042969 6.503906 24.175781 C 6.449219 24.3125 6.367188 24.433594 6.257812 24.535156 C 6.152344 24.640625 6.03125 24.71875 5.890625 24.777344 C 5.75 24.832031 5.605469 24.859375 5.457031 24.863281 Z M 4.320312 22.644531 L 4.320312 23.753906 L 5.457031 23.753906 L 5.457031 22.644531 Z M 4.320312 22.644531 " fill-opacity="1" fill-rule="nonzero"></path></g><g clip-path="url(#66aa7d3b7d)"><path fill="#000000" d="M 25.90625 24.863281 L 24.769531 24.863281 C 24.617188 24.859375 24.472656 24.832031 24.335938 24.777344 C 24.195312 24.71875 24.070312 24.640625 23.964844 24.535156 C 23.859375 24.433594 23.777344 24.3125 23.71875 24.175781 C 23.660156 24.042969 23.632812 23.902344 23.632812 23.753906 L 23.632812 22.09375 C 23.632812 21.9375 23.6875 21.808594 23.800781 21.699219 C 23.910156 21.59375 24.042969 21.539062 24.199219 21.539062 L 26.472656 21.539062 C 26.628906 21.539062 26.761719 21.59375 26.875 21.699219 C 26.984375 21.808594 27.039062 21.9375 27.039062 22.09375 L 27.039062 23.753906 C 27.039062 23.902344 27.011719 24.042969 26.953125 24.175781 C 26.894531 24.3125 26.8125 24.433594 26.707031 24.535156 C 26.601562 24.640625 26.476562 24.71875 26.339844 24.777344 C 26.199219 24.832031 26.054688 24.859375 25.90625 24.863281 Z M 24.769531 22.644531 L 24.769531 23.753906 L 25.90625 23.753906 L 25.90625 22.644531 Z M 24.769531 22.644531 " fill-opacity="1" fill-rule="nonzero"></path></g><g clip-path="url(#a0024f7f9b)"><path fill="#000000" d="M 18.519531 22.644531 C 18.363281 22.644531 18.230469 22.59375 18.117188 22.484375 C 18.007812 22.375 17.953125 22.246094 17.953125 22.09375 L 17.953125 4.371094 C 17.953125 4.214844 18.007812 4.085938 18.117188 3.976562 C 18.230469 3.871094 18.363281 3.816406 18.519531 3.816406 C 18.675781 3.816406 18.8125 3.871094 18.921875 3.976562 C 19.03125 4.085938 19.089844 4.214844 19.089844 4.371094 L 19.089844 22.09375 C 19.089844 22.246094 19.03125 22.375 18.921875 22.484375 C 18.8125 22.59375 18.675781 22.644531 18.519531 22.644531 Z M 18.519531 22.644531 " fill-opacity="1" fill-rule="nonzero"></path></g><path fill="#000000" d="M 25.335938 9.90625 L 20.792969 9.90625 C 20.636719 9.90625 20.5 9.855469 20.390625 9.746094 C 20.28125 9.636719 20.222656 9.507812 20.222656 9.355469 L 20.222656 6.585938 C 20.222656 6.433594 20.28125 6.300781 20.390625 6.191406 C 20.5 6.085938 20.636719 6.03125 20.792969 6.03125 L 25.335938 6.03125 C 25.492188 6.03125 25.628906 6.085938 25.738281 6.191406 C 25.847656 6.300781 25.90625 6.433594 25.90625 6.585938 L 25.90625 9.355469 C 25.90625 9.507812 25.847656 9.636719 25.738281 9.746094 C 25.628906 9.855469 25.492188 9.90625 25.335938 9.90625 Z M 21.359375 8.800781 L 24.769531 8.800781 L 24.769531 7.136719 L 21.359375 7.136719 Z M 21.359375 8.800781 " fill-opacity="1" fill-rule="nonzero"></path><path fill="#000000" d="M 21.929688 12.125 L 20.792969 12.125 C 20.636719 12.125 20.5 12.070312 20.390625 11.960938 C 20.28125 11.851562 20.222656 11.722656 20.222656 11.570312 C 20.222656 11.417969 20.28125 11.285156 20.390625 11.175781 C 20.5 11.070312 20.636719 11.015625 20.792969 11.015625 L 21.929688 11.015625 C 22.085938 11.015625 22.21875 11.070312 22.332031 11.175781 C 22.441406 11.285156 22.496094 11.417969 22.496094 11.570312 C 22.496094 11.722656 22.441406 11.851562 22.332031 11.960938 C 22.21875 12.070312 22.085938 12.125 21.929688 12.125 Z M 21.929688 12.125 " fill-opacity="1" fill-rule="nonzero"></path><path fill="#000000" d="M 25.335938 12.125 L 24.199219 12.125 C 24.042969 12.125 23.910156 12.070312 23.800781 11.960938 C 23.6875 11.851562 23.632812 11.722656 23.632812 11.570312 C 23.632812 11.417969 23.6875 11.285156 23.800781 11.175781 C 23.910156 11.070312 24.042969 11.015625 24.199219 11.015625 L 25.335938 11.015625 C 25.492188 11.015625 25.628906 11.070312 25.738281 11.175781 C 25.847656 11.285156 25.90625 11.417969 25.90625 11.570312 C 25.90625 11.722656 25.847656 11.851562 25.738281 11.960938 C 25.628906 12.070312 25.492188 12.125 25.335938 12.125 Z M 25.335938 12.125 " fill-opacity="1" fill-rule="nonzero"></path><path fill="#000000" d="M 21.929688 14.339844 L 20.792969 14.339844 C 20.636719 14.339844 20.5 14.285156 20.390625 14.175781 C 20.28125 14.066406 20.222656 13.9375 20.222656 13.785156 C 20.222656 13.632812 20.28125 13.5 20.390625 13.394531 C 20.5 13.285156 20.636719 13.230469 20.792969 13.230469 L 21.929688 13.230469 C 22.085938 13.230469 22.21875 13.285156 22.332031 13.394531 C 22.441406 13.5 22.496094 13.632812 22.496094 13.785156 C 22.496094 13.9375 22.441406 14.066406 22.332031 14.175781 C 22.21875 14.285156 22.085938 14.339844 21.929688 14.339844 Z M 21.929688 14.339844 " fill-opacity="1" fill-rule="nonzero"></path><path fill="#000000" d="M 25.335938 14.339844 L 24.199219 14.339844 C 24.042969 14.339844 23.910156 14.285156 23.800781 14.175781 C 23.6875 14.066406 23.632812 13.9375 23.632812 13.785156 C 23.632812 13.632812 23.6875 13.5 23.800781 13.394531 C 23.910156 13.285156 24.042969 13.230469 24.199219 13.230469 L 25.335938 13.230469 C 25.492188 13.230469 25.628906 13.285156 25.738281 13.394531 C 25.847656 13.5 25.90625 13.632812 25.90625 13.785156 C 25.90625 13.9375 25.847656 14.066406 25.738281 14.175781 C 25.628906 14.285156 25.492188 14.339844 25.335938 14.339844 Z M 25.335938 14.339844 " fill-opacity="1" fill-rule="nonzero"></path><path fill="#000000" d="M 16.25 20.429688 L 4.886719 20.429688 C 4.730469 20.429688 4.597656 20.375 4.484375 20.269531 C 4.375 20.160156 4.320312 20.03125 4.320312 19.875 L 4.320312 6.585938 C 4.320312 6.433594 4.375 6.300781 4.484375 6.191406 C 4.597656 6.085938 4.730469 6.03125 4.886719 6.03125 L 16.25 6.03125 C 16.40625 6.03125 16.539062 6.085938 16.648438 6.191406 C 16.761719 6.300781 16.816406 6.433594 16.816406 6.585938 L 16.816406 19.875 C 16.816406 20.03125 16.761719 20.160156 16.648438 20.269531 C 16.539062 20.375 16.40625 20.429688 16.25 20.429688 Z M 5.457031 19.324219 L 15.679688 19.324219 L 15.679688 7.136719 L 5.457031 7.136719 Z M 5.457031 19.324219 " fill-opacity="1" fill-rule="nonzero"></path><path fill="#000000" d="M 23.066406 20.429688 C 22.761719 20.429688 22.472656 20.375 22.195312 20.261719 C 21.917969 20.148438 21.671875 19.988281 21.457031 19.78125 C 21.246094 19.574219 21.082031 19.335938 20.964844 19.0625 C 20.851562 18.792969 20.792969 18.507812 20.792969 18.214844 C 20.792969 17.921875 20.851562 17.640625 20.964844 17.367188 C 21.082031 17.097656 21.246094 16.855469 21.457031 16.648438 C 21.671875 16.441406 21.917969 16.28125 22.195312 16.167969 C 22.472656 16.054688 22.761719 16 23.066406 16 C 23.367188 16 23.65625 16.054688 23.933594 16.167969 C 24.210938 16.28125 24.457031 16.441406 24.671875 16.648438 C 24.882812 16.855469 25.046875 17.097656 25.164062 17.367188 C 25.277344 17.640625 25.335938 17.921875 25.335938 18.214844 C 25.335938 18.507812 25.277344 18.792969 25.164062 19.0625 C 25.046875 19.335938 24.882812 19.574219 24.671875 19.78125 C 24.457031 19.988281 24.210938 20.148438 23.933594 20.261719 C 23.65625 20.375 23.367188 20.429688 23.066406 20.429688 Z M 23.066406 17.109375 C 22.914062 17.109375 22.769531 17.136719 22.628906 17.191406 C 22.492188 17.25 22.367188 17.328125 22.261719 17.433594 C 22.15625 17.535156 22.074219 17.65625 22.015625 17.792969 C 21.957031 17.925781 21.929688 18.070312 21.929688 18.214844 C 21.929688 18.363281 21.957031 18.503906 22.015625 18.640625 C 22.074219 18.773438 22.15625 18.894531 22.261719 19 C 22.367188 19.101562 22.492188 19.183594 22.628906 19.238281 C 22.769531 19.296875 22.914062 19.324219 23.066406 19.324219 C 23.214844 19.324219 23.359375 19.296875 23.5 19.238281 C 23.636719 19.183594 23.761719 19.101562 23.867188 19 C 23.972656 18.894531 24.054688 18.773438 24.113281 18.640625 C 24.171875 18.503906 24.199219 18.363281 24.199219 18.214844 C 24.199219 18.070312 24.171875 17.925781 24.113281 17.792969 C 24.054688 17.65625 23.972656 17.535156 23.867188 17.433594 C 23.761719 17.328125 23.636719 17.25 23.5 17.191406 C 23.359375 17.136719 23.214844 17.109375 23.066406 17.109375 Z M 23.066406 17.109375 " fill-opacity="1" fill-rule="nonzero"></path><path fill="#000000" d="M 16.25 17.109375 L 4.886719 17.109375 C 4.730469 17.109375 4.597656 17.054688 4.484375 16.945312 C 4.375 16.835938 4.320312 16.707031 4.320312 16.554688 C 4.320312 16.402344 4.375 16.269531 4.484375 16.164062 C 4.597656 16.054688 4.730469 16 4.886719 16 L 16.25 16 C 16.40625 16 16.539062 16.054688 16.648438 16.164062 C 16.761719 16.269531 16.816406 16.402344 16.816406 16.554688 C 16.816406 16.707031 16.761719 16.835938 16.648438 16.945312 C 16.539062 17.054688 16.40625 17.109375 16.25 17.109375 Z M 16.25 17.109375 " fill-opacity="1" fill-rule="nonzero"></path><path fill="#000000" d="M 11.488281 17.109375 L 9.648438 17.109375 C 9.242188 17.105469 8.855469 17.03125 8.480469 16.878906 C 8.105469 16.730469 7.773438 16.511719 7.488281 16.234375 C 7.203125 15.953125 6.980469 15.632812 6.824219 15.265625 C 6.671875 14.902344 6.59375 14.523438 6.59375 14.128906 L 6.59375 13.785156 C 6.59375 13.632812 6.648438 13.5 6.757812 13.394531 C 6.867188 13.285156 7.003906 13.230469 7.160156 13.230469 L 13.976562 13.230469 C 14.132812 13.230469 14.265625 13.285156 14.378906 13.394531 C 14.488281 13.5 14.542969 13.632812 14.542969 13.785156 L 14.542969 14.128906 C 14.542969 14.523438 14.464844 14.902344 14.3125 15.265625 C 14.15625 15.632812 13.933594 15.953125 13.648438 16.234375 C 13.359375 16.511719 13.03125 16.730469 12.65625 16.878906 C 12.28125 17.03125 11.890625 17.105469 11.488281 17.109375 Z M 7.738281 14.339844 C 7.765625 14.566406 7.835938 14.785156 7.945312 14.988281 C 8.050781 15.191406 8.195312 15.371094 8.371094 15.523438 C 8.546875 15.675781 8.746094 15.792969 8.964844 15.875 C 9.183594 15.957031 9.414062 16 9.648438 16 L 11.488281 16 C 11.722656 16 11.949219 15.957031 12.171875 15.875 C 12.390625 15.792969 12.589844 15.675781 12.765625 15.523438 C 12.941406 15.371094 13.085938 15.191406 13.191406 14.988281 C 13.300781 14.785156 13.367188 14.566406 13.394531 14.339844 Z M 7.738281 14.339844 " fill-opacity="1" fill-rule="nonzero"></path><path fill="#000000" d="M 10.226562 12.125 C 10.070312 12.125 9.9375 12.070312 9.824219 11.960938 C 9.714844 11.851562 9.660156 11.722656 9.660156 11.570312 C 9.648438 11.0625 9.789062 10.597656 10.082031 10.175781 C 10.261719 9.929688 10.351562 9.65625 10.339844 9.355469 C 10.339844 9.199219 10.394531 9.070312 10.507812 8.960938 C 10.617188 8.855469 10.75 8.800781 10.910156 8.800781 C 11.066406 8.800781 11.199219 8.855469 11.308594 8.960938 C 11.421875 9.070312 11.476562 9.199219 11.476562 9.355469 C 11.488281 9.859375 11.347656 10.324219 11.054688 10.746094 C 10.871094 10.992188 10.785156 11.265625 10.796875 11.570312 C 10.796875 11.722656 10.738281 11.851562 10.628906 11.960938 C 10.519531 12.070312 10.382812 12.125 10.226562 12.125 Z M 10.226562 12.125 " fill-opacity="1" fill-rule="nonzero"></path><path fill="#000000" d="M 12.5 12.125 C 12.34375 12.125 12.207031 12.070312 12.097656 11.960938 C 11.988281 11.851562 11.929688 11.722656 11.929688 11.570312 C 11.921875 11.0625 12.0625 10.597656 12.351562 10.175781 C 12.535156 9.929688 12.621094 9.65625 12.613281 9.355469 C 12.613281 9.199219 12.667969 9.070312 12.777344 8.960938 C 12.890625 8.855469 13.023438 8.800781 13.179688 8.800781 C 13.335938 8.800781 13.472656 8.855469 13.582031 8.960938 C 13.691406 9.070312 13.75 9.199219 13.75 9.355469 C 13.757812 9.859375 13.617188 10.324219 13.328125 10.746094 C 13.144531 10.992188 13.058594 11.265625 13.066406 11.570312 C 13.066406 11.722656 13.011719 11.851562 12.902344 11.960938 C 12.789062 12.070312 12.65625 12.125 12.5 12.125 Z M 12.5 12.125 " fill-opacity="1" fill-rule="nonzero"></path><path fill="#000000" d="M 7.957031 12.125 C 7.796875 12.125 7.664062 12.070312 7.554688 11.960938 C 7.441406 11.851562 7.386719 11.722656 7.386719 11.570312 C 7.378906 11.0625 7.519531 10.597656 7.808594 10.175781 C 7.992188 9.929688 8.078125 9.65625 8.070312 9.355469 C 8.070312 9.199219 8.125 9.070312 8.234375 8.960938 C 8.347656 8.855469 8.480469 8.800781 8.636719 8.800781 C 8.792969 8.800781 8.925781 8.855469 9.039062 8.960938 C 9.148438 9.070312 9.203125 9.199219 9.203125 9.355469 C 9.214844 9.859375 9.074219 10.324219 8.78125 10.746094 C 8.601562 10.992188 8.515625 11.265625 8.523438 11.570312 C 8.523438 11.722656 8.46875 11.851562 8.355469 11.960938 C 8.246094 12.070312 8.113281 12.125 7.957031 12.125 Z M 7.957031 12.125 " fill-opacity="1" fill-rule="nonzero"></path></svg> 