<?xml version="1.0" encoding="UTF-8"?> <svg xmlns="http://www.w3.org/2000/svg" xmlns:xlink="http://www.w3.org/1999/xlink" width="40" zoomAndPan="magnify" viewBox="0 0 30 30.000001" height="40" preserveAspectRatio="xMidYMid meet" version="1.0"><defs><clipPath id="5632e6a7c8"><path d="M 4 16 L 26 16 L 26 26.238281 L 4 26.238281 Z M 4 16 " clip-rule="nonzero"></path></clipPath><clipPath id="86fa2ebe53"><path d="M 12 3.011719 L 18 3.011719 L 18 11 L 12 11 Z M 12 3.011719 " clip-rule="nonzero"></path></clipPath></defs><path fill="#000000" d="M 14.988281 13.078125 C 10.714844 13.078125 7.730469 14.734375 7.730469 16.21875 C 7.730469 17.707031 10.714844 19.363281 14.988281 19.363281 C 19.265625 19.363281 22.25 17.707031 22.25 16.21875 C 22.25 14.734375 19.265625 13.078125 14.988281 13.078125 Z M 14.988281 20.410156 C 10.339844 20.410156 6.695312 18.566406 6.695312 16.21875 C 6.695312 13.871094 10.339844 12.03125 14.988281 12.03125 C 19.640625 12.03125 23.285156 13.871094 23.285156 16.21875 C 23.285156 18.566406 19.640625 20.410156 14.988281 20.410156 " fill-opacity="1" fill-rule="nonzero"></path><g clip-path="url(#5632e6a7c8)"><path fill="#000000" d="M 14.988281 26.167969 C 8.980469 26.167969 4.621094 23.746094 4.621094 20.410156 C 4.621094 18.957031 5.417969 17.65625 6.925781 16.644531 C 7.164062 16.484375 7.488281 16.550781 7.644531 16.789062 C 7.804688 17.03125 7.738281 17.355469 7.5 17.515625 C 6.660156 18.078125 5.660156 19.039062 5.660156 20.410156 C 5.660156 23.09375 9.671875 25.121094 14.988281 25.121094 C 20.308594 25.121094 24.320312 23.09375 24.320312 20.410156 C 24.320312 19.039062 23.320312 18.078125 22.480469 17.515625 C 22.238281 17.355469 22.175781 17.03125 22.335938 16.789062 C 22.492188 16.550781 22.816406 16.484375 23.054688 16.644531 C 24.5625 17.65625 25.359375 18.957031 25.359375 20.410156 C 25.359375 23.746094 21 26.167969 14.988281 26.167969 " fill-opacity="1" fill-rule="nonzero"></path></g><path fill="#000000" d="M 14.988281 23.550781 C 10.339844 23.550781 6.695312 21.710938 6.695312 19.363281 L 6.695312 16.21875 C 6.695312 15.933594 6.929688 15.695312 7.214844 15.695312 C 7.5 15.695312 7.730469 15.933594 7.730469 16.21875 L 7.730469 19.363281 C 7.730469 20.847656 10.714844 22.503906 14.988281 22.503906 C 19.265625 22.503906 22.25 20.847656 22.25 19.363281 L 22.25 16.21875 C 22.25 15.933594 22.480469 15.695312 22.765625 15.695312 C 23.050781 15.695312 23.285156 15.933594 23.285156 16.21875 L 23.285156 19.363281 C 23.285156 21.710938 19.640625 23.550781 14.988281 23.550781 " fill-opacity="1" fill-rule="nonzero"></path><path fill="#000000" d="M 24.332031 14.648438 C 24.148438 14.648438 23.96875 14.550781 23.875 14.375 C 23.742188 14.117188 23.835938 13.800781 24.085938 13.664062 C 25.910156 12.679688 26.992188 10.789062 26.910156 8.730469 C 26.898438 8.441406 27.121094 8.195312 27.410156 8.1875 C 27.707031 8.179688 27.933594 8.398438 27.945312 8.6875 C 28.042969 11.152344 26.753906 13.414062 24.578125 14.589844 C 24.5 14.628906 24.414062 14.648438 24.332031 14.648438 " fill-opacity="1" fill-rule="nonzero"></path><path fill="#000000" d="M 5.648438 14.648438 C 5.566406 14.648438 5.480469 14.628906 5.402344 14.589844 C 3.226562 13.414062 1.9375 11.152344 2.035156 8.6875 C 2.046875 8.398438 2.28125 8.179688 2.574219 8.1875 C 2.859375 8.195312 3.082031 8.441406 3.070312 8.730469 C 2.988281 10.789062 4.070312 12.679688 5.894531 13.664062 C 6.144531 13.800781 6.238281 14.117188 6.105469 14.375 C 6.011719 14.550781 5.832031 14.648438 5.648438 14.648438 " fill-opacity="1" fill-rule="nonzero"></path><g clip-path="url(#86fa2ebe53)"><path fill="#000000" d="M 14.988281 9.425781 C 15.28125 9.425781 15.558594 9.484375 15.816406 9.605469 C 16.515625 7.851562 16.203125 5.878906 14.988281 4.421875 C 13.777344 5.878906 13.464844 7.851562 14.164062 9.605469 C 14.421875 9.484375 14.699219 9.425781 14.988281 9.425781 Z M 16.027344 10.90625 C 15.890625 10.90625 15.753906 10.851562 15.660156 10.753906 C 15.300781 10.390625 14.679688 10.390625 14.320312 10.753906 C 14.207031 10.871094 14.039062 10.925781 13.878906 10.902344 C 13.714844 10.875 13.574219 10.777344 13.496094 10.632812 C 12.210938 8.21875 12.675781 5.199219 14.628906 3.28125 C 14.832031 3.082031 15.148438 3.082031 15.351562 3.28125 C 17.304688 5.199219 17.769531 8.21875 16.484375 10.632812 C 16.40625 10.777344 16.265625 10.875 16.101562 10.902344 C 16.074219 10.90625 16.050781 10.90625 16.027344 10.90625 " fill-opacity="1" fill-rule="nonzero"></path></g><path fill="#000000" d="M 19.410156 9.957031 C 19.585938 9.957031 19.765625 9.980469 19.941406 10.03125 C 20.238281 10.117188 20.503906 10.273438 20.722656 10.476562 C 21.757812 9.121094 22.054688 7.3125 21.5 5.695312 C 20.03125 6.632812 19.132812 8.25 19.113281 9.980469 C 19.210938 9.960938 19.308594 9.957031 19.410156 9.957031 Z M 20.6875 11.835938 C 20.65625 11.835938 20.625 11.832031 20.597656 11.828125 C 20.425781 11.796875 20.285156 11.683594 20.214844 11.527344 C 20.109375 11.289062 19.902344 11.109375 19.652344 11.039062 C 19.40625 10.964844 19.140625 11.007812 18.921875 11.152344 C 18.773438 11.25 18.582031 11.265625 18.417969 11.191406 C 18.257812 11.113281 18.144531 10.957031 18.121094 10.777344 C 17.804688 8.179688 19.175781 5.648438 21.53125 4.480469 C 21.65625 4.421875 21.796875 4.414062 21.929688 4.457031 C 22.058594 4.503906 22.167969 4.601562 22.226562 4.726562 C 23.320312 7.046875 22.851562 9.84375 21.054688 11.679688 C 20.957031 11.78125 20.824219 11.835938 20.6875 11.835938 " fill-opacity="1" fill-rule="nonzero"></path><path fill="#000000" d="M 8.480469 5.695312 C 7.925781 7.3125 8.222656 9.121094 9.257812 10.476562 C 9.476562 10.273438 9.742188 10.117188 10.039062 10.03125 C 10.308594 9.953125 10.59375 9.9375 10.867188 9.980469 C 10.847656 8.25 9.949219 6.632812 8.480469 5.695312 Z M 9.292969 11.835938 C 9.15625 11.835938 9.023438 11.78125 8.925781 11.679688 C 7.128906 9.84375 6.660156 7.046875 7.753906 4.726562 C 7.8125 4.601562 7.921875 4.503906 8.050781 4.457031 C 8.183594 4.414062 8.324219 4.421875 8.449219 4.480469 C 10.804688 5.648438 12.175781 8.179688 11.859375 10.777344 C 11.835938 10.957031 11.722656 11.113281 11.5625 11.191406 C 11.398438 11.265625 11.207031 11.25 11.058594 11.152344 C 10.839844 11.007812 10.574219 10.964844 10.328125 11.039062 C 10.078125 11.109375 9.871094 11.289062 9.765625 11.527344 C 9.695312 11.683594 9.550781 11.796875 9.382812 11.828125 C 9.355469 11.832031 9.324219 11.835938 9.292969 11.835938 " fill-opacity="1" fill-rule="nonzero"></path><path fill="#000000" d="M 24.332031 14.648438 C 24.320312 14.648438 24.308594 14.648438 24.292969 14.648438 C 24.007812 14.628906 23.792969 14.375 23.816406 14.085938 C 23.835938 13.792969 23.734375 13.5 23.535156 13.285156 C 23.335938 13.070312 23.054688 12.945312 22.761719 12.945312 C 22.605469 12.945312 22.457031 12.871094 22.359375 12.746094 C 22.261719 12.625 22.222656 12.460938 22.257812 12.304688 C 22.804688 9.878906 24.929688 8.1875 27.429688 8.1875 C 27.714844 8.1875 27.945312 8.417969 27.945312 8.710938 C 27.945312 8.996094 27.714844 9.234375 27.429688 9.234375 C 25.609375 9.234375 24.03125 10.347656 23.425781 12.003906 C 23.753906 12.117188 24.058594 12.308594 24.296875 12.570312 C 24.691406 13 24.890625 13.582031 24.847656 14.164062 C 24.828125 14.4375 24.601562 14.648438 24.332031 14.648438 " fill-opacity="1" fill-rule="nonzero"></path><path fill="#000000" d="M 5.648438 14.648438 C 5.378906 14.648438 5.152344 14.4375 5.132812 14.164062 C 5.089844 13.582031 5.289062 13 5.683594 12.570312 C 5.921875 12.308594 6.226562 12.117188 6.554688 12.003906 C 5.949219 10.347656 4.371094 9.234375 2.550781 9.234375 C 2.265625 9.234375 2.035156 8.996094 2.035156 8.710938 C 2.035156 8.417969 2.265625 8.1875 2.550781 8.1875 C 5.046875 8.1875 7.175781 9.878906 7.722656 12.304688 C 7.757812 12.460938 7.71875 12.625 7.621094 12.746094 C 7.523438 12.871094 7.375 12.945312 7.21875 12.945312 C 6.925781 12.945312 6.644531 13.070312 6.445312 13.285156 C 6.246094 13.5 6.144531 13.792969 6.164062 14.085938 C 6.1875 14.375 5.972656 14.628906 5.6875 14.648438 C 5.671875 14.648438 5.660156 14.648438 5.648438 14.648438 " fill-opacity="1" fill-rule="nonzero"></path><path fill="#000000" d="M 17.0625 23.417969 C 16.777344 23.417969 16.546875 23.183594 16.546875 22.894531 L 16.546875 19.753906 C 16.546875 19.464844 16.777344 19.230469 17.0625 19.230469 C 17.347656 19.230469 17.582031 19.464844 17.582031 19.753906 L 17.582031 22.894531 C 17.582031 23.183594 17.347656 23.417969 17.0625 23.417969 " fill-opacity="1" fill-rule="nonzero"></path><path fill="#000000" d="M 20.691406 22.378906 C 20.40625 22.378906 20.175781 22.144531 20.175781 21.855469 L 20.175781 18.714844 C 20.175781 18.421875 20.40625 18.191406 20.691406 18.191406 C 20.976562 18.191406 21.210938 18.421875 21.210938 18.714844 L 21.210938 21.855469 C 21.210938 22.144531 20.976562 22.378906 20.691406 22.378906 " fill-opacity="1" fill-rule="nonzero"></path><path fill="#000000" d="M 12.917969 23.417969 C 12.632812 23.417969 12.398438 23.183594 12.398438 22.894531 L 12.398438 19.753906 C 12.398438 19.464844 12.632812 19.230469 12.917969 19.230469 C 13.203125 19.230469 13.433594 19.464844 13.433594 19.753906 L 13.433594 22.894531 C 13.433594 23.183594 13.203125 23.417969 12.917969 23.417969 " fill-opacity="1" fill-rule="nonzero"></path><path fill="#000000" d="M 9.804688 22.613281 C 9.519531 22.613281 9.289062 22.378906 9.289062 22.089844 L 9.289062 18.949219 C 9.289062 18.65625 9.519531 18.425781 9.804688 18.425781 C 10.089844 18.425781 10.324219 18.65625 10.324219 18.949219 L 10.324219 22.089844 C 10.324219 22.378906 10.089844 22.613281 9.804688 22.613281 " fill-opacity="1" fill-rule="nonzero"></path></svg> 