<?xml version="1.0" encoding="UTF-8"?> <svg xmlns="http://www.w3.org/2000/svg" xmlns:xlink="http://www.w3.org/1999/xlink" version="1.1" id="Layer_1" x="0px" y="0px" viewBox="0 0 128 128" style="enable-background:new 0 0 128 128;" xml:space="preserve"> <style type="text/css"> .st0{fill:#FFFFFF;} .st1{fill:#1F5129;} .st2{fill-rule:evenodd;clip-rule:evenodd;fill:#1F5129;} .st3{fill:#FFFFFF;stroke:#363B3E;stroke-width:1.2;} .st4{fill:#101010;fill-opacity:3.000000e-02;} .st5{fill-rule:evenodd;clip-rule:evenodd;fill:#101010;fill-opacity:0.1;} </style> <path class="st0" d="M52,40h24c2.8,0,5,2.2,5,5v38c0,2.8-2.2,5-5,5H52c-2.8,0-5-2.2-5-5V45C47,42.2,49.2,40,52,40z"></path> <path class="st1" d="M55.4,56c-0.6,0-1,0.4-1,1s0.4,1,1,1h1.4l2.2,7.7c0.4,1.3,1.5,2.2,2.9,2.2h6.9c1.4,0,2.6-1,2.9-2.4l1-4.5 c0.1-0.3,0-0.6-0.2-0.8c-0.2-0.2-0.4-0.4-0.7-0.4L63,58.4c-0.5-0.1-1.1,0.3-1.1,0.8c-0.1,0.5,0.3,1.1,0.8,1.1l7.8,1.2l-0.8,3.5 c-0.1,0.5-0.5,0.8-1,0.8h-6.9c-0.4,0-0.8-0.3-1-0.7l-2.4-8.4c-0.1-0.4-0.5-0.7-1-0.7H55.4z"></path> <path class="st1" d="M62,70.5c0,0.8-0.7,1.5-1.5,1.5S59,71.3,59,70.5s0.7-1.5,1.5-1.5S62,69.7,62,70.5z"></path> <path class="st1" d="M71,70.5c0,0.8-0.7,1.5-1.5,1.5S68,71.3,68,70.5s0.7-1.5,1.5-1.5S71,69.7,71,70.5z"></path> <path class="st2" d="M56,39c0-4.4,3.6-8,8-8s8,3.6,8,8h4c3.3,0,6,2.7,6,6v38c0,3.3-2.7,6-6,6H52c-3.3,0-6-2.7-6-6V45 c0-3.3,2.7-6,6-6H56z M56.3,41H52c-2.2,0-4,1.8-4,4v38c0,2.2,1.8,4,4,4h24c2.2,0,4-1.8,4-4V45c0-2.2-1.8-4-4-4h-4.3 c-0.9,3.5-4,6-7.7,6S57.1,44.5,56.3,41z M68.7,36.3c0.4,0.4,0.4,1,0,1.4l-5,5c-0.4,0.4-0.9,0.4-1.3,0.1l-2.5-2 c-0.4-0.3-0.5-1-0.2-1.4c0.3-0.4,1-0.5,1.4-0.2l1.8,1.4l4.4-4.4C67.7,35.9,68.3,35.9,68.7,36.3z"></path> <path class="st3" d="M69,86.4c-0.4,0.3-0.5,0.8-0.3,1.3l1.2,3.2c0.2,0.6,0.8,1.4,1.3,1.8l0,0l0,0L69,86.4z M69,86.4L69,86.4 M69,86.4L69,86.4 M68.9,86.4l0.2-0.1L68.9,86.4z M72.4,87c-0.8-0.9-2.1-1.2-3.2-0.8l2,6.4l0,0l0,0l0,0l0,0c0,0,0,0,0.1,0.1 c0.1,0.1,0.2,0.1,0.3,0.2c0.2,0.2,0.5,0.5,0.8,0.8c0.3,0.3,0.6,0.6,0.8,0.9c0.1,0.1,0.2,0.2,0.2,0.3c0,0,0,0.1,0,0.1V96v0.6H74h4 h1.1H80h1h0.6V96v-1c0,0,0,0,0,0c0,0,0,0,0,0c0,0,0-0.1,0-0.1c0-0.1,0.1-0.2,0.1-0.4c0.1-0.3,0.3-0.7,0.5-1c0.2-0.3,0.4-0.7,0.5-0.9 c0.1-0.1,0.1-0.2,0.2-0.3l0-0.1l0,0l0,0l0,0l0,0v0l0,0l0,0l0,0c0.2-0.3,0.3-0.7,0.4-1c0.1-0.4,0.2-0.8,0.2-1.1v-4h0l0,0 c0-1.2-1.1-2.2-2.3-2.2c-0.3,0-0.6,0.1-0.8,0.3c-0.4-0.5-1-0.7-1.7-0.7c-0.3,0-0.6,0.1-0.8,0.3c-0.4-0.5-1-0.7-1.7-0.7 c-0.1,0-0.3,0-0.4,0L75.6,80c-0.1-0.9-0.8-1.6-1.7-1.6c-0.9,0-1.6,0.7-1.6,1.6v4V87z"></path> <path class="st4" d="M10,39c-2.8,0-5,2.2-5,5v40c0,2.8,2.2,5,5,5h26c2.8,0,5-2.2,5-5V44c0-2.8-2.2-5-5-5H10z"></path> <path class="st4" d="M92,39c-2.8,0-5,2.2-5,5v40c0,2.8,2.2,5,5,5h26c2.8,0,5-2.2,5-5V44c0-2.8-2.2-5-5-5H92z"></path> <path class="st5" d="M5,44c0-2.8,2.2-5,5-5h26c2.8,0,5,2.2,5,5v40c0,2.8-2.2,5-5,5H10c-2.8,0-5-2.2-5-5V44z M10,41h26 c1.7,0,3,1.3,3,3v40c0,1.7-1.3,3-3,3H10c-1.7,0-3-1.3-3-3V44C7,42.3,8.3,41,10,41z"></path> <path class="st5" d="M87,44c0-2.8,2.2-5,5-5h26c2.8,0,5,2.2,5,5v40c0,2.8-2.2,5-5,5H92c-2.8,0-5-2.2-5-5V44z M92,41h26 c1.7,0,3,1.3,3,3v40c0,1.7-1.3,3-3,3H92c-1.7,0-3-1.3-3-3V44C89,42.3,90.3,41,92,41z"></path> </svg> 