<?xml version="1.0" encoding="UTF-8"?> <svg xmlns="http://www.w3.org/2000/svg" xmlns:xlink="http://www.w3.org/1999/xlink" version="1.1" id="Layer_1" x="0px" y="0px" viewBox="0 0 128 128" style="enable-background:new 0 0 128 128;" xml:space="preserve"> <style type="text/css"> .st0{fill:#FFFFFF;} .st1{fill-rule:evenodd;clip-rule:evenodd;fill:#1F5129;} .st2{fill:#101010;fill-opacity:0.2;} .st3{fill-rule:evenodd;clip-rule:evenodd;fill:#101010;fill-opacity:0.2;} </style> <path class="st0" d="M45,34c0-2.8,2.2-5,5-5h28c2.8,0,5,2.2,5,5v60c0,2.8-2.2,5-5,5H50c-2.8,0-5-2.2-5-5V34z"></path> <path class="st1" d="M78,29c2.8,0,5,2.2,5,5v60c0,2.8-2.2,5-5,5H50c-2.8,0-5-2.2-5-5V34c0-2.8,2.2-5,5-5H78z M81,34v60 c0,1.7-1.3,3-3,3H50c-1.7,0-3-1.3-3-3V34c0-1.7,1.3-3,3-3h4c0.6,0,1,0.4,1,1c0,1.7,1.3,3,3,3h12c1.7,0,3-1.3,3-3c0-0.6,0.4-1,1-1h4 C79.7,31,81,32.3,81,34z M71.2,31H56.8c0.1,0.3,0.2,0.6,0.2,1c0,0.6,0.4,1,1,1h12c0.6,0,1-0.4,1-1C71,31.6,71.1,31.3,71.2,31z"></path> <path class="st0" d="M25,46c0,2.2,1.8,4,4,4h2.6c0.8,0,1.4,0.6,1.4,1.4c0,1.1,1.2,1.8,2.2,1.2l3-2c0.5-0.4,1.2-0.6,1.8-0.6h6 c2.8,0,5-2.2,5-5v-6c0-2.8-2.2-5-5-5H30c-2.8,0-5,2.2-5,5V46z"></path> <path class="st0" d="M31,68c0,2.2,1.8,4,4,4h2.6c0.8,0,1.4,0.6,1.4,1.4c0,1.1,1.2,1.8,2.2,1.2l3-2c0.5-0.4,1.2-0.6,1.8-0.6h6 c2.8,0,5-2.2,5-5v-6c0-2.8-2.2-5-5-5H36c-2.8,0-5,2.2-5,5V68z"></path> <path class="st2" d="M89.2,31.2c0.4-0.4,0.4-1,0-1.4c-0.4-0.4-1-0.4-1.4,0L86,31.6c-0.8,0.8-0.8,2,0,2.8l1.6,1.6L86,37.6 c-0.8,0.8-0.8,2,0,2.8l1.6,1.6l-1.8,1.8c-0.4,0.4-0.4,1,0,1.4s1,0.4,1.4,0l1.8-1.8c0.8-0.8,0.8-2,0-2.8L87.4,39l1.6-1.6 c0.8-0.8,0.8-2,0-2.8L87.4,33L89.2,31.2z"></path> <path class="st3" d="M29,50c-2.2,0-4-1.8-4-4v-7c0-2.8,2.2-5,5-5h16c2.8,0,5,2.2,5,5v6c0,2.8-2.2,5-5,5h-6c-0.7,0-1.3,0.2-1.8,0.6 l-3,2c-0.9,0.6-2.2,0-2.2-1.2c0-0.8-0.6-1.4-1.4-1.4H29z M27,46v-7c0-1.7,1.3-3,3-3h16c1.7,0,3,1.3,3,3v6c0,1.7-1.3,3-3,3h-6 c-1.1,0-2.1,0.3-3,0.9l-2.2,1.5C34.4,49,33.1,48,31.6,48H29C27.9,48,27,47.1,27,46z"></path> <path class="st3" d="M35,72c-2.2,0-4-1.8-4-4v-7c0-2.8,2.2-5,5-5h16c2.8,0,5,2.2,5,5v6c0,2.8-2.2,5-5,5h-6c-0.7,0-1.3,0.2-1.8,0.6 l-3,2c-0.9,0.6-2.2,0-2.2-1.2c0-0.8-0.6-1.4-1.4-1.4H35z M33,68v-7c0-1.7,1.3-3,3-3h16c1.7,0,3,1.3,3,3v6c0,1.7-1.3,3-3,3h-6 c-1.1,0-2.1,0.3-3,0.9l-2.2,1.5C40.4,71,39.1,70,37.6,70H35C33.9,70,33,69.1,33,68z"></path> <path class="st2" d="M42.2,81.8c0.4,0.4,0.4,1,0,1.4L40.4,85l1.6,1.6c0.8,0.8,0.8,2,0,2.8L40.4,91l1.6,1.6c0.8,0.8,0.8,2,0,2.8 l-1.8,1.8c-0.4,0.4-1,0.4-1.4,0s-0.4-1,0-1.4l1.8-1.8L39,92.4c-0.8-0.8-0.8-2,0-2.8l1.6-1.6L39,86.4c-0.8-0.8-0.8-2,0-2.8l1.8-1.8 C41.2,81.4,41.8,81.4,42.2,81.8z"></path> </svg> 