<svg xmlns="http://www.w3.org/2000/svg" xmlns:xlink="http://www.w3.org/1999/xlink" width="40" zoomAndPan="magnify" viewBox="0 0 30 30.000001" height="40" preserveAspectRatio="xMidYMid meet" version="1.0"><defs><clipPath id="4d3bdc44e2"><path d="M 0.484375 0 L 29.515625 0 L 29.515625 29.03125 L 0.484375 29.03125 Z M 0.484375 0 " clip-rule="nonzero"/></clipPath><clipPath id="176653d696"><path d="M 3.394531 4.632812 L 26.605469 4.632812 L 26.605469 24.398438 L 3.394531 24.398438 Z M 3.394531 4.632812 " clip-rule="nonzero"/></clipPath><clipPath id="8250ee0fc2"><path d="M 4 6 L 26.605469 6 L 26.605469 24 L 4 24 Z M 4 6 " clip-rule="nonzero"/></clipPath><clipPath id="63d66def19"><path d="M 2.523438 3.761719 L 27.199219 3.761719 L 27.199219 25.265625 L 2.523438 25.265625 Z M 2.523438 3.761719 " clip-rule="nonzero"/></clipPath></defs><g clip-path="url(#4d3bdc44e2)"><path fill="#ffffff" d="M 0.484375 0 L 29.515625 0 L 29.515625 29.03125 L 0.484375 29.03125 Z M 0.484375 0 " fill-opacity="1" fill-rule="nonzero"/><path fill="#ffffff" d="M 0.484375 0 L 29.515625 0 L 29.515625 29.03125 L 0.484375 29.03125 Z M 0.484375 0 " fill-opacity="1" fill-rule="nonzero"/></g><g clip-path="url(#176653d696)"><path fill="#000000" d="M 25.09375 3.785156 L 4.65625 3.785156 C 3.484375 3.785156 2.535156 4.757812 2.535156 5.957031 L 2.535156 23.402344 C 2.535156 24.601562 3.484375 25.578125 4.65625 25.578125 L 25.09375 25.578125 C 26.261719 25.578125 27.214844 24.601562 27.214844 23.402344 L 27.214844 5.957031 C 27.214844 4.757812 26.261719 3.785156 25.09375 3.785156 Z M 26.367188 23.402344 C 26.367188 24.121094 25.792969 24.707031 25.09375 24.707031 L 4.65625 24.707031 C 3.957031 24.707031 3.382812 24.121094 3.382812 23.402344 L 3.382812 5.957031 C 3.382812 5.242188 3.957031 4.652344 4.65625 4.652344 L 25.09375 4.652344 C 25.792969 4.652344 26.367188 5.242188 26.367188 5.957031 Z M 26.367188 23.402344 " fill-opacity="1" fill-rule="nonzero"/></g><path fill="#000000" d="M 17.363281 10.878906 C 15.3125 10.878906 13.648438 12.585938 13.648438 14.679688 C 13.648438 16.777344 15.3125 18.484375 17.363281 18.484375 C 19.414062 18.484375 21.078125 16.777344 21.078125 14.679688 C 21.078125 12.585938 19.40625 10.878906 17.363281 10.878906 Z M 17.785156 17.578125 L 17.785156 16.328125 C 17.785156 16.089844 17.59375 15.894531 17.363281 15.894531 C 17.128906 15.894531 16.9375 16.089844 16.9375 16.328125 L 16.9375 17.578125 C 15.699219 17.386719 14.71875 16.382812 14.53125 15.113281 L 15.753906 15.113281 C 15.988281 15.113281 16.175781 14.917969 16.175781 14.679688 C 16.175781 14.441406 15.988281 14.246094 15.753906 14.246094 L 14.53125 14.246094 C 14.71875 12.976562 15.699219 11.972656 16.9375 11.78125 L 16.9375 13.035156 C 16.9375 13.273438 17.128906 13.46875 17.363281 13.46875 C 17.59375 13.46875 17.785156 13.273438 17.785156 13.035156 L 17.785156 11.78125 C 19.027344 11.972656 20.007812 12.976562 20.191406 14.246094 L 18.972656 14.246094 C 18.738281 14.246094 18.546875 14.441406 18.546875 14.679688 C 18.546875 14.917969 18.738281 15.113281 18.972656 15.113281 L 20.191406 15.113281 C 20.007812 16.382812 19.027344 17.386719 17.785156 17.578125 Z M 17.785156 17.578125 " fill-opacity="1" fill-rule="nonzero"/><g clip-path="url(#8250ee0fc2)"><path fill="#000000" d="M 25.59375 11.15625 C 25.828125 11.15625 26.015625 10.960938 26.015625 10.722656 C 26.015625 10.480469 25.828125 10.285156 25.59375 10.285156 L 25.015625 10.285156 L 25.015625 6.464844 C 25.015625 6.226562 24.824219 6.03125 24.589844 6.03125 L 5.15625 6.03125 C 4.925781 6.03125 4.734375 6.226562 4.734375 6.464844 L 4.734375 22.890625 C 4.734375 23.128906 4.925781 23.324219 5.15625 23.324219 L 24.59375 23.324219 C 24.828125 23.324219 25.019531 23.128906 25.019531 22.890625 L 25.019531 19.070312 L 25.597656 19.070312 C 25.832031 19.070312 26.023438 18.875 26.023438 18.636719 C 26.023438 18.398438 25.832031 18.199219 25.597656 18.199219 L 25.019531 18.199219 L 25.019531 11.15625 Z M 24.167969 18.207031 L 23.589844 18.207031 C 23.355469 18.207031 23.164062 18.402344 23.164062 18.640625 C 23.164062 18.878906 23.355469 19.074219 23.589844 19.074219 L 24.167969 19.074219 L 24.167969 22.460938 L 5.582031 22.460938 L 5.582031 6.90625 L 24.171875 6.90625 L 24.171875 10.289062 L 23.59375 10.289062 C 23.359375 10.289062 23.167969 10.488281 23.167969 10.726562 C 23.167969 10.964844 23.359375 11.160156 23.59375 11.160156 L 24.171875 11.160156 L 24.171875 18.207031 Z M 24.167969 18.207031 " fill-opacity="1" fill-rule="nonzero"/></g><path fill="#000000" d="M 10.539062 10.039062 L 8.039062 10.039062 C 7.804688 10.039062 7.617188 10.234375 7.617188 10.472656 L 7.617188 18.886719 C 7.617188 19.125 7.804688 19.320312 8.039062 19.320312 L 10.539062 19.320312 C 10.773438 19.320312 10.964844 19.125 10.964844 18.886719 L 10.964844 10.472656 C 10.964844 10.234375 10.773438 10.039062 10.539062 10.039062 Z M 10.117188 18.453125 L 8.464844 18.453125 L 8.464844 10.90625 L 10.117188 10.90625 Z M 10.117188 18.453125 " fill-opacity="1" fill-rule="nonzero"/><g clip-path="url(#63d66def19)"><path stroke-linecap="butt" transform="matrix(0.725806, 0, 0, 0.725806, 2.52235, 3.762666)" fill="none" stroke-linejoin="miter" d="M 0.00149775 -0.0013051 L 0.00149775 29.626299 L 34.375977 29.626299 L 34.375977 -0.0013051 L 0.00149775 -0.0013051 " stroke="#000000" stroke-width="4" stroke-opacity="1" stroke-miterlimit="4"/></g></svg>